<ttFont>
    <TTGlyph name="A" xMin="68" yMin="-30" xMax="1480" yMax="1567">
      <contour>
        <pt x="552" y="1393" on="1"/>
        <pt x="322" y="1393" on="0"/>
        <pt x="322" y="1259" on="1"/>
        <pt x="322" y="1191" on="0"/>
        <pt x="392" y="1118" on="1"/>
        <pt x="422" y="1087" on="0"/>
        <pt x="490" y="1024" on="0"/>
        <pt x="520" y="986" on="1"/>
        <pt x="590" y="896" on="0"/>
        <pt x="589" y="792" on="1"/>
        <pt x="589" y="697" on="0"/>
        <pt x="458" y="566" on="0"/>
        <pt x="363" y="566" on="1"/>
        <pt x="270" y="566" on="0"/>
        <pt x="206" y="632" on="1"/>
        <pt x="141" y="698" on="0"/>
        <pt x="141" y="792" on="1"/>
        <pt x="141" y="902" on="0"/>
        <pt x="230" y="970" on="1"/>
        <pt x="257" y="990" on="0"/>
        <pt x="290" y="1002" on="1"/>
        <pt x="222" y="1052" on="0"/>
        <pt x="197" y="1089" on="1"/>
        <pt x="147" y="1163" on="0"/>
        <pt x="147" y="1326" on="0"/>
        <pt x="170" y="1382" on="1"/>
        <pt x="194" y="1439" on="0"/>
        <pt x="242" y="1480" on="1"/>
        <pt x="345" y="1567" on="0"/>
        <pt x="552" y="1567" on="1"/>
        <pt x="886" y="1566" on="0"/>
        <pt x="1002" y="1340" on="1"/>
        <pt x="1042" y="1260" on="0"/>
        <pt x="1043" y="1076" on="0"/>
        <pt x="1013" y="945" on="0"/>
        <pt x="963" y="824" on="0"/>
        <pt x="931" y="768" on="1"/>
        <pt x="866" y="659" on="1"/>
        <pt x="928" y="596" on="1"/>
        <pt x="1073" y="697" on="1"/>
        <pt x="1073" y="1167" on="1"/>
        <pt x="1074" y="1341" on="0"/>
        <pt x="1194" y="1456" on="1"/>
        <pt x="1310" y="1567" on="0"/>
        <pt x="1480" y="1567" on="1"/>
        <pt x="1480" y="1394" on="1"/>
        <pt x="1354" y="1394" on="0"/>
        <pt x="1294" y="1306" on="1"/>
        <pt x="1242" y="1230" on="0"/>
        <pt x="1243" y="1101" on="1"/>
        <pt x="1243" y="398" on="1"/>
        <pt x="1242" y="279" on="0"/>
        <pt x="1374" y="176" on="1"/>
        <pt x="1414" y="145" on="0"/>
        <pt x="1460" y="114" on="1"/>
        <pt x="1360" y="-30" on="1"/>
        <pt x="1220" y="65" on="0"/>
        <pt x="1170" y="130" on="1"/>
        <pt x="1073" y="255" on="0"/>
        <pt x="1073" y="393" on="1"/>
        <pt x="1073" y="496" on="1"/>
        <pt x="915" y="380" on="1"/>
        <pt x="763" y="519" on="1"/>
        <pt x="568" y="274" on="0"/>
        <pt x="334" y="76" on="1"/>
        <pt x="260" y="14" on="0"/>
        <pt x="196" y="-30" on="1"/>
        <pt x="68" y="89" on="1"/>
        <pt x="384" y="316" on="0"/>
        <pt x="610" y="588" on="1"/>
        <pt x="874" y="906" on="0"/>
        <pt x="874" y="1143" on="1"/>
        <pt x="874" y="1316" on="0"/>
        <pt x="692" y="1374" on="1"/>
        <pt x="632" y="1394" on="0"/>
      </contour>
      <contour>
        <pt x="342" y="844" on="0"/>
        <pt x="311" y="812" on="0"/>
        <pt x="311" y="767" on="0"/>
        <pt x="342" y="736" on="0"/>
        <pt x="387" y="736" on="0"/>
        <pt x="419" y="767" on="0"/>
        <pt x="419" y="812" on="0"/>
        <pt x="387" y="844" on="0"/>
      </contour>
    </TTGlyph>
    <TTGlyph name="AE" xMin="64" yMin="-30" xMax="2411" yMax="1617">
      <contour>
        <pt x="1711" y="-1" on="1"/>
        <pt x="1101" y="-1" on="0"/>
        <pt x="1071" y="497" on="1"/>
        <pt x="911" y="380" on="1"/>
        <pt x="759" y="519" on="1"/>
        <pt x="564" y="274" on="0"/>
        <pt x="330" y="76" on="1"/>
        <pt x="256" y="14" on="0"/>
        <pt x="192" y="-30" on="1"/>
        <pt x="64" y="89" on="1"/>
        <pt x="380" y="316" on="0"/>
        <pt x="606" y="588" on="1"/>
        <pt x="870" y="906" on="0"/>
        <pt x="870" y="1143" on="1"/>
        <pt x="870" y="1316" on="0"/>
        <pt x="688" y="1374" on="1"/>
        <pt x="628" y="1394" on="0"/>
        <pt x="492" y="1393" on="0"/>
        <pt x="403" y="1372" on="0"/>
        <pt x="372" y="1354" on="1"/>
        <pt x="309" y="1316" on="0"/>
        <pt x="309" y="1210" on="0"/>
        <pt x="354" y="1141" on="0"/>
        <pt x="421" y="1082" on="0"/>
        <pt x="500" y="1026" on="0"/>
        <pt x="534" y="992" on="1"/>
        <pt x="612" y="911" on="0"/>
        <pt x="612" y="808" on="1"/>
        <pt x="612" y="714" on="0"/>
        <pt x="546" y="650" on="1"/>
        <pt x="480" y="585" on="0"/>
        <pt x="388" y="585" on="1"/>
        <pt x="295" y="585" on="0"/>
        <pt x="230" y="650" on="1"/>
        <pt x="165" y="714" on="0"/>
        <pt x="165" y="794" on="1"/>
        <pt x="165" y="944" on="0"/>
        <pt x="286" y="1007" on="1"/>
        <pt x="217" y="1061" on="0"/>
        <pt x="189" y="1099" on="1"/>
        <pt x="136" y="1173" on="0"/>
        <pt x="136" y="1327" on="0"/>
        <pt x="192" y="1444" on="0"/>
        <pt x="246" y="1484" on="1"/>
        <pt x="355" y="1566" on="0"/>
        <pt x="548" y="1567" on="1"/>
        <pt x="882" y="1566" on="0"/>
        <pt x="998" y="1340" on="1"/>
        <pt x="1038" y="1260" on="0"/>
        <pt x="1039" y="1076" on="0"/>
        <pt x="1009" y="945" on="0"/>
        <pt x="959" y="824" on="0"/>
        <pt x="927" y="768" on="1"/>
        <pt x="862" y="659" on="1"/>
        <pt x="924" y="596" on="1"/>
        <pt x="1069" y="697" on="1"/>
        <pt x="1069" y="1167" on="1"/>
        <pt x="1070" y="1341" on="0"/>
        <pt x="1190" y="1456" on="1"/>
        <pt x="1306" y="1567" on="0"/>
        <pt x="1476" y="1567" on="1"/>
        <pt x="1593" y="1567" on="0"/>
        <pt x="1653" y="1491" on="1"/>
        <pt x="1755" y="1617" on="1"/>
        <pt x="1819" y="1414" on="0"/>
        <pt x="1900" y="1341" on="1"/>
        <pt x="1930" y="1314" on="0"/>
        <pt x="1994" y="1314" on="0"/>
        <pt x="2018" y="1330" on="1"/>
        <pt x="2042" y="1346" on="0"/>
        <pt x="2059" y="1376" on="1"/>
        <pt x="2094" y="1437" on="0"/>
        <pt x="2094" y="1537" on="1"/>
        <pt x="2268" y="1537" on="1"/>
        <pt x="2268" y="1360" on="0"/>
        <pt x="2188" y="1252" on="1"/>
        <pt x="2104" y="1139" on="0"/>
        <pt x="1802" y="1139" on="0"/>
        <pt x="1704" y="1275" on="1"/>
        <pt x="1632" y="1187" on="1"/>
        <pt x="1602" y="1149" on="0"/>
        <pt x="1602" y="1097" on="0"/>
        <pt x="1626" y="1060" on="0"/>
        <pt x="1646" y="1044" on="1"/>
        <pt x="1667" y="1028" on="0"/>
        <pt x="1693" y="1012" on="1"/>
        <pt x="1800" y="951" on="1"/>
        <pt x="1826" y="936" on="0"/>
        <pt x="1852" y="918" on="1"/>
        <pt x="1888" y="995" on="0"/>
        <pt x="1924" y="1026" on="1"/>
        <pt x="1989" y="1081" on="0"/>
        <pt x="2069" y="1081" on="1"/>
        <pt x="2144" y="1081" on="0"/>
        <pt x="2212" y="1024" on="1"/>
        <pt x="2212" y="1131" on="1"/>
        <pt x="2382" y="1131" on="1"/>
        <pt x="2382" y="993" on="0"/>
        <pt x="2345" y="893" on="0"/>
        <pt x="2284" y="843" on="0"/>
        <pt x="2197" y="843" on="0"/>
        <pt x="2178" y="853" on="1"/>
        <pt x="2160" y="863" on="0"/>
        <pt x="2146" y="875" on="1"/>
        <pt x="2120" y="897" on="1"/>
        <pt x="2108" y="907" on="0"/>
        <pt x="2070" y="907" on="0"/>
        <pt x="2039" y="886" on="0"/>
        <pt x="2027" y="869" on="1"/>
        <pt x="2008" y="842" on="0"/>
        <pt x="1988" y="785" on="1"/>
        <pt x="2036" y="706" on="0"/>
        <pt x="2036" y="542" on="0"/>
        <pt x="1988" y="430" on="0"/>
        <pt x="1946" y="388" on="1"/>
        <pt x="1855" y="298" on="0"/>
        <pt x="1729" y="299" on="1"/>
        <pt x="1602" y="299" on="0"/>
        <pt x="1423" y="478" on="0"/>
        <pt x="1423" y="605" on="1"/>
        <pt x="1423" y="698" on="0"/>
        <pt x="1475" y="775" on="1"/>
        <pt x="1613" y="673" on="1"/>
        <pt x="1595" y="643" on="0"/>
        <pt x="1595" y="577" on="0"/>
        <pt x="1616" y="529" on="0"/>
        <pt x="1634" y="511" on="1"/>
        <pt x="1673" y="472" on="0"/>
        <pt x="1728" y="472" on="1"/>
        <pt x="1784" y="472" on="0"/>
        <pt x="1862" y="550" on="0"/>
        <pt x="1862" y="645" on="0"/>
        <pt x="1826" y="710" on="0"/>
        <pt x="1768" y="764" on="0"/>
        <pt x="1732" y="786" on="1"/>
        <pt x="1663" y="828" on="1"/>
        <pt x="1550" y="890" on="0"/>
        <pt x="1509" y="932" on="1"/>
        <pt x="1427" y="1016" on="0"/>
        <pt x="1427" y="1118" on="1"/>
        <pt x="1427" y="1216" on="0"/>
        <pt x="1498" y="1298" on="1"/>
        <pt x="1525" y="1330" on="0"/>
        <pt x="1525" y="1354" on="1"/>
        <pt x="1525" y="1394" on="0"/>
        <pt x="1409" y="1394" on="0"/>
        <pt x="1318" y="1346" on="0"/>
        <pt x="1290" y="1306" on="1"/>
        <pt x="1238" y="1230" on="0"/>
        <pt x="1239" y="1101" on="1"/>
        <pt x="1239" y="588" on="1"/>
        <pt x="1239" y="173" on="0"/>
        <pt x="1713" y="173" on="1"/>
        <pt x="1916" y="172" on="0"/>
        <pt x="2064" y="314" on="1"/>
        <pt x="2177" y="422" on="0"/>
        <pt x="2249" y="607" on="1"/>
        <pt x="2411" y="543" on="1"/>
        <pt x="2326" y="322" on="0"/>
        <pt x="2172" y="177" on="1"/>
        <pt x="1982" y="-1" on="0"/>
      </contour>
      <contour>
        <pt x="317" y="806" on="1"/>
        <pt x="317" y="776" on="0"/>
        <pt x="359" y="734" on="0"/>
        <pt x="389" y="734" on="1"/>
        <pt x="419" y="734" on="0"/>
        <pt x="462" y="776" on="0"/>
        <pt x="462" y="806" on="1"/>
        <pt x="462" y="836" on="0"/>
        <pt x="419" y="879" on="0"/>
        <pt x="389" y="879" on="1"/>
        <pt x="359" y="879" on="0"/>
        <pt x="317" y="836" on="0"/>
      </contour>
    </TTGlyph>
    <TTGlyph name="Aacute" xMin="68" yMin="-30" xMax="1480" yMax="1995">
      <contour>
        <pt x="552" y="1393" on="1"/>
        <pt x="322" y="1393" on="0"/>
        <pt x="322" y="1259" on="1"/>
        <pt x="322" y="1191" on="0"/>
        <pt x="392" y="1118" on="1"/>
        <pt x="422" y="1087" on="0"/>
        <pt x="490" y="1024" on="0"/>
        <pt x="520" y="986" on="1"/>
        <pt x="590" y="896" on="0"/>
        <pt x="589" y="792" on="1"/>
        <pt x="589" y="697" on="0"/>
        <pt x="458" y="566" on="0"/>
        <pt x="363" y="566" on="1"/>
        <pt x="270" y="566" on="0"/>
        <pt x="206" y="632" on="1"/>
        <pt x="141" y="698" on="0"/>
        <pt x="141" y="792" on="1"/>
        <pt x="141" y="902" on="0"/>
        <pt x="230" y="970" on="1"/>
        <pt x="257" y="990" on="0"/>
        <pt x="290" y="1002" on="1"/>
        <pt x="222" y="1052" on="0"/>
        <pt x="197" y="1089" on="1"/>
        <pt x="147" y="1163" on="0"/>
        <pt x="147" y="1326" on="0"/>
        <pt x="170" y="1382" on="1"/>
        <pt x="194" y="1439" on="0"/>
        <pt x="242" y="1480" on="1"/>
        <pt x="345" y="1567" on="0"/>
        <pt x="552" y="1567" on="1"/>
        <pt x="886" y="1566" on="0"/>
        <pt x="1002" y="1340" on="1"/>
        <pt x="1042" y="1260" on="0"/>
        <pt x="1043" y="1076" on="0"/>
        <pt x="1013" y="945" on="0"/>
        <pt x="963" y="824" on="0"/>
        <pt x="931" y="768" on="1"/>
        <pt x="866" y="659" on="1"/>
        <pt x="928" y="596" on="1"/>
        <pt x="1073" y="697" on="1"/>
        <pt x="1073" y="1167" on="1"/>
        <pt x="1074" y="1341" on="0"/>
        <pt x="1194" y="1456" on="1"/>
        <pt x="1310" y="1567" on="0"/>
        <pt x="1480" y="1567" on="1"/>
        <pt x="1480" y="1394" on="1"/>
        <pt x="1354" y="1394" on="0"/>
        <pt x="1294" y="1306" on="1"/>
        <pt x="1242" y="1230" on="0"/>
        <pt x="1243" y="1101" on="1"/>
        <pt x="1243" y="398" on="1"/>
        <pt x="1242" y="279" on="0"/>
        <pt x="1374" y="176" on="1"/>
        <pt x="1414" y="145" on="0"/>
        <pt x="1460" y="114" on="1"/>
        <pt x="1360" y="-30" on="1"/>
        <pt x="1220" y="65" on="0"/>
        <pt x="1170" y="130" on="1"/>
        <pt x="1073" y="255" on="0"/>
        <pt x="1073" y="393" on="1"/>
        <pt x="1073" y="496" on="1"/>
        <pt x="915" y="380" on="1"/>
        <pt x="763" y="519" on="1"/>
        <pt x="568" y="274" on="0"/>
        <pt x="334" y="76" on="1"/>
        <pt x="260" y="14" on="0"/>
        <pt x="196" y="-30" on="1"/>
        <pt x="68" y="89" on="1"/>
        <pt x="384" y="316" on="0"/>
        <pt x="610" y="588" on="1"/>
        <pt x="874" y="906" on="0"/>
        <pt x="874" y="1143" on="1"/>
        <pt x="874" y="1316" on="0"/>
        <pt x="692" y="1374" on="1"/>
        <pt x="632" y="1394" on="0"/>
      </contour>
      <contour>
        <pt x="1072" y="1599" on="1"/>
        <pt x="982" y="1741" on="1"/>
        <pt x="1331" y="1995" on="1"/>
        <pt x="1447" y="1837" on="1"/>
      </contour>
      <contour>
        <pt x="342" y="844" on="0"/>
        <pt x="311" y="812" on="0"/>
        <pt x="311" y="767" on="0"/>
        <pt x="342" y="736" on="0"/>
        <pt x="387" y="736" on="0"/>
        <pt x="419" y="767" on="0"/>
        <pt x="419" y="812" on="0"/>
        <pt x="387" y="844" on="0"/>
      </contour>
    </TTGlyph>
    <TTGlyph name="Acircumflex" xMin="68" yMin="-30" xMax="1480" yMax="1997">
      <contour>
        <pt x="552" y="1393" on="1"/>
        <pt x="322" y="1393" on="0"/>
        <pt x="322" y="1259" on="1"/>
        <pt x="322" y="1191" on="0"/>
        <pt x="392" y="1118" on="1"/>
        <pt x="422" y="1087" on="0"/>
        <pt x="490" y="1024" on="0"/>
        <pt x="520" y="986" on="1"/>
        <pt x="590" y="896" on="0"/>
        <pt x="589" y="792" on="1"/>
        <pt x="589" y="697" on="0"/>
        <pt x="458" y="566" on="0"/>
        <pt x="363" y="566" on="1"/>
        <pt x="270" y="566" on="0"/>
        <pt x="206" y="632" on="1"/>
        <pt x="141" y="698" on="0"/>
        <pt x="141" y="792" on="1"/>
        <pt x="141" y="902" on="0"/>
        <pt x="230" y="970" on="1"/>
        <pt x="257" y="990" on="0"/>
        <pt x="290" y="1002" on="1"/>
        <pt x="222" y="1052" on="0"/>
        <pt x="197" y="1089" on="1"/>
        <pt x="147" y="1163" on="0"/>
        <pt x="147" y="1326" on="0"/>
        <pt x="170" y="1382" on="1"/>
        <pt x="194" y="1439" on="0"/>
        <pt x="242" y="1480" on="1"/>
        <pt x="345" y="1567" on="0"/>
        <pt x="552" y="1567" on="1"/>
        <pt x="886" y="1566" on="0"/>
        <pt x="1002" y="1340" on="1"/>
        <pt x="1042" y="1260" on="0"/>
        <pt x="1043" y="1076" on="0"/>
        <pt x="1013" y="945" on="0"/>
        <pt x="963" y="824" on="0"/>
        <pt x="931" y="768" on="1"/>
        <pt x="866" y="659" on="1"/>
        <pt x="928" y="596" on="1"/>
        <pt x="1073" y="697" on="1"/>
        <pt x="1073" y="1167" on="1"/>
        <pt x="1074" y="1341" on="0"/>
        <pt x="1194" y="1456" on="1"/>
        <pt x="1310" y="1567" on="0"/>
        <pt x="1480" y="1567" on="1"/>
        <pt x="1480" y="1394" on="1"/>
        <pt x="1354" y="1394" on="0"/>
        <pt x="1294" y="1306" on="1"/>
        <pt x="1242" y="1230" on="0"/>
        <pt x="1243" y="1101" on="1"/>
        <pt x="1243" y="398" on="1"/>
        <pt x="1242" y="279" on="0"/>
        <pt x="1374" y="176" on="1"/>
        <pt x="1414" y="145" on="0"/>
        <pt x="1460" y="114" on="1"/>
        <pt x="1360" y="-30" on="1"/>
        <pt x="1220" y="65" on="0"/>
        <pt x="1170" y="130" on="1"/>
        <pt x="1073" y="255" on="0"/>
        <pt x="1073" y="393" on="1"/>
        <pt x="1073" y="496" on="1"/>
        <pt x="915" y="380" on="1"/>
        <pt x="763" y="519" on="1"/>
        <pt x="568" y="274" on="0"/>
        <pt x="334" y="76" on="1"/>
        <pt x="260" y="14" on="0"/>
        <pt x="196" y="-30" on="1"/>
        <pt x="68" y="89" on="1"/>
        <pt x="384" y="316" on="0"/>
        <pt x="610" y="588" on="1"/>
        <pt x="874" y="906" on="0"/>
        <pt x="874" y="1143" on="1"/>
        <pt x="874" y="1316" on="0"/>
        <pt x="692" y="1374" on="1"/>
        <pt x="632" y="1394" on="0"/>
      </contour>
      <contour>
        <pt x="705" y="1745" on="1"/>
        <pt x="1066" y="1997" on="1"/>
        <pt x="1414" y="1745" on="1"/>
        <pt x="1311" y="1609" on="1"/>
        <pt x="1066" y="1790" on="1"/>
        <pt x="1038" y="1766" on="0"/>
        <pt x="994" y="1736" on="1"/>
        <pt x="808" y="1609" on="1"/>
      </contour>
      <contour>
        <pt x="342" y="844" on="0"/>
        <pt x="311" y="812" on="0"/>
        <pt x="311" y="767" on="0"/>
        <pt x="342" y="736" on="0"/>
        <pt x="387" y="736" on="0"/>
        <pt x="419" y="767" on="0"/>
        <pt x="419" y="812" on="0"/>
        <pt x="387" y="844" on="0"/>
      </contour>
    </TTGlyph>
    <TTGlyph name="Adieresis" xMin="68" yMin="-30" xMax="1480" yMax="1992">
      <contour>
        <pt x="552" y="1393" on="1"/>
        <pt x="322" y="1393" on="0"/>
        <pt x="322" y="1259" on="1"/>
        <pt x="322" y="1191" on="0"/>
        <pt x="392" y="1118" on="1"/>
        <pt x="422" y="1087" on="0"/>
        <pt x="490" y="1024" on="0"/>
        <pt x="520" y="986" on="1"/>
        <pt x="590" y="896" on="0"/>
        <pt x="589" y="792" on="1"/>
        <pt x="589" y="697" on="0"/>
        <pt x="458" y="566" on="0"/>
        <pt x="363" y="566" on="1"/>
        <pt x="270" y="566" on="0"/>
        <pt x="206" y="632" on="1"/>
        <pt x="141" y="698" on="0"/>
        <pt x="141" y="792" on="1"/>
        <pt x="141" y="902" on="0"/>
        <pt x="230" y="970" on="1"/>
        <pt x="257" y="990" on="0"/>
        <pt x="290" y="1002" on="1"/>
        <pt x="222" y="1052" on="0"/>
        <pt x="197" y="1089" on="1"/>
        <pt x="147" y="1163" on="0"/>
        <pt x="147" y="1326" on="0"/>
        <pt x="170" y="1382" on="1"/>
        <pt x="194" y="1439" on="0"/>
        <pt x="242" y="1480" on="1"/>
        <pt x="345" y="1567" on="0"/>
        <pt x="552" y="1567" on="1"/>
        <pt x="886" y="1566" on="0"/>
        <pt x="1002" y="1340" on="1"/>
        <pt x="1042" y="1260" on="0"/>
        <pt x="1043" y="1076" on="0"/>
        <pt x="1013" y="945" on="0"/>
        <pt x="963" y="824" on="0"/>
        <pt x="931" y="768" on="1"/>
        <pt x="866" y="659" on="1"/>
        <pt x="928" y="596" on="1"/>
        <pt x="1073" y="697" on="1"/>
        <pt x="1073" y="1167" on="1"/>
        <pt x="1074" y="1341" on="0"/>
        <pt x="1194" y="1456" on="1"/>
        <pt x="1310" y="1567" on="0"/>
        <pt x="1480" y="1567" on="1"/>
        <pt x="1480" y="1394" on="1"/>
        <pt x="1354" y="1394" on="0"/>
        <pt x="1294" y="1306" on="1"/>
        <pt x="1242" y="1230" on="0"/>
        <pt x="1243" y="1101" on="1"/>
        <pt x="1243" y="398" on="1"/>
        <pt x="1242" y="279" on="0"/>
        <pt x="1374" y="176" on="1"/>
        <pt x="1414" y="145" on="0"/>
        <pt x="1460" y="114" on="1"/>
        <pt x="1360" y="-30" on="1"/>
        <pt x="1220" y="65" on="0"/>
        <pt x="1170" y="130" on="1"/>
        <pt x="1073" y="255" on="0"/>
        <pt x="1073" y="393" on="1"/>
        <pt x="1073" y="496" on="1"/>
        <pt x="915" y="380" on="1"/>
        <pt x="763" y="519" on="1"/>
        <pt x="568" y="274" on="0"/>
        <pt x="334" y="76" on="1"/>
        <pt x="260" y="14" on="0"/>
        <pt x="196" y="-30" on="1"/>
        <pt x="68" y="89" on="1"/>
        <pt x="384" y="316" on="0"/>
        <pt x="610" y="588" on="1"/>
        <pt x="874" y="906" on="0"/>
        <pt x="874" y="1143" on="1"/>
        <pt x="874" y="1316" on="0"/>
        <pt x="692" y="1374" on="1"/>
        <pt x="632" y="1394" on="0"/>
      </contour>
      <contour>
        <pt x="964" y="1657" on="1"/>
        <pt x="806" y="1710" on="1"/>
        <pt x="925" y="1992" on="1"/>
        <pt x="1102" y="1921" on="1"/>
      </contour>
      <contour>
        <pt x="1269" y="1657" on="1"/>
        <pt x="1111" y="1710" on="1"/>
        <pt x="1229" y="1992" on="1"/>
        <pt x="1406" y="1921" on="1"/>
      </contour>
      <contour>
        <pt x="342" y="844" on="0"/>
        <pt x="311" y="812" on="0"/>
        <pt x="311" y="767" on="0"/>
        <pt x="342" y="736" on="0"/>
        <pt x="387" y="736" on="0"/>
        <pt x="419" y="767" on="0"/>
        <pt x="419" y="812" on="0"/>
        <pt x="387" y="844" on="0"/>
      </contour>
    </TTGlyph>
    <TTGlyph name="Agrave" xMin="68" yMin="-30" xMax="1480" yMax="1995">
      <contour>
        <pt x="552" y="1393" on="1"/>
        <pt x="322" y="1393" on="0"/>
        <pt x="322" y="1259" on="1"/>
        <pt x="322" y="1191" on="0"/>
        <pt x="392" y="1118" on="1"/>
        <pt x="422" y="1087" on="0"/>
        <pt x="490" y="1024" on="0"/>
        <pt x="520" y="986" on="1"/>
        <pt x="590" y="896" on="0"/>
        <pt x="589" y="792" on="1"/>
        <pt x="589" y="697" on="0"/>
        <pt x="458" y="566" on="0"/>
        <pt x="363" y="566" on="1"/>
        <pt x="270" y="566" on="0"/>
        <pt x="206" y="632" on="1"/>
        <pt x="141" y="698" on="0"/>
        <pt x="141" y="792" on="1"/>
        <pt x="141" y="902" on="0"/>
        <pt x="230" y="970" on="1"/>
        <pt x="257" y="990" on="0"/>
        <pt x="290" y="1002" on="1"/>
        <pt x="222" y="1052" on="0"/>
        <pt x="197" y="1089" on="1"/>
        <pt x="147" y="1163" on="0"/>
        <pt x="147" y="1326" on="0"/>
        <pt x="170" y="1382" on="1"/>
        <pt x="194" y="1439" on="0"/>
        <pt x="242" y="1480" on="1"/>
        <pt x="345" y="1567" on="0"/>
        <pt x="552" y="1567" on="1"/>
        <pt x="886" y="1566" on="0"/>
        <pt x="1002" y="1340" on="1"/>
        <pt x="1042" y="1260" on="0"/>
        <pt x="1043" y="1076" on="0"/>
        <pt x="1013" y="945" on="0"/>
        <pt x="963" y="824" on="0"/>
        <pt x="931" y="768" on="1"/>
        <pt x="866" y="659" on="1"/>
        <pt x="928" y="596" on="1"/>
        <pt x="1073" y="697" on="1"/>
        <pt x="1073" y="1167" on="1"/>
        <pt x="1074" y="1341" on="0"/>
        <pt x="1194" y="1456" on="1"/>
        <pt x="1310" y="1567" on="0"/>
        <pt x="1480" y="1567" on="1"/>
        <pt x="1480" y="1394" on="1"/>
        <pt x="1354" y="1394" on="0"/>
        <pt x="1294" y="1306" on="1"/>
        <pt x="1242" y="1230" on="0"/>
        <pt x="1243" y="1101" on="1"/>
        <pt x="1243" y="398" on="1"/>
        <pt x="1242" y="279" on="0"/>
        <pt x="1374" y="176" on="1"/>
        <pt x="1414" y="145" on="0"/>
        <pt x="1460" y="114" on="1"/>
        <pt x="1360" y="-30" on="1"/>
        <pt x="1220" y="65" on="0"/>
        <pt x="1170" y="130" on="1"/>
        <pt x="1073" y="255" on="0"/>
        <pt x="1073" y="393" on="1"/>
        <pt x="1073" y="496" on="1"/>
        <pt x="915" y="380" on="1"/>
        <pt x="763" y="519" on="1"/>
        <pt x="568" y="274" on="0"/>
        <pt x="334" y="76" on="1"/>
        <pt x="260" y="14" on="0"/>
        <pt x="196" y="-30" on="1"/>
        <pt x="68" y="89" on="1"/>
        <pt x="384" y="316" on="0"/>
        <pt x="610" y="588" on="1"/>
        <pt x="874" y="906" on="0"/>
        <pt x="874" y="1143" on="1"/>
        <pt x="874" y="1316" on="0"/>
        <pt x="692" y="1374" on="1"/>
        <pt x="632" y="1394" on="0"/>
      </contour>
      <contour>
        <pt x="667" y="1837" on="1"/>
        <pt x="783" y="1995" on="1"/>
        <pt x="1131" y="1741" on="1"/>
        <pt x="1040" y="1598" on="1"/>
      </contour>
      <contour>
        <pt x="342" y="844" on="0"/>
        <pt x="311" y="812" on="0"/>
        <pt x="311" y="767" on="0"/>
        <pt x="342" y="736" on="0"/>
        <pt x="387" y="736" on="0"/>
        <pt x="419" y="767" on="0"/>
        <pt x="419" y="812" on="0"/>
        <pt x="387" y="844" on="0"/>
      </contour>
    </TTGlyph>
    <TTGlyph name="Aring" xMin="68" yMin="-30" xMax="1480" yMax="2013">
      <contour>
        <pt x="552" y="1393" on="1"/>
        <pt x="322" y="1393" on="0"/>
        <pt x="322" y="1259" on="1"/>
        <pt x="322" y="1191" on="0"/>
        <pt x="392" y="1118" on="1"/>
        <pt x="422" y="1087" on="0"/>
        <pt x="490" y="1024" on="0"/>
        <pt x="520" y="986" on="1"/>
        <pt x="590" y="896" on="0"/>
        <pt x="589" y="792" on="1"/>
        <pt x="589" y="697" on="0"/>
        <pt x="458" y="566" on="0"/>
        <pt x="363" y="566" on="1"/>
        <pt x="270" y="566" on="0"/>
        <pt x="206" y="632" on="1"/>
        <pt x="141" y="698" on="0"/>
        <pt x="141" y="792" on="1"/>
        <pt x="141" y="902" on="0"/>
        <pt x="230" y="970" on="1"/>
        <pt x="257" y="990" on="0"/>
        <pt x="290" y="1002" on="1"/>
        <pt x="222" y="1052" on="0"/>
        <pt x="197" y="1089" on="1"/>
        <pt x="147" y="1163" on="0"/>
        <pt x="147" y="1326" on="0"/>
        <pt x="170" y="1382" on="1"/>
        <pt x="194" y="1439" on="0"/>
        <pt x="242" y="1480" on="1"/>
        <pt x="345" y="1567" on="0"/>
        <pt x="552" y="1567" on="1"/>
        <pt x="886" y="1566" on="0"/>
        <pt x="1002" y="1340" on="1"/>
        <pt x="1042" y="1260" on="0"/>
        <pt x="1043" y="1076" on="0"/>
        <pt x="1013" y="945" on="0"/>
        <pt x="963" y="824" on="0"/>
        <pt x="931" y="768" on="1"/>
        <pt x="866" y="659" on="1"/>
        <pt x="928" y="596" on="1"/>
        <pt x="1073" y="697" on="1"/>
        <pt x="1073" y="1167" on="1"/>
        <pt x="1074" y="1341" on="0"/>
        <pt x="1194" y="1456" on="1"/>
        <pt x="1310" y="1567" on="0"/>
        <pt x="1480" y="1567" on="1"/>
        <pt x="1480" y="1394" on="1"/>
        <pt x="1354" y="1394" on="0"/>
        <pt x="1294" y="1306" on="1"/>
        <pt x="1242" y="1230" on="0"/>
        <pt x="1243" y="1101" on="1"/>
        <pt x="1243" y="398" on="1"/>
        <pt x="1242" y="279" on="0"/>
        <pt x="1374" y="176" on="1"/>
        <pt x="1414" y="145" on="0"/>
        <pt x="1460" y="114" on="1"/>
        <pt x="1360" y="-30" on="1"/>
        <pt x="1220" y="65" on="0"/>
        <pt x="1170" y="130" on="1"/>
        <pt x="1073" y="255" on="0"/>
        <pt x="1073" y="393" on="1"/>
        <pt x="1073" y="496" on="1"/>
        <pt x="915" y="380" on="1"/>
        <pt x="763" y="519" on="1"/>
        <pt x="568" y="274" on="0"/>
        <pt x="334" y="76" on="1"/>
        <pt x="260" y="14" on="0"/>
        <pt x="196" y="-30" on="1"/>
        <pt x="68" y="89" on="1"/>
        <pt x="384" y="316" on="0"/>
        <pt x="610" y="588" on="1"/>
        <pt x="874" y="906" on="0"/>
        <pt x="874" y="1143" on="1"/>
        <pt x="874" y="1316" on="0"/>
        <pt x="692" y="1374" on="1"/>
        <pt x="632" y="1394" on="0"/>
      </contour>
      <contour>
        <pt x="843" y="1798" on="1"/>
        <pt x="843" y="1886" on="0"/>
        <pt x="905" y="1950" on="1"/>
        <pt x="966" y="2012" on="0"/>
        <pt x="1057" y="2013" on="1"/>
        <pt x="1149" y="2012" on="0"/>
        <pt x="1210" y="1950" on="1"/>
        <pt x="1273" y="1886" on="0"/>
        <pt x="1273" y="1798" on="1"/>
        <pt x="1273" y="1710" on="0"/>
        <pt x="1210" y="1646" on="1"/>
        <pt x="1149" y="1584" on="0"/>
        <pt x="1057" y="1583" on="1"/>
        <pt x="966" y="1584" on="0"/>
        <pt x="905" y="1646" on="1"/>
        <pt x="843" y="1710" on="0"/>
      </contour>
      <contour>
        <pt x="1031" y="1867" on="0"/>
        <pt x="991" y="1826" on="0"/>
        <pt x="991" y="1769" on="0"/>
        <pt x="1031" y="1730" on="0"/>
        <pt x="1088" y="1730" on="0"/>
        <pt x="1129" y="1769" on="0"/>
        <pt x="1129" y="1826" on="0"/>
        <pt x="1088" y="1867" on="0"/>
      </contour>
      <contour>
        <pt x="342" y="844" on="0"/>
        <pt x="311" y="812" on="0"/>
        <pt x="311" y="767" on="0"/>
        <pt x="342" y="736" on="0"/>
        <pt x="387" y="736" on="0"/>
        <pt x="419" y="767" on="0"/>
        <pt x="419" y="812" on="0"/>
        <pt x="387" y="844" on="0"/>
      </contour>
    </TTGlyph>
    <TTGlyph name="Atilde" xMin="68" yMin="-30" xMax="1480" yMax="1955">
      <contour>
        <pt x="552" y="1393" on="1"/>
        <pt x="322" y="1393" on="0"/>
        <pt x="322" y="1259" on="1"/>
        <pt x="322" y="1191" on="0"/>
        <pt x="392" y="1118" on="1"/>
        <pt x="422" y="1087" on="0"/>
        <pt x="490" y="1024" on="0"/>
        <pt x="520" y="986" on="1"/>
        <pt x="590" y="896" on="0"/>
        <pt x="589" y="792" on="1"/>
        <pt x="589" y="697" on="0"/>
        <pt x="458" y="566" on="0"/>
        <pt x="363" y="566" on="1"/>
        <pt x="270" y="566" on="0"/>
        <pt x="206" y="632" on="1"/>
        <pt x="141" y="698" on="0"/>
        <pt x="141" y="792" on="1"/>
        <pt x="141" y="902" on="0"/>
        <pt x="230" y="970" on="1"/>
        <pt x="257" y="990" on="0"/>
        <pt x="290" y="1002" on="1"/>
        <pt x="222" y="1052" on="0"/>
        <pt x="197" y="1089" on="1"/>
        <pt x="147" y="1163" on="0"/>
        <pt x="147" y="1326" on="0"/>
        <pt x="170" y="1382" on="1"/>
        <pt x="194" y="1439" on="0"/>
        <pt x="242" y="1480" on="1"/>
        <pt x="345" y="1567" on="0"/>
        <pt x="552" y="1567" on="1"/>
        <pt x="886" y="1566" on="0"/>
        <pt x="1002" y="1340" on="1"/>
        <pt x="1042" y="1260" on="0"/>
        <pt x="1043" y="1076" on="0"/>
        <pt x="1013" y="945" on="0"/>
        <pt x="963" y="824" on="0"/>
        <pt x="931" y="768" on="1"/>
        <pt x="866" y="659" on="1"/>
        <pt x="928" y="596" on="1"/>
        <pt x="1073" y="697" on="1"/>
        <pt x="1073" y="1167" on="1"/>
        <pt x="1074" y="1341" on="0"/>
        <pt x="1194" y="1456" on="1"/>
        <pt x="1310" y="1567" on="0"/>
        <pt x="1480" y="1567" on="1"/>
        <pt x="1480" y="1394" on="1"/>
        <pt x="1354" y="1394" on="0"/>
        <pt x="1294" y="1306" on="1"/>
        <pt x="1242" y="1230" on="0"/>
        <pt x="1243" y="1101" on="1"/>
        <pt x="1243" y="398" on="1"/>
        <pt x="1242" y="279" on="0"/>
        <pt x="1374" y="176" on="1"/>
        <pt x="1414" y="145" on="0"/>
        <pt x="1460" y="114" on="1"/>
        <pt x="1360" y="-30" on="1"/>
        <pt x="1220" y="65" on="0"/>
        <pt x="1170" y="130" on="1"/>
        <pt x="1073" y="255" on="0"/>
        <pt x="1073" y="393" on="1"/>
        <pt x="1073" y="496" on="1"/>
        <pt x="915" y="380" on="1"/>
        <pt x="763" y="519" on="1"/>
        <pt x="568" y="274" on="0"/>
        <pt x="334" y="76" on="1"/>
        <pt x="260" y="14" on="0"/>
        <pt x="196" y="-30" on="1"/>
        <pt x="68" y="89" on="1"/>
        <pt x="384" y="316" on="0"/>
        <pt x="610" y="588" on="1"/>
        <pt x="874" y="906" on="0"/>
        <pt x="874" y="1143" on="1"/>
        <pt x="874" y="1316" on="0"/>
        <pt x="692" y="1374" on="1"/>
        <pt x="632" y="1394" on="0"/>
      </contour>
      <contour>
        <pt x="948" y="1765" on="1"/>
        <pt x="862" y="1765" on="0"/>
        <pt x="789" y="1624" on="1"/>
        <pt x="640" y="1708" on="1"/>
        <pt x="726" y="1868" on="0"/>
        <pt x="844" y="1919" on="1"/>
        <pt x="884" y="1936" on="0"/>
        <pt x="964" y="1936" on="0"/>
        <pt x="1030" y="1896" on="0"/>
        <pt x="1058" y="1872" on="1"/>
        <pt x="1110" y="1828" on="1"/>
        <pt x="1135" y="1808" on="0"/>
        <pt x="1181" y="1808" on="0"/>
        <pt x="1201" y="1820" on="1"/>
        <pt x="1221" y="1834" on="0"/>
        <pt x="1240" y="1854" on="1"/>
        <pt x="1277" y="1894" on="0"/>
        <pt x="1310" y="1955" on="1"/>
        <pt x="1459" y="1872" on="1"/>
        <pt x="1374" y="1720" on="0"/>
        <pt x="1256" y="1657" on="1"/>
        <pt x="1218" y="1637" on="0"/>
        <pt x="1141" y="1637" on="0"/>
        <pt x="1073" y="1677" on="0"/>
        <pt x="1045" y="1701" on="1"/>
        <pt x="994" y="1745" on="1"/>
        <pt x="971" y="1765" on="0"/>
      </contour>
      <contour>
        <pt x="342" y="844" on="0"/>
        <pt x="311" y="812" on="0"/>
        <pt x="311" y="767" on="0"/>
        <pt x="342" y="736" on="0"/>
        <pt x="387" y="736" on="0"/>
        <pt x="419" y="767" on="0"/>
        <pt x="419" y="812" on="0"/>
        <pt x="387" y="844" on="0"/>
      </contour>
    </TTGlyph>
    <TTGlyph name="B" xMin="80" yMin="0" xMax="1662" yMax="1567">
      <contour>
        <pt x="513" y="296" on="1"/>
        <pt x="527" y="263" on="0"/>
        <pt x="527" y="176" on="0"/>
        <pt x="492" y="95" on="0"/>
        <pt x="462" y="65" on="1"/>
        <pt x="396" y="0" on="0"/>
        <pt x="210" y="0" on="0"/>
        <pt x="80" y="130" on="0"/>
        <pt x="80" y="295" on="0"/>
        <pt x="142" y="390" on="0"/>
        <pt x="196" y="418" on="1"/>
        <pt x="293" y="468" on="0"/>
        <pt x="480" y="467" on="1"/>
        <pt x="618" y="558" on="0"/>
        <pt x="698" y="712" on="1"/>
        <pt x="776" y="862" on="0"/>
        <pt x="776" y="1030" on="1"/>
        <pt x="776" y="1166" on="0"/>
        <pt x="700" y="1276" on="1"/>
        <pt x="620" y="1392" on="0"/>
        <pt x="513" y="1393" on="1"/>
        <pt x="430" y="1393" on="0"/>
        <pt x="347" y="1318" on="0"/>
        <pt x="347" y="1216" on="0"/>
        <pt x="387" y="1149" on="0"/>
        <pt x="446" y="1087" on="0"/>
        <pt x="480" y="1056" on="1"/>
        <pt x="514" y="1024" on="0"/>
        <pt x="544" y="986" on="1"/>
        <pt x="614" y="896" on="0"/>
        <pt x="614" y="792" on="1"/>
        <pt x="614" y="697" on="0"/>
        <pt x="483" y="566" on="0"/>
        <pt x="388" y="566" on="1"/>
        <pt x="295" y="566" on="0"/>
        <pt x="231" y="632" on="1"/>
        <pt x="166" y="698" on="0"/>
        <pt x="166" y="792" on="1"/>
        <pt x="166" y="902" on="0"/>
        <pt x="255" y="970" on="1"/>
        <pt x="282" y="990" on="0"/>
        <pt x="315" y="1002" on="1"/>
        <pt x="247" y="1052" on="0"/>
        <pt x="222" y="1089" on="1"/>
        <pt x="172" y="1163" on="0"/>
        <pt x="172" y="1326" on="0"/>
        <pt x="216" y="1439" on="0"/>
        <pt x="258" y="1480" on="1"/>
        <pt x="348" y="1567" on="0"/>
        <pt x="513" y="1567" on="1"/>
        <pt x="610" y="1567" on="0"/>
        <pt x="773" y="1467" on="0"/>
        <pt x="832" y="1386" on="1"/>
        <pt x="909" y="1567" on="0"/>
        <pt x="1089" y="1567" on="1"/>
        <pt x="1219" y="1568" on="0"/>
        <pt x="1294" y="1426" on="1"/>
        <pt x="1316" y="1386" on="0"/>
        <pt x="1330" y="1355" on="1"/>
        <pt x="1354" y="1302" on="1"/>
        <pt x="1391" y="1226" on="0"/>
        <pt x="1419" y="1226" on="1"/>
        <pt x="1444" y="1226" on="0"/>
        <pt x="1457" y="1254" on="1"/>
        <pt x="1476" y="1295" on="0"/>
        <pt x="1492" y="1356" on="1"/>
        <pt x="1662" y="1314" on="1"/>
        <pt x="1620" y="1119" on="0"/>
        <pt x="1496" y="1063" on="1"/>
        <pt x="1335" y="990" on="1"/>
        <pt x="1573" y="781" on="0"/>
        <pt x="1573" y="514" on="1"/>
        <pt x="1573" y="305" on="0"/>
        <pt x="1439" y="159" on="1"/>
        <pt x="1293" y="0" on="0"/>
        <pt x="1047" y="0" on="1"/>
        <pt x="851" y="0" on="0"/>
        <pt x="726" y="129" on="1"/>
        <pt x="660" y="196" on="1"/>
        <pt x="581" y="276" on="0"/>
      </contour>
      <contour>
        <pt x="1156" y="907" on="1"/>
        <pt x="910" y="794" on="1"/>
        <pt x="858" y="640" on="0"/>
        <pt x="713" y="492" on="1"/>
        <pt x="669" y="447" on="0"/>
        <pt x="623" y="411" on="1"/>
        <pt x="664" y="396" on="0"/>
        <pt x="722" y="351" on="1"/>
        <pt x="816" y="278" on="1"/>
        <pt x="950" y="174" on="0"/>
        <pt x="1137" y="174" on="0"/>
        <pt x="1266" y="232" on="0"/>
        <pt x="1310" y="280" on="1"/>
        <pt x="1399" y="376" on="0"/>
        <pt x="1399" y="514" on="1"/>
        <pt x="1399" y="642" on="0"/>
        <pt x="1312" y="758" on="1"/>
        <pt x="1251" y="840" on="0"/>
      </contour>
      <contour>
        <pt x="1072" y="1393" on="1"/>
        <pt x="1050" y="1393" on="0"/>
        <pt x="1008" y="1358" on="0"/>
        <pt x="980" y="1299" on="0"/>
        <pt x="972" y="1260" on="1"/>
        <pt x="963" y="1222" on="0"/>
        <pt x="958" y="1178" on="1"/>
        <pt x="950" y="1108" on="0"/>
        <pt x="950" y="1005" on="1"/>
        <pt x="1246" y="1142" on="1"/>
        <pt x="1223" y="1171" on="0"/>
        <pt x="1208" y="1204" on="1"/>
        <pt x="1154" y="1316" on="1"/>
        <pt x="1118" y="1393" on="0"/>
      </contour>
      <contour>
        <pt x="279" y="280" on="0"/>
        <pt x="248" y="248" on="0"/>
        <pt x="248" y="203" on="0"/>
        <pt x="279" y="172" on="0"/>
        <pt x="324" y="172" on="0"/>
        <pt x="356" y="203" on="0"/>
        <pt x="356" y="248" on="0"/>
        <pt x="324" y="280" on="0"/>
      </contour>
      <contour>
        <pt x="367" y="844" on="0"/>
        <pt x="336" y="812" on="0"/>
        <pt x="336" y="767" on="0"/>
        <pt x="367" y="736" on="0"/>
        <pt x="412" y="736" on="0"/>
        <pt x="444" y="767" on="0"/>
        <pt x="444" y="812" on="0"/>
        <pt x="412" y="844" on="0"/>
      </contour>
    </TTGlyph>
    <TTGlyph name="C" xMin="91" yMin="0" xMax="1502" yMax="1567">
      <contour>
        <pt x="1204" y="1138" on="1"/>
        <pt x="1112" y="1138" on="0"/>
        <pt x="1055" y="1213" on="1"/>
        <pt x="1042" y="1114" on="0"/>
        <pt x="934" y="1026" on="1"/>
        <pt x="888" y="988" on="0"/>
        <pt x="836" y="954" on="1"/>
        <pt x="786" y="921" on="0"/>
        <pt x="742" y="885" on="1"/>
        <pt x="642" y="802" on="0"/>
        <pt x="641" y="711" on="1"/>
        <pt x="641" y="610" on="0"/>
        <pt x="765" y="571" on="1"/>
        <pt x="810" y="557" on="0"/>
        <pt x="876" y="557" on="1"/>
        <pt x="876" y="383" on="1"/>
        <pt x="664" y="383" on="0"/>
        <pt x="556" y="489" on="1"/>
        <pt x="466" y="577" on="0"/>
        <pt x="466" y="711" on="1"/>
        <pt x="466" y="875" on="0"/>
        <pt x="600" y="994" on="1"/>
        <pt x="638" y="1028" on="0"/>
        <pt x="678" y="1058" on="1"/>
        <pt x="756" y="1114" on="1"/>
        <pt x="890" y="1207" on="0"/>
        <pt x="891" y="1291" on="1"/>
        <pt x="891" y="1383" on="1"/>
        <pt x="865" y="1388" on="0"/>
        <pt x="834" y="1390" on="1"/>
        <pt x="781" y="1392" on="1"/>
        <pt x="580" y="1386" on="0"/>
        <pt x="430" y="1218" on="1"/>
        <pt x="329" y="1106" on="0"/>
        <pt x="287" y="938" on="1"/>
        <pt x="266" y="854" on="0"/>
        <pt x="266" y="623" on="0"/>
        <pt x="302" y="515" on="1"/>
        <pt x="337" y="408" on="0"/>
        <pt x="405" y="332" on="1"/>
        <pt x="546" y="176" on="0"/>
        <pt x="803" y="175" on="1"/>
        <pt x="1066" y="174" on="0"/>
        <pt x="1244" y="392" on="1"/>
        <pt x="1309" y="471" on="0"/>
        <pt x="1339" y="548" on="1"/>
        <pt x="1501" y="484" on="1"/>
        <pt x="1434" y="316" on="0"/>
        <pt x="1278" y="178" on="1"/>
        <pt x="1076" y="0" on="0"/>
        <pt x="803" y="0" on="1"/>
        <pt x="444" y="0" on="0"/>
        <pt x="257" y="224" on="1"/>
        <pt x="91" y="424" on="0"/>
        <pt x="91" y="758" on="1"/>
        <pt x="91" y="1123" on="0"/>
        <pt x="303" y="1351" on="1"/>
        <pt x="504" y="1567" on="0"/>
        <pt x="781" y="1567" on="1"/>
        <pt x="898" y="1567" on="0"/>
        <pt x="1004" y="1526" on="1"/>
        <pt x="1042" y="1511" on="0"/>
        <pt x="1069" y="1489" on="1"/>
        <pt x="1113" y="1313" on="0"/>
        <pt x="1292" y="1313" on="0"/>
        <pt x="1331" y="1492" on="1"/>
        <pt x="1502" y="1459" on="1"/>
        <pt x="1448" y="1210" on="0"/>
        <pt x="1296" y="1154" on="1"/>
        <pt x="1250" y="1138" on="0"/>
      </contour>
    </TTGlyph>
    <TTGlyph name="Ccedilla" xMin="90" yMin="-462" xMax="1501" yMax="1567">
      <contour>
        <pt x="734" y="-136" on="1"/>
        <pt x="812" y="-185" on="0"/>
        <pt x="812" y="-277" on="1"/>
        <pt x="812" y="-360" on="0"/>
        <pt x="729" y="-412" on="1"/>
        <pt x="650" y="-462" on="0"/>
        <pt x="535" y="-462" on="1"/>
        <pt x="535" y="-291" on="1"/>
        <pt x="611" y="-291" on="0"/>
        <pt x="633" y="-270" on="0"/>
        <pt x="633" y="-257" on="1"/>
        <pt x="633" y="-233" on="0"/>
        <pt x="582" y="-225" on="0"/>
        <pt x="532" y="-225" on="1"/>
        <pt x="499" y="-106" on="1"/>
        <pt x="689" y="6" on="1"/>
        <pt x="386" y="40" on="0"/>
        <pt x="230" y="257" on="1"/>
        <pt x="90" y="453" on="0"/>
        <pt x="90" y="758" on="1"/>
        <pt x="90" y="1123" on="0"/>
        <pt x="302" y="1351" on="1"/>
        <pt x="503" y="1567" on="0"/>
        <pt x="780" y="1567" on="1"/>
        <pt x="896" y="1567" on="0"/>
        <pt x="1002" y="1526" on="1"/>
        <pt x="1040" y="1511" on="0"/>
        <pt x="1068" y="1489" on="1"/>
        <pt x="1112" y="1313" on="0"/>
        <pt x="1291" y="1313" on="0"/>
        <pt x="1330" y="1492" on="1"/>
        <pt x="1501" y="1459" on="1"/>
        <pt x="1448" y="1210" on="0"/>
        <pt x="1296" y="1154" on="1"/>
        <pt x="1250" y="1138" on="0"/>
        <pt x="1203" y="1138" on="1"/>
        <pt x="1111" y="1138" on="0"/>
        <pt x="1054" y="1213" on="1"/>
        <pt x="1041" y="1114" on="0"/>
        <pt x="933" y="1026" on="1"/>
        <pt x="887" y="988" on="0"/>
        <pt x="784" y="921" on="0"/>
        <pt x="740" y="885" on="1"/>
        <pt x="640" y="802" on="0"/>
        <pt x="640" y="711" on="1"/>
        <pt x="640" y="610" on="0"/>
        <pt x="764" y="571" on="1"/>
        <pt x="809" y="557" on="0"/>
        <pt x="875" y="557" on="1"/>
        <pt x="875" y="383" on="1"/>
        <pt x="663" y="383" on="0"/>
        <pt x="555" y="489" on="1"/>
        <pt x="465" y="577" on="0"/>
        <pt x="465" y="711" on="1"/>
        <pt x="466" y="875" on="0"/>
        <pt x="600" y="994" on="1"/>
        <pt x="638" y="1028" on="0"/>
        <pt x="678" y="1058" on="1"/>
        <pt x="756" y="1114" on="1"/>
        <pt x="890" y="1207" on="0"/>
        <pt x="890" y="1291" on="1"/>
        <pt x="890" y="1383" on="1"/>
        <pt x="864" y="1388" on="0"/>
        <pt x="833" y="1390" on="1"/>
        <pt x="780" y="1392" on="1"/>
        <pt x="578" y="1386" on="0"/>
        <pt x="428" y="1218" on="1"/>
        <pt x="327" y="1106" on="0"/>
        <pt x="286" y="938" on="1"/>
        <pt x="265" y="854" on="0"/>
        <pt x="265" y="623" on="0"/>
        <pt x="300" y="515" on="1"/>
        <pt x="336" y="408" on="0"/>
        <pt x="404" y="332" on="1"/>
        <pt x="545" y="176" on="0"/>
        <pt x="802" y="175" on="1"/>
        <pt x="1065" y="174" on="0"/>
        <pt x="1243" y="392" on="1"/>
        <pt x="1308" y="471" on="0"/>
        <pt x="1338" y="548" on="1"/>
        <pt x="1500" y="484" on="1"/>
        <pt x="1438" y="332" on="0"/>
        <pt x="1310" y="208" on="1"/>
        <pt x="1141" y="44" on="0"/>
        <pt x="918" y="9" on="1"/>
      </contour>
    </TTGlyph>
    <TTGlyph name="D" xMin="89" yMin="0" xMax="1645" yMax="1568">
      <contour>
        <pt x="542" y="317" on="1"/>
        <pt x="563" y="273" on="0"/>
        <pt x="563" y="176" on="0"/>
        <pt x="528" y="95" on="0"/>
        <pt x="498" y="65" on="1"/>
        <pt x="432" y="0" on="0"/>
        <pt x="246" y="0" on="0"/>
        <pt x="116" y="130" on="0"/>
        <pt x="116" y="284" on="0"/>
        <pt x="144" y="330" on="1"/>
        <pt x="172" y="376" on="0"/>
        <pt x="218" y="408" on="1"/>
        <pt x="311" y="472" on="0"/>
        <pt x="521" y="473" on="0"/>
        <pt x="650" y="429" on="0"/>
        <pt x="757" y="363" on="0"/>
        <pt x="848" y="285" on="0"/>
        <pt x="892" y="252" on="1"/>
        <pt x="995" y="175" on="0"/>
        <pt x="1168" y="175" on="0"/>
        <pt x="1240" y="218" on="1"/>
        <pt x="1310" y="260" on="0"/>
        <pt x="1362" y="331" on="1"/>
        <pt x="1470" y="481" on="0"/>
        <pt x="1471" y="688" on="1"/>
        <pt x="1470" y="901" on="0"/>
        <pt x="1296" y="1103" on="1"/>
        <pt x="1188" y="1230" on="0"/>
        <pt x="1034" y="1310" on="1"/>
        <pt x="958" y="1350" on="0"/>
        <pt x="876" y="1371" on="1"/>
        <pt x="588" y="1095" on="1"/>
        <pt x="622" y="1045" on="0"/>
        <pt x="686" y="1004" on="1"/>
        <pt x="785" y="942" on="1"/>
        <pt x="909" y="862" on="0"/>
        <pt x="909" y="734" on="1"/>
        <pt x="908" y="639" on="0"/>
        <pt x="842" y="574" on="1"/>
        <pt x="778" y="511" on="0"/>
        <pt x="592" y="511" on="0"/>
        <pt x="462" y="641" on="0"/>
        <pt x="462" y="841" on="0"/>
        <pt x="544" y="908" on="1"/>
        <pt x="466" y="958" on="0"/>
        <pt x="438" y="993" on="1"/>
        <pt x="385" y="1060" on="0"/>
        <pt x="385" y="1141" on="1"/>
        <pt x="645" y="1391" on="1"/>
        <pt x="470" y="1377" on="0"/>
        <pt x="365" y="1294" on="1"/>
        <pt x="264" y="1214" on="0"/>
        <pt x="264" y="1101" on="1"/>
        <pt x="264" y="1053" on="0"/>
        <pt x="321" y="969" on="0"/>
        <pt x="381" y="947" on="1"/>
        <pt x="381" y="762" on="1"/>
        <pt x="238" y="791" on="0"/>
        <pt x="157" y="902" on="1"/>
        <pt x="89" y="995" on="0"/>
        <pt x="89" y="1198" on="0"/>
        <pt x="174" y="1370" on="0"/>
        <pt x="254" y="1433" on="1"/>
        <pt x="424" y="1568" on="0"/>
        <pt x="702" y="1568" on="1"/>
        <pt x="949" y="1568" on="0"/>
        <pt x="1176" y="1432" on="1"/>
        <pt x="1385" y="1307" on="0"/>
        <pt x="1645" y="896" on="0"/>
        <pt x="1645" y="688" on="1"/>
        <pt x="1646" y="406" on="0"/>
        <pt x="1488" y="208" on="1"/>
        <pt x="1323" y="1" on="0"/>
        <pt x="1070" y="1" on="1"/>
        <pt x="907" y="2" on="0"/>
        <pt x="766" y="130" on="1"/>
        <pt x="690" y="200" on="1"/>
        <pt x="596" y="289" on="0"/>
      </contour>
      <contour>
        <pt x="662" y="788" on="0"/>
        <pt x="631" y="756" on="0"/>
        <pt x="631" y="711" on="0"/>
        <pt x="662" y="680" on="0"/>
        <pt x="707" y="680" on="0"/>
        <pt x="739" y="711" on="0"/>
        <pt x="739" y="756" on="0"/>
        <pt x="707" y="788" on="0"/>
      </contour>
      <contour>
        <pt x="316" y="280" on="0"/>
        <pt x="285" y="248" on="0"/>
        <pt x="285" y="203" on="0"/>
        <pt x="316" y="172" on="0"/>
        <pt x="361" y="172" on="0"/>
        <pt x="393" y="203" on="0"/>
        <pt x="393" y="248" on="0"/>
        <pt x="361" y="280" on="0"/>
      </contour>
    </TTGlyph>
    <TTGlyph name="E" xMin="97" yMin="-1" xMax="1461" yMax="1617">
      <contour>
        <pt x="1038" y="785" on="1"/>
        <pt x="1086" y="706" on="0"/>
        <pt x="1086" y="542" on="0"/>
        <pt x="1038" y="430" on="0"/>
        <pt x="996" y="388" on="1"/>
        <pt x="905" y="298" on="0"/>
        <pt x="779" y="299" on="1"/>
        <pt x="652" y="299" on="0"/>
        <pt x="473" y="478" on="0"/>
        <pt x="473" y="605" on="1"/>
        <pt x="473" y="698" on="0"/>
        <pt x="525" y="775" on="1"/>
        <pt x="663" y="673" on="1"/>
        <pt x="645" y="643" on="0"/>
        <pt x="645" y="577" on="0"/>
        <pt x="666" y="529" on="0"/>
        <pt x="684" y="511" on="1"/>
        <pt x="723" y="472" on="0"/>
        <pt x="778" y="472" on="1"/>
        <pt x="834" y="472" on="0"/>
        <pt x="912" y="550" on="0"/>
        <pt x="912" y="645" on="0"/>
        <pt x="876" y="710" on="0"/>
        <pt x="818" y="764" on="0"/>
        <pt x="782" y="786" on="1"/>
        <pt x="713" y="828" on="1"/>
        <pt x="600" y="890" on="0"/>
        <pt x="559" y="932" on="1"/>
        <pt x="477" y="1016" on="0"/>
        <pt x="477" y="1118" on="1"/>
        <pt x="477" y="1216" on="0"/>
        <pt x="548" y="1298" on="1"/>
        <pt x="575" y="1330" on="0"/>
        <pt x="575" y="1354" on="1"/>
        <pt x="575" y="1393" on="0"/>
        <pt x="480" y="1393" on="0"/>
        <pt x="389" y="1318" on="0"/>
        <pt x="353" y="1242" on="1"/>
        <pt x="272" y="1070" on="0"/>
        <pt x="272" y="776" on="1"/>
        <pt x="272" y="482" on="0"/>
        <pt x="429" y="318" on="1"/>
        <pt x="568" y="173" on="0"/>
        <pt x="781" y="173" on="1"/>
        <pt x="972" y="172" on="0"/>
        <pt x="1117" y="314" on="1"/>
        <pt x="1228" y="422" on="0"/>
        <pt x="1299" y="607" on="1"/>
        <pt x="1461" y="543" on="1"/>
        <pt x="1378" y="321" on="0"/>
        <pt x="1226" y="177" on="1"/>
        <pt x="1040" y="-1" on="0"/>
        <pt x="781" y="-1" on="1"/>
        <pt x="500" y="0" on="0"/>
        <pt x="310" y="186" on="1"/>
        <pt x="98" y="395" on="0"/>
        <pt x="97" y="776" on="1"/>
        <pt x="97" y="1153" on="0"/>
        <pt x="234" y="1373" on="1"/>
        <pt x="295" y="1471" on="0"/>
        <pt x="448" y="1567" on="0"/>
        <pt x="526" y="1567" on="1"/>
        <pt x="643" y="1567" on="0"/>
        <pt x="703" y="1491" on="1"/>
        <pt x="805" y="1617" on="1"/>
        <pt x="869" y="1414" on="0"/>
        <pt x="950" y="1341" on="1"/>
        <pt x="980" y="1314" on="0"/>
        <pt x="1044" y="1314" on="0"/>
        <pt x="1068" y="1330" on="1"/>
        <pt x="1092" y="1346" on="0"/>
        <pt x="1109" y="1376" on="1"/>
        <pt x="1144" y="1437" on="0"/>
        <pt x="1144" y="1537" on="1"/>
        <pt x="1318" y="1537" on="1"/>
        <pt x="1318" y="1360" on="0"/>
        <pt x="1238" y="1252" on="1"/>
        <pt x="1154" y="1139" on="0"/>
        <pt x="852" y="1139" on="0"/>
        <pt x="754" y="1275" on="1"/>
        <pt x="682" y="1187" on="1"/>
        <pt x="652" y="1149" on="0"/>
        <pt x="652" y="1097" on="0"/>
        <pt x="676" y="1060" on="0"/>
        <pt x="696" y="1044" on="1"/>
        <pt x="717" y="1028" on="0"/>
        <pt x="743" y="1012" on="1"/>
        <pt x="850" y="951" on="1"/>
        <pt x="876" y="936" on="0"/>
        <pt x="902" y="918" on="1"/>
        <pt x="938" y="995" on="0"/>
        <pt x="974" y="1026" on="1"/>
        <pt x="1039" y="1081" on="0"/>
        <pt x="1119" y="1081" on="1"/>
        <pt x="1194" y="1081" on="0"/>
        <pt x="1262" y="1024" on="1"/>
        <pt x="1262" y="1131" on="1"/>
        <pt x="1432" y="1131" on="1"/>
        <pt x="1432" y="993" on="0"/>
        <pt x="1395" y="893" on="0"/>
        <pt x="1334" y="843" on="0"/>
        <pt x="1247" y="843" on="0"/>
        <pt x="1228" y="853" on="1"/>
        <pt x="1210" y="863" on="0"/>
        <pt x="1196" y="875" on="1"/>
        <pt x="1170" y="897" on="1"/>
        <pt x="1158" y="907" on="0"/>
        <pt x="1120" y="907" on="0"/>
        <pt x="1089" y="886" on="0"/>
        <pt x="1077" y="869" on="1"/>
        <pt x="1058" y="842" on="0"/>
      </contour>
    </TTGlyph>
    <TTGlyph name="Eacute" xMin="97" yMin="-1" xMax="1461" yMax="1995">
      <contour>
        <pt x="526" y="1567" on="1"/>
        <pt x="643" y="1567" on="0"/>
        <pt x="703" y="1491" on="1"/>
        <pt x="797" y="1607" on="1"/>
        <pt x="713" y="1741" on="1"/>
        <pt x="1062" y="1995" on="1"/>
        <pt x="1178" y="1837" on="1"/>
        <pt x="809" y="1603" on="1"/>
        <pt x="872" y="1410" on="0"/>
        <pt x="952" y="1340" on="1"/>
        <pt x="982" y="1314" on="0"/>
        <pt x="1044" y="1314" on="0"/>
        <pt x="1068" y="1330" on="1"/>
        <pt x="1092" y="1346" on="0"/>
        <pt x="1109" y="1376" on="1"/>
        <pt x="1144" y="1437" on="0"/>
        <pt x="1144" y="1537" on="1"/>
        <pt x="1318" y="1537" on="1"/>
        <pt x="1318" y="1360" on="0"/>
        <pt x="1238" y="1252" on="1"/>
        <pt x="1154" y="1139" on="0"/>
        <pt x="852" y="1139" on="0"/>
        <pt x="754" y="1275" on="1"/>
        <pt x="682" y="1187" on="1"/>
        <pt x="652" y="1149" on="0"/>
        <pt x="652" y="1097" on="0"/>
        <pt x="676" y="1060" on="0"/>
        <pt x="696" y="1044" on="1"/>
        <pt x="717" y="1028" on="0"/>
        <pt x="743" y="1012" on="1"/>
        <pt x="850" y="951" on="1"/>
        <pt x="876" y="936" on="0"/>
        <pt x="902" y="918" on="1"/>
        <pt x="938" y="995" on="0"/>
        <pt x="974" y="1026" on="1"/>
        <pt x="1039" y="1081" on="0"/>
        <pt x="1119" y="1081" on="1"/>
        <pt x="1194" y="1081" on="0"/>
        <pt x="1262" y="1024" on="1"/>
        <pt x="1262" y="1131" on="1"/>
        <pt x="1432" y="1131" on="1"/>
        <pt x="1432" y="993" on="0"/>
        <pt x="1395" y="893" on="0"/>
        <pt x="1334" y="843" on="0"/>
        <pt x="1247" y="843" on="0"/>
        <pt x="1228" y="853" on="1"/>
        <pt x="1210" y="863" on="0"/>
        <pt x="1196" y="875" on="1"/>
        <pt x="1170" y="897" on="1"/>
        <pt x="1158" y="907" on="0"/>
        <pt x="1120" y="907" on="0"/>
        <pt x="1089" y="886" on="0"/>
        <pt x="1077" y="869" on="1"/>
        <pt x="1058" y="842" on="0"/>
        <pt x="1038" y="785" on="1"/>
        <pt x="1086" y="706" on="0"/>
        <pt x="1086" y="542" on="0"/>
        <pt x="1038" y="430" on="0"/>
        <pt x="996" y="388" on="1"/>
        <pt x="905" y="298" on="0"/>
        <pt x="779" y="299" on="1"/>
        <pt x="652" y="299" on="0"/>
        <pt x="473" y="478" on="0"/>
        <pt x="473" y="605" on="1"/>
        <pt x="473" y="698" on="0"/>
        <pt x="525" y="775" on="1"/>
        <pt x="663" y="673" on="1"/>
        <pt x="645" y="643" on="0"/>
        <pt x="645" y="577" on="0"/>
        <pt x="666" y="529" on="0"/>
        <pt x="684" y="511" on="1"/>
        <pt x="723" y="472" on="0"/>
        <pt x="778" y="472" on="1"/>
        <pt x="834" y="472" on="0"/>
        <pt x="912" y="550" on="0"/>
        <pt x="912" y="645" on="0"/>
        <pt x="876" y="710" on="0"/>
        <pt x="818" y="764" on="0"/>
        <pt x="782" y="786" on="1"/>
        <pt x="713" y="828" on="1"/>
        <pt x="600" y="890" on="0"/>
        <pt x="559" y="932" on="1"/>
        <pt x="477" y="1016" on="0"/>
        <pt x="477" y="1118" on="1"/>
        <pt x="477" y="1216" on="0"/>
        <pt x="548" y="1298" on="1"/>
        <pt x="575" y="1330" on="0"/>
        <pt x="575" y="1354" on="1"/>
        <pt x="575" y="1393" on="0"/>
        <pt x="480" y="1393" on="0"/>
        <pt x="389" y="1318" on="0"/>
        <pt x="353" y="1242" on="1"/>
        <pt x="272" y="1070" on="0"/>
        <pt x="272" y="776" on="1"/>
        <pt x="272" y="482" on="0"/>
        <pt x="429" y="318" on="1"/>
        <pt x="568" y="173" on="0"/>
        <pt x="781" y="173" on="1"/>
        <pt x="972" y="172" on="0"/>
        <pt x="1117" y="314" on="1"/>
        <pt x="1228" y="422" on="0"/>
        <pt x="1299" y="607" on="1"/>
        <pt x="1461" y="543" on="1"/>
        <pt x="1378" y="321" on="0"/>
        <pt x="1226" y="177" on="1"/>
        <pt x="1040" y="-1" on="0"/>
        <pt x="781" y="-1" on="1"/>
        <pt x="500" y="0" on="0"/>
        <pt x="310" y="186" on="1"/>
        <pt x="98" y="395" on="0"/>
        <pt x="97" y="776" on="1"/>
        <pt x="97" y="1153" on="0"/>
        <pt x="234" y="1373" on="1"/>
        <pt x="295" y="1471" on="0"/>
        <pt x="448" y="1567" on="0"/>
      </contour>
    </TTGlyph>
    <TTGlyph name="Ecircumflex" xMin="97" yMin="-1" xMax="1461" yMax="1997">
      <contour>
        <pt x="1038" y="785" on="1"/>
        <pt x="1086" y="706" on="0"/>
        <pt x="1086" y="542" on="0"/>
        <pt x="1038" y="430" on="0"/>
        <pt x="996" y="388" on="1"/>
        <pt x="905" y="298" on="0"/>
        <pt x="779" y="299" on="1"/>
        <pt x="652" y="299" on="0"/>
        <pt x="473" y="478" on="0"/>
        <pt x="473" y="605" on="1"/>
        <pt x="473" y="698" on="0"/>
        <pt x="525" y="775" on="1"/>
        <pt x="663" y="673" on="1"/>
        <pt x="645" y="643" on="0"/>
        <pt x="645" y="577" on="0"/>
        <pt x="666" y="529" on="0"/>
        <pt x="684" y="511" on="1"/>
        <pt x="723" y="472" on="0"/>
        <pt x="778" y="472" on="1"/>
        <pt x="834" y="472" on="0"/>
        <pt x="912" y="550" on="0"/>
        <pt x="912" y="645" on="0"/>
        <pt x="876" y="710" on="0"/>
        <pt x="818" y="764" on="0"/>
        <pt x="782" y="786" on="1"/>
        <pt x="713" y="828" on="1"/>
        <pt x="600" y="890" on="0"/>
        <pt x="559" y="932" on="1"/>
        <pt x="477" y="1016" on="0"/>
        <pt x="477" y="1118" on="1"/>
        <pt x="477" y="1216" on="0"/>
        <pt x="548" y="1298" on="1"/>
        <pt x="575" y="1330" on="0"/>
        <pt x="575" y="1354" on="1"/>
        <pt x="575" y="1393" on="0"/>
        <pt x="480" y="1393" on="0"/>
        <pt x="389" y="1318" on="0"/>
        <pt x="353" y="1242" on="1"/>
        <pt x="272" y="1070" on="0"/>
        <pt x="272" y="776" on="1"/>
        <pt x="272" y="482" on="0"/>
        <pt x="429" y="318" on="1"/>
        <pt x="568" y="173" on="0"/>
        <pt x="781" y="173" on="1"/>
        <pt x="972" y="172" on="0"/>
        <pt x="1117" y="314" on="1"/>
        <pt x="1228" y="422" on="0"/>
        <pt x="1299" y="607" on="1"/>
        <pt x="1461" y="543" on="1"/>
        <pt x="1378" y="321" on="0"/>
        <pt x="1226" y="177" on="1"/>
        <pt x="1040" y="-1" on="0"/>
        <pt x="781" y="-1" on="1"/>
        <pt x="500" y="0" on="0"/>
        <pt x="310" y="186" on="1"/>
        <pt x="98" y="395" on="0"/>
        <pt x="97" y="776" on="1"/>
        <pt x="97" y="1153" on="0"/>
        <pt x="234" y="1373" on="1"/>
        <pt x="295" y="1471" on="0"/>
        <pt x="448" y="1567" on="0"/>
        <pt x="526" y="1567" on="1"/>
        <pt x="643" y="1567" on="0"/>
        <pt x="703" y="1491" on="1"/>
        <pt x="805" y="1617" on="1"/>
        <pt x="869" y="1414" on="0"/>
        <pt x="950" y="1341" on="1"/>
        <pt x="980" y="1314" on="0"/>
        <pt x="1044" y="1314" on="0"/>
        <pt x="1068" y="1330" on="1"/>
        <pt x="1092" y="1346" on="0"/>
        <pt x="1109" y="1376" on="1"/>
        <pt x="1144" y="1437" on="0"/>
        <pt x="1144" y="1537" on="1"/>
        <pt x="1318" y="1537" on="1"/>
        <pt x="1318" y="1360" on="0"/>
        <pt x="1238" y="1252" on="1"/>
        <pt x="1154" y="1139" on="0"/>
        <pt x="852" y="1139" on="0"/>
        <pt x="754" y="1275" on="1"/>
        <pt x="682" y="1187" on="1"/>
        <pt x="652" y="1149" on="0"/>
        <pt x="652" y="1097" on="0"/>
        <pt x="676" y="1060" on="0"/>
        <pt x="696" y="1044" on="1"/>
        <pt x="717" y="1028" on="0"/>
        <pt x="743" y="1012" on="1"/>
        <pt x="850" y="951" on="1"/>
        <pt x="876" y="936" on="0"/>
        <pt x="902" y="918" on="1"/>
        <pt x="938" y="995" on="0"/>
        <pt x="974" y="1026" on="1"/>
        <pt x="1039" y="1081" on="0"/>
        <pt x="1119" y="1081" on="1"/>
        <pt x="1194" y="1081" on="0"/>
        <pt x="1262" y="1024" on="1"/>
        <pt x="1262" y="1131" on="1"/>
        <pt x="1432" y="1131" on="1"/>
        <pt x="1432" y="993" on="0"/>
        <pt x="1395" y="893" on="0"/>
        <pt x="1334" y="843" on="0"/>
        <pt x="1247" y="843" on="0"/>
        <pt x="1228" y="853" on="1"/>
        <pt x="1210" y="863" on="0"/>
        <pt x="1196" y="875" on="1"/>
        <pt x="1170" y="897" on="1"/>
        <pt x="1158" y="907" on="0"/>
        <pt x="1120" y="907" on="0"/>
        <pt x="1089" y="886" on="0"/>
        <pt x="1077" y="869" on="1"/>
        <pt x="1058" y="842" on="0"/>
      </contour>
      <contour>
        <pt x="498" y="1745" on="1"/>
        <pt x="859" y="1997" on="1"/>
        <pt x="1207" y="1745" on="1"/>
        <pt x="1104" y="1609" on="1"/>
        <pt x="859" y="1790" on="1"/>
        <pt x="830" y="1766" on="0"/>
        <pt x="786" y="1736" on="1"/>
        <pt x="601" y="1609" on="1"/>
      </contour>
    </TTGlyph>
    <TTGlyph name="Edieresis" xMin="97" yMin="-1" xMax="1461" yMax="1992">
      <contour>
        <pt x="1038" y="785" on="1"/>
        <pt x="1086" y="706" on="0"/>
        <pt x="1086" y="542" on="0"/>
        <pt x="1038" y="430" on="0"/>
        <pt x="996" y="388" on="1"/>
        <pt x="905" y="298" on="0"/>
        <pt x="779" y="299" on="1"/>
        <pt x="652" y="299" on="0"/>
        <pt x="473" y="478" on="0"/>
        <pt x="473" y="605" on="1"/>
        <pt x="473" y="698" on="0"/>
        <pt x="525" y="775" on="1"/>
        <pt x="663" y="673" on="1"/>
        <pt x="645" y="643" on="0"/>
        <pt x="645" y="577" on="0"/>
        <pt x="666" y="529" on="0"/>
        <pt x="684" y="511" on="1"/>
        <pt x="723" y="472" on="0"/>
        <pt x="778" y="472" on="1"/>
        <pt x="834" y="472" on="0"/>
        <pt x="912" y="550" on="0"/>
        <pt x="912" y="645" on="0"/>
        <pt x="876" y="710" on="0"/>
        <pt x="818" y="764" on="0"/>
        <pt x="782" y="786" on="1"/>
        <pt x="713" y="828" on="1"/>
        <pt x="600" y="890" on="0"/>
        <pt x="559" y="932" on="1"/>
        <pt x="477" y="1016" on="0"/>
        <pt x="477" y="1118" on="1"/>
        <pt x="477" y="1216" on="0"/>
        <pt x="548" y="1298" on="1"/>
        <pt x="575" y="1330" on="0"/>
        <pt x="575" y="1354" on="1"/>
        <pt x="575" y="1393" on="0"/>
        <pt x="480" y="1393" on="0"/>
        <pt x="389" y="1318" on="0"/>
        <pt x="353" y="1242" on="1"/>
        <pt x="272" y="1070" on="0"/>
        <pt x="272" y="776" on="1"/>
        <pt x="272" y="482" on="0"/>
        <pt x="429" y="318" on="1"/>
        <pt x="568" y="173" on="0"/>
        <pt x="781" y="173" on="1"/>
        <pt x="972" y="172" on="0"/>
        <pt x="1117" y="314" on="1"/>
        <pt x="1228" y="422" on="0"/>
        <pt x="1299" y="607" on="1"/>
        <pt x="1461" y="543" on="1"/>
        <pt x="1378" y="321" on="0"/>
        <pt x="1226" y="177" on="1"/>
        <pt x="1040" y="-1" on="0"/>
        <pt x="781" y="-1" on="1"/>
        <pt x="500" y="0" on="0"/>
        <pt x="310" y="186" on="1"/>
        <pt x="98" y="395" on="0"/>
        <pt x="97" y="776" on="1"/>
        <pt x="97" y="1153" on="0"/>
        <pt x="234" y="1373" on="1"/>
        <pt x="295" y="1471" on="0"/>
        <pt x="448" y="1567" on="0"/>
        <pt x="526" y="1567" on="1"/>
        <pt x="643" y="1567" on="0"/>
        <pt x="703" y="1491" on="1"/>
        <pt x="805" y="1617" on="1"/>
        <pt x="869" y="1414" on="0"/>
        <pt x="950" y="1341" on="1"/>
        <pt x="980" y="1314" on="0"/>
        <pt x="1044" y="1314" on="0"/>
        <pt x="1068" y="1330" on="1"/>
        <pt x="1092" y="1346" on="0"/>
        <pt x="1109" y="1376" on="1"/>
        <pt x="1144" y="1437" on="0"/>
        <pt x="1144" y="1537" on="1"/>
        <pt x="1318" y="1537" on="1"/>
        <pt x="1318" y="1360" on="0"/>
        <pt x="1238" y="1252" on="1"/>
        <pt x="1154" y="1139" on="0"/>
        <pt x="852" y="1139" on="0"/>
        <pt x="754" y="1275" on="1"/>
        <pt x="682" y="1187" on="1"/>
        <pt x="652" y="1149" on="0"/>
        <pt x="652" y="1097" on="0"/>
        <pt x="676" y="1060" on="0"/>
        <pt x="696" y="1044" on="1"/>
        <pt x="717" y="1028" on="0"/>
        <pt x="743" y="1012" on="1"/>
        <pt x="850" y="951" on="1"/>
        <pt x="876" y="936" on="0"/>
        <pt x="902" y="918" on="1"/>
        <pt x="938" y="995" on="0"/>
        <pt x="974" y="1026" on="1"/>
        <pt x="1039" y="1081" on="0"/>
        <pt x="1119" y="1081" on="1"/>
        <pt x="1194" y="1081" on="0"/>
        <pt x="1262" y="1024" on="1"/>
        <pt x="1262" y="1131" on="1"/>
        <pt x="1432" y="1131" on="1"/>
        <pt x="1432" y="993" on="0"/>
        <pt x="1395" y="893" on="0"/>
        <pt x="1334" y="843" on="0"/>
        <pt x="1247" y="843" on="0"/>
        <pt x="1228" y="853" on="1"/>
        <pt x="1210" y="863" on="0"/>
        <pt x="1196" y="875" on="1"/>
        <pt x="1170" y="897" on="1"/>
        <pt x="1158" y="907" on="0"/>
        <pt x="1120" y="907" on="0"/>
        <pt x="1089" y="886" on="0"/>
        <pt x="1077" y="869" on="1"/>
        <pt x="1058" y="842" on="0"/>
      </contour>
      <contour>
        <pt x="1021" y="1657" on="1"/>
        <pt x="863" y="1710" on="1"/>
        <pt x="981" y="1992" on="1"/>
        <pt x="1158" y="1921" on="1"/>
      </contour>
      <contour>
        <pt x="716" y="1657" on="1"/>
        <pt x="558" y="1710" on="1"/>
        <pt x="677" y="1992" on="1"/>
        <pt x="854" y="1921" on="1"/>
      </contour>
    </TTGlyph>
    <TTGlyph name="Egrave" xMin="97" yMin="-1" xMax="1461" yMax="1995">
      <contour>
        <pt x="1038" y="785" on="1"/>
        <pt x="1086" y="706" on="0"/>
        <pt x="1086" y="542" on="0"/>
        <pt x="1038" y="430" on="0"/>
        <pt x="996" y="388" on="1"/>
        <pt x="905" y="298" on="0"/>
        <pt x="779" y="299" on="1"/>
        <pt x="652" y="299" on="0"/>
        <pt x="473" y="478" on="0"/>
        <pt x="473" y="605" on="1"/>
        <pt x="473" y="698" on="0"/>
        <pt x="525" y="775" on="1"/>
        <pt x="663" y="673" on="1"/>
        <pt x="645" y="643" on="0"/>
        <pt x="645" y="577" on="0"/>
        <pt x="666" y="529" on="0"/>
        <pt x="684" y="511" on="1"/>
        <pt x="723" y="472" on="0"/>
        <pt x="778" y="472" on="1"/>
        <pt x="834" y="472" on="0"/>
        <pt x="912" y="550" on="0"/>
        <pt x="912" y="645" on="0"/>
        <pt x="876" y="710" on="0"/>
        <pt x="818" y="764" on="0"/>
        <pt x="782" y="786" on="1"/>
        <pt x="713" y="828" on="1"/>
        <pt x="600" y="890" on="0"/>
        <pt x="559" y="932" on="1"/>
        <pt x="477" y="1016" on="0"/>
        <pt x="477" y="1118" on="1"/>
        <pt x="477" y="1216" on="0"/>
        <pt x="548" y="1298" on="1"/>
        <pt x="575" y="1330" on="0"/>
        <pt x="575" y="1354" on="1"/>
        <pt x="575" y="1393" on="0"/>
        <pt x="480" y="1393" on="0"/>
        <pt x="389" y="1318" on="0"/>
        <pt x="353" y="1242" on="1"/>
        <pt x="272" y="1070" on="0"/>
        <pt x="272" y="776" on="1"/>
        <pt x="272" y="482" on="0"/>
        <pt x="429" y="318" on="1"/>
        <pt x="568" y="173" on="0"/>
        <pt x="781" y="173" on="1"/>
        <pt x="972" y="172" on="0"/>
        <pt x="1117" y="314" on="1"/>
        <pt x="1228" y="422" on="0"/>
        <pt x="1299" y="607" on="1"/>
        <pt x="1461" y="543" on="1"/>
        <pt x="1378" y="321" on="0"/>
        <pt x="1226" y="177" on="1"/>
        <pt x="1040" y="-1" on="0"/>
        <pt x="781" y="-1" on="1"/>
        <pt x="500" y="0" on="0"/>
        <pt x="310" y="186" on="1"/>
        <pt x="98" y="395" on="0"/>
        <pt x="97" y="776" on="1"/>
        <pt x="97" y="1153" on="0"/>
        <pt x="234" y="1373" on="1"/>
        <pt x="295" y="1471" on="0"/>
        <pt x="448" y="1567" on="0"/>
        <pt x="526" y="1567" on="1"/>
        <pt x="643" y="1567" on="0"/>
        <pt x="703" y="1491" on="1"/>
        <pt x="796" y="1606" on="1"/>
        <pt x="437" y="1837" on="1"/>
        <pt x="553" y="1995" on="1"/>
        <pt x="901" y="1741" on="1"/>
        <pt x="810" y="1599" on="1"/>
        <pt x="907" y="1314" on="0"/>
        <pt x="1013" y="1314" on="1"/>
        <pt x="1073" y="1314" on="0"/>
        <pt x="1109" y="1376" on="1"/>
        <pt x="1144" y="1437" on="0"/>
        <pt x="1144" y="1537" on="1"/>
        <pt x="1318" y="1537" on="1"/>
        <pt x="1318" y="1360" on="0"/>
        <pt x="1238" y="1252" on="1"/>
        <pt x="1154" y="1139" on="0"/>
        <pt x="852" y="1139" on="0"/>
        <pt x="754" y="1275" on="1"/>
        <pt x="682" y="1187" on="1"/>
        <pt x="652" y="1149" on="0"/>
        <pt x="652" y="1097" on="0"/>
        <pt x="676" y="1060" on="0"/>
        <pt x="696" y="1044" on="1"/>
        <pt x="717" y="1028" on="0"/>
        <pt x="743" y="1012" on="1"/>
        <pt x="850" y="951" on="1"/>
        <pt x="876" y="936" on="0"/>
        <pt x="902" y="918" on="1"/>
        <pt x="938" y="995" on="0"/>
        <pt x="974" y="1026" on="1"/>
        <pt x="1039" y="1081" on="0"/>
        <pt x="1119" y="1081" on="1"/>
        <pt x="1194" y="1081" on="0"/>
        <pt x="1262" y="1024" on="1"/>
        <pt x="1262" y="1131" on="1"/>
        <pt x="1432" y="1131" on="1"/>
        <pt x="1432" y="993" on="0"/>
        <pt x="1395" y="893" on="0"/>
        <pt x="1334" y="843" on="0"/>
        <pt x="1247" y="843" on="0"/>
        <pt x="1228" y="853" on="1"/>
        <pt x="1210" y="863" on="0"/>
        <pt x="1196" y="875" on="1"/>
        <pt x="1170" y="897" on="1"/>
        <pt x="1158" y="907" on="0"/>
        <pt x="1120" y="907" on="0"/>
        <pt x="1089" y="886" on="0"/>
        <pt x="1077" y="869" on="1"/>
        <pt x="1058" y="842" on="0"/>
      </contour>
    </TTGlyph>
    <TTGlyph name="Eth" xMin="89" yMin="0" xMax="1645" yMax="1568">
      <contour>
        <pt x="542" y="317" on="1"/>
        <pt x="563" y="273" on="0"/>
        <pt x="563" y="176" on="0"/>
        <pt x="528" y="95" on="0"/>
        <pt x="498" y="65" on="1"/>
        <pt x="432" y="0" on="0"/>
        <pt x="246" y="0" on="0"/>
        <pt x="116" y="130" on="0"/>
        <pt x="116" y="284" on="0"/>
        <pt x="144" y="330" on="1"/>
        <pt x="172" y="376" on="0"/>
        <pt x="218" y="408" on="1"/>
        <pt x="311" y="472" on="0"/>
        <pt x="521" y="473" on="0"/>
        <pt x="650" y="429" on="0"/>
        <pt x="757" y="363" on="0"/>
        <pt x="848" y="285" on="0"/>
        <pt x="892" y="252" on="1"/>
        <pt x="995" y="175" on="0"/>
        <pt x="1168" y="175" on="0"/>
        <pt x="1240" y="218" on="1"/>
        <pt x="1310" y="260" on="0"/>
        <pt x="1362" y="331" on="1"/>
        <pt x="1470" y="481" on="0"/>
        <pt x="1471" y="688" on="1"/>
        <pt x="1470" y="901" on="0"/>
        <pt x="1296" y="1103" on="1"/>
        <pt x="1188" y="1230" on="0"/>
        <pt x="1034" y="1310" on="1"/>
        <pt x="958" y="1350" on="0"/>
        <pt x="876" y="1371" on="1"/>
        <pt x="588" y="1095" on="1"/>
        <pt x="650" y="1005" on="0"/>
        <pt x="770" y="936" on="1"/>
        <pt x="803" y="917" on="0"/>
        <pt x="831" y="905" on="1"/>
        <pt x="1119" y="905" on="1"/>
        <pt x="1119" y="734" on="1"/>
        <pt x="909" y="734" on="1"/>
        <pt x="908" y="639" on="0"/>
        <pt x="842" y="574" on="1"/>
        <pt x="778" y="511" on="0"/>
        <pt x="592" y="511" on="0"/>
        <pt x="462" y="641" on="0"/>
        <pt x="462" y="734" on="1"/>
        <pt x="206" y="734" on="0"/>
        <pt x="121" y="936" on="1"/>
        <pt x="89" y="1012" on="0"/>
        <pt x="89" y="1198" on="0"/>
        <pt x="174" y="1370" on="0"/>
        <pt x="254" y="1433" on="1"/>
        <pt x="424" y="1568" on="0"/>
        <pt x="702" y="1568" on="1"/>
        <pt x="949" y="1568" on="0"/>
        <pt x="1176" y="1432" on="1"/>
        <pt x="1385" y="1307" on="0"/>
        <pt x="1645" y="896" on="0"/>
        <pt x="1645" y="688" on="1"/>
        <pt x="1646" y="406" on="0"/>
        <pt x="1488" y="208" on="1"/>
        <pt x="1323" y="1" on="0"/>
        <pt x="1070" y="1" on="1"/>
        <pt x="907" y="2" on="0"/>
        <pt x="766" y="130" on="1"/>
        <pt x="690" y="200" on="1"/>
        <pt x="596" y="289" on="0"/>
      </contour>
      <contour>
        <pt x="544" y="905" on="1"/>
        <pt x="467" y="954" on="0"/>
        <pt x="439" y="990" on="1"/>
        <pt x="385" y="1059" on="0"/>
        <pt x="385" y="1141" on="1"/>
        <pt x="645" y="1391" on="1"/>
        <pt x="470" y="1377" on="0"/>
        <pt x="365" y="1294" on="1"/>
        <pt x="264" y="1214" on="0"/>
        <pt x="264" y="1101" on="1"/>
        <pt x="264" y="972" on="0"/>
        <pt x="367" y="922" on="1"/>
        <pt x="401" y="906" on="0"/>
        <pt x="447" y="905" on="1"/>
      </contour>
      <contour>
        <pt x="268" y="224" on="1"/>
        <pt x="268" y="194" on="0"/>
        <pt x="310" y="152" on="0"/>
        <pt x="340" y="152" on="1"/>
        <pt x="370" y="152" on="0"/>
        <pt x="413" y="194" on="0"/>
        <pt x="413" y="224" on="1"/>
        <pt x="413" y="254" on="0"/>
        <pt x="370" y="297" on="0"/>
        <pt x="340" y="297" on="1"/>
        <pt x="310" y="297" on="0"/>
        <pt x="268" y="254" on="0"/>
      </contour>
      <contour>
        <pt x="615" y="734" on="1"/>
        <pt x="615" y="704" on="0"/>
        <pt x="657" y="662" on="0"/>
        <pt x="687" y="662" on="1"/>
        <pt x="717" y="662" on="0"/>
        <pt x="760" y="704" on="0"/>
        <pt x="760" y="734" on="1"/>
      </contour>
    </TTGlyph>
    <TTGlyph name="F" xMin="71" yMin="-219" xMax="1518" yMax="1567">
      <contour>
        <pt x="293" y="194" on="1"/>
        <pt x="293" y="298" on="0"/>
        <pt x="383" y="396" on="1"/>
        <pt x="266" y="424" on="0"/>
        <pt x="225" y="539" on="1"/>
        <pt x="212" y="575" on="0"/>
        <pt x="212" y="683" on="0"/>
        <pt x="282" y="790" on="0"/>
        <pt x="339" y="817" on="1"/>
        <pt x="220" y="853" on="0"/>
        <pt x="146" y="954" on="1"/>
        <pt x="70" y="1056" on="0"/>
        <pt x="71" y="1183" on="1"/>
        <pt x="71" y="1342" on="0"/>
        <pt x="296" y="1567" on="0"/>
        <pt x="455" y="1567" on="1"/>
        <pt x="602" y="1568" on="0"/>
        <pt x="780" y="1422" on="1"/>
        <pt x="880" y="1344" on="1"/>
        <pt x="1005" y="1251" on="0"/>
        <pt x="1102" y="1227" on="1"/>
        <pt x="1071" y="1280" on="0"/>
        <pt x="1071" y="1389" on="0"/>
        <pt x="1088" y="1430" on="1"/>
        <pt x="1106" y="1472" on="0"/>
        <pt x="1136" y="1502" on="1"/>
        <pt x="1200" y="1568" on="0"/>
        <pt x="1294" y="1567" on="1"/>
        <pt x="1387" y="1567" on="0"/>
        <pt x="1518" y="1436" on="0"/>
        <pt x="1518" y="1272" on="0"/>
        <pt x="1451" y="1164" on="0"/>
        <pt x="1397" y="1126" on="1"/>
        <pt x="1288" y="1050" on="0"/>
        <pt x="1139" y="1051" on="1"/>
        <pt x="1118" y="1051" on="1"/>
        <pt x="1108" y="1051" on="0"/>
        <pt x="1099" y="1053" on="1"/>
        <pt x="966" y="962" on="0"/>
        <pt x="916" y="828" on="1"/>
        <pt x="900" y="786" on="0"/>
        <pt x="900" y="718" on="0"/>
        <pt x="909" y="693" on="1"/>
        <pt x="993" y="886" on="0"/>
        <pt x="1104" y="886" on="1"/>
        <pt x="1147" y="886" on="0"/>
        <pt x="1229" y="845" on="0"/>
        <pt x="1271" y="822" on="0"/>
        <pt x="1288" y="816" on="1"/>
        <pt x="1192" y="922" on="1"/>
        <pt x="1310" y="1048" on="1"/>
        <pt x="1374" y="988" on="1"/>
        <pt x="1433" y="930" on="0"/>
        <pt x="1461" y="851" on="0"/>
        <pt x="1461" y="778" on="0"/>
        <pt x="1434" y="719" on="0"/>
        <pt x="1412" y="699" on="1"/>
        <pt x="1367" y="658" on="0"/>
        <pt x="1266" y="658" on="0"/>
        <pt x="1214" y="675" on="0"/>
        <pt x="1194" y="685" on="1"/>
        <pt x="1158" y="704" on="1"/>
        <pt x="1142" y="712" on="0"/>
        <pt x="1107" y="712" on="0"/>
        <pt x="1072" y="686" on="0"/>
        <pt x="1057" y="662" on="1"/>
        <pt x="1022" y="607" on="0"/>
        <pt x="1015" y="532" on="1"/>
        <pt x="1086" y="453" on="1"/>
        <pt x="1155" y="373" on="0"/>
        <pt x="1190" y="257" on="0"/>
        <pt x="1190" y="118" on="0"/>
        <pt x="1130" y="-37" on="0"/>
        <pt x="1072" y="-95" on="1"/>
        <pt x="949" y="-219" on="0"/>
        <pt x="735" y="-219" on="1"/>
        <pt x="553" y="-220" on="0"/>
        <pt x="426" y="-110" on="1"/>
        <pt x="293" y="4" on="0"/>
      </contour>
      <contour>
        <pt x="740" y="743" on="1"/>
        <pt x="740" y="959" on="0"/>
        <pt x="923" y="1110" on="1"/>
        <pt x="901" y="1122" on="0"/>
        <pt x="859" y="1150" on="0"/>
        <pt x="838" y="1164" on="1"/>
        <pt x="832" y="1034" on="0"/>
        <pt x="750" y="936" on="1"/>
        <pt x="669" y="839" on="0"/>
        <pt x="545" y="809" on="1"/>
        <pt x="597" y="780" on="0"/>
        <pt x="660" y="679" on="0"/>
        <pt x="660" y="616" on="1"/>
        <pt x="660" y="606" on="1"/>
        <pt x="660" y="484" on="0"/>
        <pt x="558" y="366" on="1"/>
        <pt x="501" y="299" on="0"/>
        <pt x="466" y="218" on="0"/>
        <pt x="466" y="129" on="0"/>
        <pt x="488" y="88" on="1"/>
        <pt x="510" y="46" on="0"/>
        <pt x="546" y="16" on="1"/>
        <pt x="621" y="-46" on="0"/>
        <pt x="735" y="-46" on="1"/>
        <pt x="868" y="-46" on="0"/>
        <pt x="944" y="28" on="1"/>
        <pt x="1016" y="98" on="0"/>
        <pt x="1017" y="207" on="1"/>
        <pt x="1017" y="279" on="0"/>
        <pt x="945" y="360" on="1"/>
        <pt x="914" y="395" on="0"/>
        <pt x="843" y="468" on="0"/>
        <pt x="812" y="513" on="1"/>
        <pt x="740" y="618" on="0"/>
      </contour>
      <contour>
        <pt x="246" y="1183" on="1"/>
        <pt x="246" y="1097" on="0"/>
        <pt x="369" y="974" on="0"/>
        <pt x="455" y="974" on="1"/>
        <pt x="541" y="974" on="0"/>
        <pt x="664" y="1097" on="0"/>
        <pt x="664" y="1183" on="1"/>
        <pt x="664" y="1269" on="0"/>
        <pt x="541" y="1392" on="0"/>
        <pt x="455" y="1392" on="1"/>
        <pt x="369" y="1392" on="0"/>
        <pt x="246" y="1269" on="0"/>
      </contour>
      <contour>
        <pt x="413" y="668" on="0"/>
        <pt x="382" y="636" on="0"/>
        <pt x="382" y="591" on="0"/>
        <pt x="413" y="560" on="0"/>
        <pt x="458" y="560" on="0"/>
        <pt x="490" y="591" on="0"/>
        <pt x="490" y="636" on="0"/>
        <pt x="458" y="668" on="0"/>
      </contour>
      <contour>
        <pt x="1271" y="1397" on="0"/>
        <pt x="1240" y="1365" on="0"/>
        <pt x="1240" y="1320" on="0"/>
        <pt x="1271" y="1289" on="0"/>
        <pt x="1316" y="1289" on="0"/>
        <pt x="1348" y="1320" on="0"/>
        <pt x="1348" y="1365" on="0"/>
        <pt x="1316" y="1397" on="0"/>
      </contour>
    </TTGlyph>
    <TTGlyph name="G" xMin="89" yMin="0" xMax="1640" yMax="1567">
      <contour>
        <pt x="458" y="1503" on="1"/>
        <pt x="573" y="1567" on="0"/>
        <pt x="832" y="1567" on="0"/>
        <pt x="919" y="1515" on="1"/>
        <pt x="1041" y="1567" on="0"/>
        <pt x="1199" y="1567" on="1"/>
        <pt x="1199" y="1393" on="1"/>
        <pt x="1093" y="1393" on="0"/>
        <pt x="1047" y="1380" on="1"/>
        <pt x="1103" y="1266" on="0"/>
        <pt x="1103" y="1083" on="1"/>
        <pt x="929" y="1083" on="1"/>
        <pt x="929" y="1229" on="0"/>
        <pt x="902" y="1285" on="1"/>
        <pt x="859" y="1229" on="0"/>
        <pt x="859" y="1134" on="0"/>
        <pt x="877" y="1074" on="0"/>
        <pt x="892" y="1046" on="1"/>
        <pt x="906" y="1018" on="0"/>
        <pt x="926" y="991" on="1"/>
        <pt x="967" y="937" on="1"/>
        <pt x="1536" y="1380" on="1"/>
        <pt x="1640" y="1241" on="1"/>
        <pt x="1419" y="1069" on="1"/>
        <pt x="1573" y="879" on="0"/>
        <pt x="1573" y="632" on="1"/>
        <pt x="1573" y="360" on="0"/>
        <pt x="1390" y="184" on="1"/>
        <pt x="1198" y="0" on="0"/>
        <pt x="876" y="0" on="1"/>
        <pt x="488" y="0" on="0"/>
        <pt x="277" y="241" on="1"/>
        <pt x="89" y="455" on="0"/>
        <pt x="89" y="769" on="1"/>
        <pt x="89" y="1100" on="0"/>
        <pt x="261" y="1330" on="1"/>
        <pt x="343" y="1440" on="0"/>
      </contour>
      <contour>
        <pt x="1070" y="800" on="1"/>
        <pt x="1161" y="649" on="0"/>
        <pt x="1164" y="507" on="1"/>
        <pt x="1164" y="412" on="0"/>
        <pt x="1033" y="281" on="0"/>
        <pt x="938" y="281" on="1"/>
        <pt x="845" y="280" on="0"/>
        <pt x="781" y="346" on="1"/>
        <pt x="716" y="412" on="0"/>
        <pt x="716" y="507" on="1"/>
        <pt x="716" y="594" on="0"/>
        <pt x="833" y="722" on="0"/>
        <pt x="920" y="728" on="1"/>
        <pt x="884" y="775" on="0"/>
        <pt x="842" y="822" on="1"/>
        <pt x="802" y="868" on="0"/>
        <pt x="766" y="920" on="1"/>
        <pt x="684" y="1041" on="0"/>
        <pt x="684" y="1285" on="0"/>
        <pt x="762" y="1389" on="1"/>
        <pt x="739" y="1393" on="0"/>
        <pt x="713" y="1393" on="1"/>
        <pt x="516" y="1393" on="0"/>
        <pt x="387" y="1207" on="1"/>
        <pt x="263" y="1028" on="0"/>
        <pt x="263" y="770" on="1"/>
        <pt x="264" y="534" on="0"/>
        <pt x="410" y="364" on="1"/>
        <pt x="511" y="246" on="0"/>
        <pt x="682" y="198" on="1"/>
        <pt x="769" y="174" on="0"/>
        <pt x="1000" y="174" on="0"/>
        <pt x="1098" y="210" on="1"/>
        <pt x="1195" y="248" on="0"/>
        <pt x="1262" y="310" on="1"/>
        <pt x="1399" y="438" on="0"/>
        <pt x="1399" y="632" on="1"/>
        <pt x="1399" y="821" on="0"/>
        <pt x="1281" y="965" on="1"/>
      </contour>
      <contour>
        <pt x="917" y="559" on="0"/>
        <pt x="886" y="527" on="0"/>
        <pt x="886" y="482" on="0"/>
        <pt x="917" y="451" on="0"/>
        <pt x="962" y="451" on="0"/>
        <pt x="994" y="482" on="0"/>
        <pt x="994" y="527" on="0"/>
        <pt x="962" y="559" on="0"/>
      </contour>
    </TTGlyph>
    <TTGlyph name="H" xMin="34" yMin="-301" xMax="1355" yMax="1574">
      <contour>
        <pt x="1128" y="1399" on="1"/>
        <pt x="1128" y="1399" on="0"/>
        <pt x="1068" y="1382" on="1"/>
        <pt x="1014" y="1367" on="0"/>
        <pt x="986" y="1325" on="0"/>
        <pt x="986" y="1282" on="0"/>
        <pt x="1005" y="1239" on="0"/>
        <pt x="1036" y="1193" on="0"/>
        <pt x="1056" y="1169" on="1"/>
        <pt x="1056" y="1169" on="0"/>
        <pt x="1186" y="1020" on="1"/>
        <pt x="1354" y="822" on="0"/>
        <pt x="1355" y="585" on="1"/>
        <pt x="1356" y="349" on="0"/>
        <pt x="1214" y="196" on="1"/>
        <pt x="1091" y="63" on="0"/>
        <pt x="859" y="-5" on="1"/>
        <pt x="688" y="76" on="0"/>
        <pt x="591" y="88" on="1"/>
        <pt x="553" y="92" on="0"/>
        <pt x="470" y="92" on="0"/>
        <pt x="442" y="82" on="1"/>
        <pt x="414" y="72" on="0"/>
        <pt x="396" y="56" on="1"/>
        <pt x="360" y="23" on="0"/>
        <pt x="359" y="-25" on="1"/>
        <pt x="358" y="-70" on="0"/>
        <pt x="382" y="-94" on="1"/>
        <pt x="422" y="-134" on="0"/>
        <pt x="469" y="-135" on="1"/>
        <pt x="469" y="-301" on="1"/>
        <pt x="354" y="-301" on="0"/>
        <pt x="190" y="-137" on="0"/>
        <pt x="190" y="-22" on="1"/>
        <pt x="190" y="51" on="0"/>
        <pt x="257" y="172" on="0"/>
        <pt x="314" y="210" on="1"/>
        <pt x="193" y="242" on="0"/>
        <pt x="34" y="447" on="0"/>
        <pt x="34" y="578" on="1"/>
        <pt x="212" y="578" on="1"/>
        <pt x="212" y="492" on="0"/>
        <pt x="334" y="370" on="0"/>
        <pt x="420" y="370" on="1"/>
        <pt x="504" y="370" on="0"/>
        <pt x="566" y="428" on="1"/>
        <pt x="628" y="487" on="0"/>
        <pt x="628" y="569" on="1"/>
        <pt x="628" y="694" on="0"/>
        <pt x="504" y="800" on="1"/>
        <pt x="470" y="830" on="0"/>
        <pt x="390" y="892" on="0"/>
        <pt x="306" y="964" on="0"/>
        <pt x="274" y="1007" on="1"/>
        <pt x="202" y="1102" on="0"/>
        <pt x="202" y="1226" on="1"/>
        <pt x="202" y="1442" on="0"/>
        <pt x="507" y="1574" on="1"/>
        <pt x="579" y="1423" on="1"/>
        <pt x="467" y="1367" on="0"/>
        <pt x="436" y="1339" on="1"/>
        <pt x="377" y="1286" on="0"/>
        <pt x="377" y="1189" on="0"/>
        <pt x="391" y="1158" on="1"/>
        <pt x="404" y="1126" on="0"/>
        <pt x="428" y="1098" on="1"/>
        <pt x="464" y="1055" on="0"/>
        <pt x="521" y="1010" on="1"/>
        <pt x="618" y="932" on="1"/>
        <pt x="658" y="898" on="0"/>
        <pt x="688" y="867" on="1"/>
        <pt x="925" y="1050" on="1"/>
        <pt x="881" y="1108" on="1"/>
        <pt x="811" y="1203" on="0"/>
        <pt x="811" y="1410" on="0"/>
        <pt x="953" y="1534" on="0"/>
        <pt x="1086" y="1568" on="1"/>
      </contour>
      <contour>
        <pt x="779" y="716" on="1"/>
        <pt x="802" y="642" on="0"/>
        <pt x="800" y="475" on="0"/>
        <pt x="707" y="310" on="0"/>
        <pt x="629" y="259" on="1"/>
        <pt x="735" y="245" on="0"/>
        <pt x="869" y="180" on="1"/>
        <pt x="1181" y="287" on="0"/>
        <pt x="1181" y="585" on="1"/>
        <pt x="1181" y="755" on="0"/>
        <pt x="1046" y="921" on="1"/>
      </contour>
    </TTGlyph>
    <TTGlyph name="I" xMin="96" yMin="-1" xMax="1555" yMax="1567">
      <contour>
        <pt x="1380" y="1089" on="0"/>
        <pt x="1245" y="1051" on="0"/>
        <pt x="1082" y="1051" on="0"/>
        <pt x="985" y="1092" on="1"/>
        <pt x="828" y="968" on="1"/>
        <pt x="851" y="916" on="0"/>
        <pt x="882" y="870" on="1"/>
        <pt x="1009" y="686" on="1"/>
        <pt x="1119" y="521" on="0"/>
        <pt x="1119" y="356" on="1"/>
        <pt x="1119" y="258" on="0"/>
        <pt x="1072" y="180" on="1"/>
        <pt x="1085" y="176" on="0"/>
        <pt x="1105" y="175" on="1"/>
        <pt x="1136" y="174" on="1"/>
        <pt x="1148" y="174" on="0"/>
        <pt x="1198" y="173" on="0"/>
        <pt x="1274" y="206" on="0"/>
        <pt x="1302" y="234" on="1"/>
        <pt x="1364" y="296" on="0"/>
        <pt x="1364" y="382" on="1"/>
        <pt x="1364" y="468" on="0"/>
        <pt x="1240" y="592" on="0"/>
        <pt x="1153" y="591" on="1"/>
        <pt x="1153" y="766" on="1"/>
        <pt x="1312" y="766" on="0"/>
        <pt x="1537" y="541" on="0"/>
        <pt x="1537" y="382" on="1"/>
        <pt x="1536" y="222" on="0"/>
        <pt x="1424" y="111" on="1"/>
        <pt x="1311" y="-1" on="0"/>
        <pt x="1153" y="-1" on="1"/>
        <pt x="958" y="-1" on="0"/>
        <pt x="756" y="157" on="1"/>
        <pt x="632" y="254" on="0"/>
        <pt x="484" y="315" on="0"/>
        <pt x="376" y="315" on="0"/>
        <pt x="348" y="305" on="1"/>
        <pt x="322" y="294" on="0"/>
        <pt x="304" y="280" on="1"/>
        <pt x="272" y="253" on="0"/>
        <pt x="271" y="201" on="0"/>
        <pt x="300" y="170" on="0"/>
        <pt x="323" y="170" on="1"/>
        <pt x="323" y="0" on="1"/>
        <pt x="230" y="0" on="0"/>
        <pt x="166" y="66" on="1"/>
        <pt x="101" y="132" on="0"/>
        <pt x="101" y="226" on="1"/>
        <pt x="100" y="330" on="0"/>
        <pt x="176" y="404" on="1"/>
        <pt x="264" y="490" on="0"/>
        <pt x="415" y="489" on="1"/>
        <pt x="621" y="488" on="0"/>
        <pt x="812" y="340" on="1"/>
        <pt x="917" y="261" on="1"/>
        <pt x="945" y="304" on="0"/>
        <pt x="945" y="427" on="0"/>
        <pt x="901" y="538" on="0"/>
        <pt x="835" y="636" on="0"/>
        <pt x="757" y="728" on="0"/>
        <pt x="724" y="781" on="1"/>
        <pt x="647" y="905" on="0"/>
        <pt x="647" y="1047" on="1"/>
        <pt x="824" y="1187" on="1"/>
        <pt x="792" y="1210" on="0"/>
        <pt x="752" y="1245" on="1"/>
        <pt x="714" y="1280" on="0"/>
        <pt x="670" y="1313" on="1"/>
        <pt x="565" y="1393" on="0"/>
        <pt x="441" y="1393" on="0"/>
        <pt x="400" y="1372" on="1"/>
        <pt x="358" y="1352" on="0"/>
        <pt x="330" y="1320" on="1"/>
        <pt x="270" y="1254" on="0"/>
        <pt x="271" y="1128" on="0"/>
        <pt x="310" y="1052" on="0"/>
        <pt x="346" y="1026" on="1"/>
        <pt x="417" y="974" on="0"/>
        <pt x="536" y="974" on="1"/>
        <pt x="536" y="800" on="1"/>
        <pt x="338" y="800" on="0"/>
        <pt x="220" y="896" on="1"/>
        <pt x="96" y="997" on="0"/>
        <pt x="96" y="1178" on="1"/>
        <pt x="96" y="1319" on="0"/>
        <pt x="204" y="1437" on="1"/>
        <pt x="322" y="1567" on="0"/>
        <pt x="492" y="1567" on="1"/>
        <pt x="656" y="1568" on="0"/>
        <pt x="836" y="1408" on="1"/>
        <pt x="950" y="1307" on="0"/>
        <pt x="1081" y="1234" on="0"/>
        <pt x="1139" y="1227" on="1"/>
        <pt x="1108" y="1280" on="0"/>
        <pt x="1108" y="1389" on="0"/>
        <pt x="1126" y="1430" on="1"/>
        <pt x="1143" y="1472" on="0"/>
        <pt x="1173" y="1502" on="1"/>
        <pt x="1237" y="1568" on="0"/>
        <pt x="1331" y="1567" on="1"/>
        <pt x="1424" y="1567" on="0"/>
        <pt x="1555" y="1436" on="0"/>
        <pt x="1555" y="1272" on="0"/>
        <pt x="1488" y="1164" on="0"/>
      </contour>
      <contour>
        <pt x="1308" y="1397" on="0"/>
        <pt x="1277" y="1365" on="0"/>
        <pt x="1277" y="1320" on="0"/>
        <pt x="1308" y="1289" on="0"/>
        <pt x="1353" y="1289" on="0"/>
        <pt x="1385" y="1320" on="0"/>
        <pt x="1385" y="1365" on="0"/>
        <pt x="1353" y="1397" on="0"/>
      </contour>
    </TTGlyph>
    <TTGlyph name="Iacute" xMin="96" yMin="-1" xMax="1555" yMax="2033">
      <contour>
        <pt x="1380" y="1089" on="0"/>
        <pt x="1245" y="1051" on="0"/>
        <pt x="1082" y="1051" on="0"/>
        <pt x="985" y="1092" on="1"/>
        <pt x="828" y="968" on="1"/>
        <pt x="851" y="916" on="0"/>
        <pt x="882" y="870" on="1"/>
        <pt x="1009" y="686" on="1"/>
        <pt x="1119" y="521" on="0"/>
        <pt x="1119" y="356" on="1"/>
        <pt x="1119" y="258" on="0"/>
        <pt x="1072" y="180" on="1"/>
        <pt x="1085" y="176" on="0"/>
        <pt x="1105" y="175" on="1"/>
        <pt x="1136" y="174" on="1"/>
        <pt x="1148" y="174" on="0"/>
        <pt x="1198" y="173" on="0"/>
        <pt x="1274" y="206" on="0"/>
        <pt x="1302" y="234" on="1"/>
        <pt x="1364" y="296" on="0"/>
        <pt x="1364" y="382" on="1"/>
        <pt x="1364" y="468" on="0"/>
        <pt x="1240" y="592" on="0"/>
        <pt x="1153" y="591" on="1"/>
        <pt x="1153" y="766" on="1"/>
        <pt x="1312" y="766" on="0"/>
        <pt x="1537" y="541" on="0"/>
        <pt x="1537" y="382" on="1"/>
        <pt x="1536" y="222" on="0"/>
        <pt x="1424" y="111" on="1"/>
        <pt x="1311" y="-1" on="0"/>
        <pt x="1153" y="-1" on="1"/>
        <pt x="958" y="-1" on="0"/>
        <pt x="756" y="157" on="1"/>
        <pt x="632" y="254" on="0"/>
        <pt x="484" y="315" on="0"/>
        <pt x="376" y="315" on="0"/>
        <pt x="348" y="305" on="1"/>
        <pt x="322" y="294" on="0"/>
        <pt x="304" y="280" on="1"/>
        <pt x="272" y="253" on="0"/>
        <pt x="271" y="201" on="0"/>
        <pt x="300" y="170" on="0"/>
        <pt x="323" y="170" on="1"/>
        <pt x="323" y="0" on="1"/>
        <pt x="230" y="0" on="0"/>
        <pt x="166" y="66" on="1"/>
        <pt x="101" y="132" on="0"/>
        <pt x="101" y="226" on="1"/>
        <pt x="100" y="330" on="0"/>
        <pt x="176" y="404" on="1"/>
        <pt x="264" y="490" on="0"/>
        <pt x="415" y="489" on="1"/>
        <pt x="621" y="488" on="0"/>
        <pt x="812" y="340" on="1"/>
        <pt x="917" y="261" on="1"/>
        <pt x="945" y="304" on="0"/>
        <pt x="945" y="427" on="0"/>
        <pt x="901" y="538" on="0"/>
        <pt x="835" y="636" on="0"/>
        <pt x="757" y="728" on="0"/>
        <pt x="724" y="781" on="1"/>
        <pt x="647" y="905" on="0"/>
        <pt x="647" y="1047" on="1"/>
        <pt x="824" y="1187" on="1"/>
        <pt x="792" y="1210" on="0"/>
        <pt x="752" y="1245" on="1"/>
        <pt x="714" y="1280" on="0"/>
        <pt x="670" y="1313" on="1"/>
        <pt x="565" y="1393" on="0"/>
        <pt x="441" y="1393" on="0"/>
        <pt x="400" y="1372" on="1"/>
        <pt x="358" y="1352" on="0"/>
        <pt x="330" y="1320" on="1"/>
        <pt x="270" y="1254" on="0"/>
        <pt x="271" y="1128" on="0"/>
        <pt x="310" y="1052" on="0"/>
        <pt x="346" y="1026" on="1"/>
        <pt x="417" y="974" on="0"/>
        <pt x="536" y="974" on="1"/>
        <pt x="536" y="800" on="1"/>
        <pt x="338" y="800" on="0"/>
        <pt x="220" y="896" on="1"/>
        <pt x="96" y="997" on="0"/>
        <pt x="96" y="1178" on="1"/>
        <pt x="96" y="1319" on="0"/>
        <pt x="204" y="1437" on="1"/>
        <pt x="322" y="1567" on="0"/>
        <pt x="492" y="1567" on="1"/>
        <pt x="656" y="1568" on="0"/>
        <pt x="836" y="1408" on="1"/>
        <pt x="950" y="1307" on="0"/>
        <pt x="1081" y="1234" on="0"/>
        <pt x="1139" y="1227" on="1"/>
        <pt x="1108" y="1280" on="0"/>
        <pt x="1108" y="1389" on="0"/>
        <pt x="1126" y="1430" on="1"/>
        <pt x="1143" y="1472" on="0"/>
        <pt x="1173" y="1502" on="1"/>
        <pt x="1237" y="1568" on="0"/>
        <pt x="1331" y="1567" on="1"/>
        <pt x="1424" y="1567" on="0"/>
        <pt x="1555" y="1436" on="0"/>
        <pt x="1555" y="1272" on="0"/>
        <pt x="1488" y="1164" on="0"/>
      </contour>
      <contour>
        <pt x="1308" y="1397" on="0"/>
        <pt x="1277" y="1365" on="0"/>
        <pt x="1277" y="1320" on="0"/>
        <pt x="1308" y="1289" on="0"/>
        <pt x="1353" y="1289" on="0"/>
        <pt x="1385" y="1320" on="0"/>
        <pt x="1385" y="1365" on="0"/>
        <pt x="1353" y="1397" on="0"/>
      </contour>
      <contour>
        <pt x="1060" y="1637" on="1"/>
        <pt x="970" y="1779" on="1"/>
        <pt x="1319" y="2033" on="1"/>
        <pt x="1435" y="1875" on="1"/>
      </contour>
    </TTGlyph>
    <TTGlyph name="Icircumflex" xMin="96" yMin="-1" xMax="1555" yMax="2035">
      <contour>
        <pt x="1380" y="1089" on="0"/>
        <pt x="1245" y="1051" on="0"/>
        <pt x="1082" y="1051" on="0"/>
        <pt x="985" y="1092" on="1"/>
        <pt x="828" y="968" on="1"/>
        <pt x="851" y="916" on="0"/>
        <pt x="882" y="870" on="1"/>
        <pt x="1009" y="686" on="1"/>
        <pt x="1119" y="521" on="0"/>
        <pt x="1119" y="356" on="1"/>
        <pt x="1119" y="258" on="0"/>
        <pt x="1072" y="180" on="1"/>
        <pt x="1085" y="176" on="0"/>
        <pt x="1105" y="175" on="1"/>
        <pt x="1136" y="174" on="1"/>
        <pt x="1148" y="174" on="0"/>
        <pt x="1198" y="173" on="0"/>
        <pt x="1274" y="206" on="0"/>
        <pt x="1302" y="234" on="1"/>
        <pt x="1364" y="296" on="0"/>
        <pt x="1364" y="382" on="1"/>
        <pt x="1364" y="468" on="0"/>
        <pt x="1240" y="592" on="0"/>
        <pt x="1153" y="591" on="1"/>
        <pt x="1153" y="766" on="1"/>
        <pt x="1312" y="766" on="0"/>
        <pt x="1537" y="541" on="0"/>
        <pt x="1537" y="382" on="1"/>
        <pt x="1536" y="222" on="0"/>
        <pt x="1424" y="111" on="1"/>
        <pt x="1311" y="-1" on="0"/>
        <pt x="1153" y="-1" on="1"/>
        <pt x="958" y="-1" on="0"/>
        <pt x="756" y="157" on="1"/>
        <pt x="632" y="254" on="0"/>
        <pt x="484" y="315" on="0"/>
        <pt x="376" y="315" on="0"/>
        <pt x="348" y="305" on="1"/>
        <pt x="322" y="294" on="0"/>
        <pt x="304" y="280" on="1"/>
        <pt x="272" y="253" on="0"/>
        <pt x="271" y="201" on="0"/>
        <pt x="300" y="170" on="0"/>
        <pt x="323" y="170" on="1"/>
        <pt x="323" y="0" on="1"/>
        <pt x="230" y="0" on="0"/>
        <pt x="166" y="66" on="1"/>
        <pt x="101" y="132" on="0"/>
        <pt x="101" y="226" on="1"/>
        <pt x="100" y="330" on="0"/>
        <pt x="176" y="404" on="1"/>
        <pt x="264" y="490" on="0"/>
        <pt x="415" y="489" on="1"/>
        <pt x="621" y="488" on="0"/>
        <pt x="812" y="340" on="1"/>
        <pt x="917" y="261" on="1"/>
        <pt x="945" y="304" on="0"/>
        <pt x="945" y="427" on="0"/>
        <pt x="901" y="538" on="0"/>
        <pt x="835" y="636" on="0"/>
        <pt x="757" y="728" on="0"/>
        <pt x="724" y="781" on="1"/>
        <pt x="647" y="905" on="0"/>
        <pt x="647" y="1047" on="1"/>
        <pt x="824" y="1187" on="1"/>
        <pt x="792" y="1210" on="0"/>
        <pt x="752" y="1245" on="1"/>
        <pt x="714" y="1280" on="0"/>
        <pt x="670" y="1313" on="1"/>
        <pt x="565" y="1393" on="0"/>
        <pt x="441" y="1393" on="0"/>
        <pt x="400" y="1372" on="1"/>
        <pt x="358" y="1352" on="0"/>
        <pt x="330" y="1320" on="1"/>
        <pt x="270" y="1254" on="0"/>
        <pt x="271" y="1128" on="0"/>
        <pt x="310" y="1052" on="0"/>
        <pt x="346" y="1026" on="1"/>
        <pt x="417" y="974" on="0"/>
        <pt x="536" y="974" on="1"/>
        <pt x="536" y="800" on="1"/>
        <pt x="338" y="800" on="0"/>
        <pt x="220" y="896" on="1"/>
        <pt x="96" y="997" on="0"/>
        <pt x="96" y="1178" on="1"/>
        <pt x="96" y="1319" on="0"/>
        <pt x="204" y="1437" on="1"/>
        <pt x="322" y="1567" on="0"/>
        <pt x="492" y="1567" on="1"/>
        <pt x="656" y="1568" on="0"/>
        <pt x="836" y="1408" on="1"/>
        <pt x="950" y="1307" on="0"/>
        <pt x="1081" y="1234" on="0"/>
        <pt x="1139" y="1227" on="1"/>
        <pt x="1108" y="1280" on="0"/>
        <pt x="1108" y="1389" on="0"/>
        <pt x="1126" y="1430" on="1"/>
        <pt x="1143" y="1472" on="0"/>
        <pt x="1173" y="1502" on="1"/>
        <pt x="1237" y="1568" on="0"/>
        <pt x="1331" y="1567" on="1"/>
        <pt x="1424" y="1567" on="0"/>
        <pt x="1555" y="1436" on="0"/>
        <pt x="1555" y="1272" on="0"/>
        <pt x="1488" y="1164" on="0"/>
      </contour>
      <contour>
        <pt x="1308" y="1397" on="0"/>
        <pt x="1277" y="1365" on="0"/>
        <pt x="1277" y="1320" on="0"/>
        <pt x="1308" y="1289" on="0"/>
        <pt x="1353" y="1289" on="0"/>
        <pt x="1385" y="1320" on="0"/>
        <pt x="1385" y="1365" on="0"/>
        <pt x="1353" y="1397" on="0"/>
      </contour>
      <contour>
        <pt x="584" y="1783" on="1"/>
        <pt x="945" y="2035" on="1"/>
        <pt x="1293" y="1783" on="1"/>
        <pt x="1190" y="1647" on="1"/>
        <pt x="945" y="1828" on="1"/>
        <pt x="916" y="1804" on="0"/>
        <pt x="872" y="1774" on="1"/>
        <pt x="687" y="1647" on="1"/>
      </contour>
    </TTGlyph>
    <TTGlyph name="Idieresis" xMin="96" yMin="-1" xMax="1555" yMax="2030">
      <contour>
        <pt x="1380" y="1089" on="0"/>
        <pt x="1245" y="1051" on="0"/>
        <pt x="1082" y="1051" on="0"/>
        <pt x="985" y="1092" on="1"/>
        <pt x="828" y="968" on="1"/>
        <pt x="851" y="916" on="0"/>
        <pt x="882" y="870" on="1"/>
        <pt x="1009" y="686" on="1"/>
        <pt x="1119" y="521" on="0"/>
        <pt x="1119" y="356" on="1"/>
        <pt x="1119" y="258" on="0"/>
        <pt x="1072" y="180" on="1"/>
        <pt x="1085" y="176" on="0"/>
        <pt x="1105" y="175" on="1"/>
        <pt x="1136" y="174" on="1"/>
        <pt x="1148" y="174" on="0"/>
        <pt x="1198" y="173" on="0"/>
        <pt x="1274" y="206" on="0"/>
        <pt x="1302" y="234" on="1"/>
        <pt x="1364" y="296" on="0"/>
        <pt x="1364" y="382" on="1"/>
        <pt x="1364" y="468" on="0"/>
        <pt x="1240" y="592" on="0"/>
        <pt x="1153" y="591" on="1"/>
        <pt x="1153" y="766" on="1"/>
        <pt x="1312" y="766" on="0"/>
        <pt x="1537" y="541" on="0"/>
        <pt x="1537" y="382" on="1"/>
        <pt x="1536" y="222" on="0"/>
        <pt x="1424" y="111" on="1"/>
        <pt x="1311" y="-1" on="0"/>
        <pt x="1153" y="-1" on="1"/>
        <pt x="958" y="-1" on="0"/>
        <pt x="756" y="157" on="1"/>
        <pt x="632" y="254" on="0"/>
        <pt x="484" y="315" on="0"/>
        <pt x="376" y="315" on="0"/>
        <pt x="348" y="305" on="1"/>
        <pt x="322" y="294" on="0"/>
        <pt x="304" y="280" on="1"/>
        <pt x="272" y="253" on="0"/>
        <pt x="271" y="201" on="0"/>
        <pt x="300" y="170" on="0"/>
        <pt x="323" y="170" on="1"/>
        <pt x="323" y="0" on="1"/>
        <pt x="230" y="0" on="0"/>
        <pt x="166" y="66" on="1"/>
        <pt x="101" y="132" on="0"/>
        <pt x="101" y="226" on="1"/>
        <pt x="100" y="330" on="0"/>
        <pt x="176" y="404" on="1"/>
        <pt x="264" y="490" on="0"/>
        <pt x="415" y="489" on="1"/>
        <pt x="621" y="488" on="0"/>
        <pt x="812" y="340" on="1"/>
        <pt x="917" y="261" on="1"/>
        <pt x="945" y="304" on="0"/>
        <pt x="945" y="427" on="0"/>
        <pt x="901" y="538" on="0"/>
        <pt x="835" y="636" on="0"/>
        <pt x="757" y="728" on="0"/>
        <pt x="724" y="781" on="1"/>
        <pt x="647" y="905" on="0"/>
        <pt x="647" y="1047" on="1"/>
        <pt x="824" y="1187" on="1"/>
        <pt x="792" y="1210" on="0"/>
        <pt x="752" y="1245" on="1"/>
        <pt x="714" y="1280" on="0"/>
        <pt x="670" y="1313" on="1"/>
        <pt x="565" y="1393" on="0"/>
        <pt x="441" y="1393" on="0"/>
        <pt x="400" y="1372" on="1"/>
        <pt x="358" y="1352" on="0"/>
        <pt x="330" y="1320" on="1"/>
        <pt x="270" y="1254" on="0"/>
        <pt x="271" y="1128" on="0"/>
        <pt x="310" y="1052" on="0"/>
        <pt x="346" y="1026" on="1"/>
        <pt x="417" y="974" on="0"/>
        <pt x="536" y="974" on="1"/>
        <pt x="536" y="800" on="1"/>
        <pt x="338" y="800" on="0"/>
        <pt x="220" y="896" on="1"/>
        <pt x="96" y="997" on="0"/>
        <pt x="96" y="1178" on="1"/>
        <pt x="96" y="1319" on="0"/>
        <pt x="204" y="1437" on="1"/>
        <pt x="322" y="1567" on="0"/>
        <pt x="492" y="1567" on="1"/>
        <pt x="656" y="1568" on="0"/>
        <pt x="836" y="1408" on="1"/>
        <pt x="950" y="1307" on="0"/>
        <pt x="1081" y="1234" on="0"/>
        <pt x="1139" y="1227" on="1"/>
        <pt x="1108" y="1280" on="0"/>
        <pt x="1108" y="1389" on="0"/>
        <pt x="1126" y="1430" on="1"/>
        <pt x="1143" y="1472" on="0"/>
        <pt x="1173" y="1502" on="1"/>
        <pt x="1237" y="1568" on="0"/>
        <pt x="1331" y="1567" on="1"/>
        <pt x="1424" y="1567" on="0"/>
        <pt x="1555" y="1436" on="0"/>
        <pt x="1555" y="1272" on="0"/>
        <pt x="1488" y="1164" on="0"/>
      </contour>
      <contour>
        <pt x="1308" y="1397" on="0"/>
        <pt x="1277" y="1365" on="0"/>
        <pt x="1277" y="1320" on="0"/>
        <pt x="1308" y="1289" on="0"/>
        <pt x="1353" y="1289" on="0"/>
        <pt x="1385" y="1320" on="0"/>
        <pt x="1385" y="1365" on="0"/>
        <pt x="1353" y="1397" on="0"/>
      </contour>
      <contour>
        <pt x="1180" y="1695" on="1"/>
        <pt x="1022" y="1748" on="1"/>
        <pt x="1140" y="2030" on="1"/>
        <pt x="1317" y="1959" on="1"/>
      </contour>
      <contour>
        <pt x="875" y="1695" on="1"/>
        <pt x="717" y="1748" on="1"/>
        <pt x="836" y="2030" on="1"/>
        <pt x="1013" y="1959" on="1"/>
      </contour>
    </TTGlyph>
    <TTGlyph name="Igrave" xMin="96" yMin="-1" xMax="1555" yMax="2033">
      <contour>
        <pt x="1380" y="1089" on="0"/>
        <pt x="1245" y="1051" on="0"/>
        <pt x="1082" y="1051" on="0"/>
        <pt x="985" y="1092" on="1"/>
        <pt x="828" y="968" on="1"/>
        <pt x="851" y="916" on="0"/>
        <pt x="882" y="870" on="1"/>
        <pt x="1009" y="686" on="1"/>
        <pt x="1119" y="521" on="0"/>
        <pt x="1119" y="356" on="1"/>
        <pt x="1119" y="258" on="0"/>
        <pt x="1072" y="180" on="1"/>
        <pt x="1085" y="176" on="0"/>
        <pt x="1105" y="175" on="1"/>
        <pt x="1136" y="174" on="1"/>
        <pt x="1148" y="174" on="0"/>
        <pt x="1198" y="173" on="0"/>
        <pt x="1274" y="206" on="0"/>
        <pt x="1302" y="234" on="1"/>
        <pt x="1364" y="296" on="0"/>
        <pt x="1364" y="382" on="1"/>
        <pt x="1364" y="468" on="0"/>
        <pt x="1240" y="592" on="0"/>
        <pt x="1153" y="591" on="1"/>
        <pt x="1153" y="766" on="1"/>
        <pt x="1312" y="766" on="0"/>
        <pt x="1537" y="541" on="0"/>
        <pt x="1537" y="382" on="1"/>
        <pt x="1536" y="222" on="0"/>
        <pt x="1424" y="111" on="1"/>
        <pt x="1311" y="-1" on="0"/>
        <pt x="1153" y="-1" on="1"/>
        <pt x="958" y="-1" on="0"/>
        <pt x="756" y="157" on="1"/>
        <pt x="632" y="254" on="0"/>
        <pt x="484" y="315" on="0"/>
        <pt x="376" y="315" on="0"/>
        <pt x="348" y="305" on="1"/>
        <pt x="322" y="294" on="0"/>
        <pt x="304" y="280" on="1"/>
        <pt x="272" y="253" on="0"/>
        <pt x="271" y="201" on="0"/>
        <pt x="300" y="170" on="0"/>
        <pt x="323" y="170" on="1"/>
        <pt x="323" y="0" on="1"/>
        <pt x="230" y="0" on="0"/>
        <pt x="166" y="66" on="1"/>
        <pt x="101" y="132" on="0"/>
        <pt x="101" y="226" on="1"/>
        <pt x="100" y="330" on="0"/>
        <pt x="176" y="404" on="1"/>
        <pt x="264" y="490" on="0"/>
        <pt x="415" y="489" on="1"/>
        <pt x="621" y="488" on="0"/>
        <pt x="812" y="340" on="1"/>
        <pt x="917" y="261" on="1"/>
        <pt x="945" y="304" on="0"/>
        <pt x="945" y="427" on="0"/>
        <pt x="901" y="538" on="0"/>
        <pt x="835" y="636" on="0"/>
        <pt x="757" y="728" on="0"/>
        <pt x="724" y="781" on="1"/>
        <pt x="647" y="905" on="0"/>
        <pt x="647" y="1047" on="1"/>
        <pt x="824" y="1187" on="1"/>
        <pt x="792" y="1210" on="0"/>
        <pt x="752" y="1245" on="1"/>
        <pt x="714" y="1280" on="0"/>
        <pt x="670" y="1313" on="1"/>
        <pt x="565" y="1393" on="0"/>
        <pt x="441" y="1393" on="0"/>
        <pt x="400" y="1372" on="1"/>
        <pt x="358" y="1352" on="0"/>
        <pt x="330" y="1320" on="1"/>
        <pt x="270" y="1254" on="0"/>
        <pt x="271" y="1128" on="0"/>
        <pt x="310" y="1052" on="0"/>
        <pt x="346" y="1026" on="1"/>
        <pt x="417" y="974" on="0"/>
        <pt x="536" y="974" on="1"/>
        <pt x="536" y="800" on="1"/>
        <pt x="338" y="800" on="0"/>
        <pt x="220" y="896" on="1"/>
        <pt x="96" y="997" on="0"/>
        <pt x="96" y="1178" on="1"/>
        <pt x="96" y="1319" on="0"/>
        <pt x="204" y="1437" on="1"/>
        <pt x="322" y="1567" on="0"/>
        <pt x="492" y="1567" on="1"/>
        <pt x="656" y="1568" on="0"/>
        <pt x="836" y="1408" on="1"/>
        <pt x="950" y="1307" on="0"/>
        <pt x="1081" y="1234" on="0"/>
        <pt x="1139" y="1227" on="1"/>
        <pt x="1108" y="1280" on="0"/>
        <pt x="1108" y="1389" on="0"/>
        <pt x="1126" y="1430" on="1"/>
        <pt x="1143" y="1472" on="0"/>
        <pt x="1173" y="1502" on="1"/>
        <pt x="1237" y="1568" on="0"/>
        <pt x="1331" y="1567" on="1"/>
        <pt x="1424" y="1567" on="0"/>
        <pt x="1555" y="1436" on="0"/>
        <pt x="1555" y="1272" on="0"/>
        <pt x="1488" y="1164" on="0"/>
      </contour>
      <contour>
        <pt x="1308" y="1397" on="0"/>
        <pt x="1277" y="1365" on="0"/>
        <pt x="1277" y="1320" on="0"/>
        <pt x="1308" y="1289" on="0"/>
        <pt x="1353" y="1289" on="0"/>
        <pt x="1385" y="1320" on="0"/>
        <pt x="1385" y="1365" on="0"/>
        <pt x="1353" y="1397" on="0"/>
      </contour>
      <contour>
        <pt x="547" y="1875" on="1"/>
        <pt x="663" y="2033" on="1"/>
        <pt x="1011" y="1779" on="1"/>
        <pt x="920" y="1636" on="1"/>
      </contour>
    </TTGlyph>
    <TTGlyph name="J" xMin="24" yMin="-255" xMax="1684" yMax="1567">
      <contour>
        <pt x="1125" y="802" on="1"/>
        <pt x="1215" y="888" on="0"/>
        <pt x="1215" y="950" on="1"/>
        <pt x="1214" y="1010" on="0"/>
        <pt x="1130" y="1094" on="0"/>
        <pt x="1071" y="1093" on="1"/>
        <pt x="1012" y="1093" on="0"/>
        <pt x="929" y="1010" on="0"/>
        <pt x="929" y="902" on="0"/>
        <pt x="960" y="811" on="0"/>
        <pt x="1012" y="722" on="0"/>
        <pt x="1045" y="679" on="1"/>
        <pt x="1113" y="592" on="1"/>
        <pt x="1112" y="592" on="1"/>
        <pt x="1196" y="484" on="1"/>
        <pt x="1344" y="287" on="0"/>
        <pt x="1345" y="94" on="1"/>
        <pt x="1345" y="-52" on="0"/>
        <pt x="1248" y="-149" on="1"/>
        <pt x="1142" y="-255" on="0"/>
        <pt x="970" y="-255" on="1"/>
        <pt x="768" y="-256" on="0"/>
        <pt x="644" y="-94" on="1"/>
        <pt x="585" y="-17" on="0"/>
        <pt x="496" y="151" on="0"/>
        <pt x="469" y="192" on="1"/>
        <pt x="456" y="108" on="0"/>
        <pt x="394" y="54" on="1"/>
        <pt x="331" y="0" on="0"/>
        <pt x="246" y="0" on="1"/>
        <pt x="153" y="0" on="0"/>
        <pt x="89" y="66" on="1"/>
        <pt x="24" y="132" on="0"/>
        <pt x="24" y="226" on="1"/>
        <pt x="24" y="244" on="1"/>
        <pt x="30" y="335" on="0"/>
        <pt x="101" y="396" on="1"/>
        <pt x="178" y="462" on="0"/>
        <pt x="300" y="462" on="1"/>
        <pt x="487" y="462" on="0"/>
        <pt x="603" y="290" on="1"/>
        <pt x="636" y="240" on="0"/>
        <pt x="666" y="190" on="1"/>
        <pt x="726" y="91" on="1"/>
        <pt x="830" y="-81" on="0"/>
        <pt x="973" y="-81" on="1"/>
        <pt x="1062" y="-82" on="0"/>
        <pt x="1118" y="-28" on="1"/>
        <pt x="1170" y="21" on="0"/>
        <pt x="1170" y="150" on="0"/>
        <pt x="1136" y="252" on="0"/>
        <pt x="1081" y="349" on="0"/>
        <pt x="1046" y="395" on="1"/>
        <pt x="894" y="590" on="1"/>
        <pt x="807" y="705" on="0"/>
        <pt x="755" y="879" on="0"/>
        <pt x="755" y="1039" on="0"/>
        <pt x="835" y="1181" on="0"/>
        <pt x="907" y="1223" on="1"/>
        <pt x="841" y="1278" on="1"/>
        <pt x="705" y="1392" on="0"/>
        <pt x="621" y="1393" on="1"/>
        <pt x="526" y="1392" on="0"/>
        <pt x="460" y="1320" on="1"/>
        <pt x="400" y="1254" on="0"/>
        <pt x="400" y="1128" on="0"/>
        <pt x="420" y="1090" on="1"/>
        <pt x="438" y="1052" on="0"/>
        <pt x="474" y="1026" on="1"/>
        <pt x="545" y="974" on="0"/>
        <pt x="665" y="974" on="1"/>
        <pt x="665" y="800" on="1"/>
        <pt x="468" y="800" on="0"/>
        <pt x="350" y="896" on="1"/>
        <pt x="226" y="997" on="0"/>
        <pt x="225" y="1178" on="1"/>
        <pt x="224" y="1319" on="0"/>
        <pt x="332" y="1437" on="1"/>
        <pt x="450" y="1567" on="0"/>
        <pt x="621" y="1567" on="1"/>
        <pt x="785" y="1568" on="0"/>
        <pt x="965" y="1408" on="1"/>
        <pt x="1079" y="1307" on="0"/>
        <pt x="1210" y="1234" on="0"/>
        <pt x="1268" y="1227" on="1"/>
        <pt x="1237" y="1280" on="0"/>
        <pt x="1237" y="1389" on="0"/>
        <pt x="1254" y="1430" on="1"/>
        <pt x="1272" y="1472" on="0"/>
        <pt x="1302" y="1502" on="1"/>
        <pt x="1366" y="1568" on="0"/>
        <pt x="1460" y="1567" on="1"/>
        <pt x="1553" y="1567" on="0"/>
        <pt x="1684" y="1436" on="0"/>
        <pt x="1684" y="1281" on="0"/>
        <pt x="1658" y="1231" on="1"/>
        <pt x="1632" y="1181" on="0"/>
        <pt x="1588" y="1145" on="1"/>
        <pt x="1500" y="1072" on="0"/>
        <pt x="1371" y="1055" on="1"/>
        <pt x="1389" y="997" on="0"/>
        <pt x="1389" y="881" on="0"/>
        <pt x="1311" y="740" on="0"/>
        <pt x="1243" y="676" on="1"/>
      </contour>
      <contour>
        <pt x="225" y="278" on="0"/>
        <pt x="194" y="246" on="0"/>
        <pt x="194" y="201" on="0"/>
        <pt x="225" y="170" on="0"/>
        <pt x="270" y="170" on="0"/>
        <pt x="302" y="201" on="0"/>
        <pt x="302" y="246" on="0"/>
        <pt x="270" y="278" on="0"/>
      </contour>
      <contour>
        <pt x="1437" y="1397" on="0"/>
        <pt x="1406" y="1365" on="0"/>
        <pt x="1406" y="1320" on="0"/>
        <pt x="1437" y="1289" on="0"/>
        <pt x="1482" y="1289" on="0"/>
        <pt x="1514" y="1320" on="0"/>
        <pt x="1514" y="1365" on="0"/>
        <pt x="1482" y="1397" on="0"/>
      </contour>
    </TTGlyph>
    <TTGlyph name="K" xMin="34" yMin="-44" xMax="1393" yMax="1567">
      <contour>
        <pt x="737" y="670" on="1"/>
        <pt x="805" y="548" on="0"/>
        <pt x="805" y="327" on="0"/>
        <pt x="752" y="172" on="0"/>
        <pt x="701" y="116" on="1"/>
        <pt x="594" y="-1" on="0"/>
        <pt x="401" y="0" on="1"/>
        <pt x="265" y="0" on="0"/>
        <pt x="158" y="89" on="1"/>
        <pt x="34" y="192" on="0"/>
        <pt x="34" y="369" on="1"/>
        <pt x="34" y="494" on="0"/>
        <pt x="114" y="567" on="1"/>
        <pt x="184" y="631" on="0"/>
        <pt x="274" y="631" on="1"/>
        <pt x="360" y="630" on="0"/>
        <pt x="422" y="550" on="1"/>
        <pt x="484" y="469" on="0"/>
        <pt x="484" y="356" on="1"/>
        <pt x="310" y="356" on="1"/>
        <pt x="310" y="397" on="0"/>
        <pt x="288" y="456" on="0"/>
        <pt x="274" y="456" on="1"/>
        <pt x="251" y="456" on="0"/>
        <pt x="209" y="414" on="0"/>
        <pt x="209" y="319" on="0"/>
        <pt x="228" y="282" on="1"/>
        <pt x="248" y="246" on="0"/>
        <pt x="276" y="222" on="1"/>
        <pt x="333" y="174" on="0"/>
        <pt x="455" y="174" on="0"/>
        <pt x="540" y="210" on="0"/>
        <pt x="570" y="242" on="1"/>
        <pt x="632" y="310" on="0"/>
        <pt x="631" y="420" on="1"/>
        <pt x="630" y="526" on="0"/>
        <pt x="538" y="656" on="1"/>
        <pt x="485" y="731" on="1"/>
        <pt x="486" y="731" on="1"/>
        <pt x="418" y="826" on="1"/>
        <pt x="300" y="998" on="0"/>
        <pt x="299" y="1170" on="1"/>
        <pt x="298" y="1367" on="0"/>
        <pt x="414" y="1471" on="1"/>
        <pt x="521" y="1567" on="0"/>
        <pt x="708" y="1567" on="1"/>
        <pt x="854" y="1567" on="0"/>
        <pt x="952" y="1486" on="1"/>
        <pt x="1055" y="1401" on="0"/>
        <pt x="1055" y="1261" on="1"/>
        <pt x="1055" y="1191" on="0"/>
        <pt x="1015" y="1115" on="1"/>
        <pt x="1075" y="1163" on="1"/>
        <pt x="1128" y="1207" on="0"/>
        <pt x="1128" y="1267" on="1"/>
        <pt x="1128" y="1297" on="0"/>
        <pt x="1088" y="1390" on="1"/>
        <pt x="1249" y="1456" on="1"/>
        <pt x="1303" y="1333" on="0"/>
        <pt x="1303" y="1225" on="0"/>
        <pt x="1280" y="1151" on="0"/>
        <pt x="1262" y="1120" on="1"/>
        <pt x="1231" y="1065" on="0"/>
        <pt x="1199" y="1038" on="1"/>
        <pt x="1168" y="1011" on="0"/>
        <pt x="1148" y="996" on="1"/>
        <pt x="1108" y="966" on="1"/>
        <pt x="1139" y="920" on="0"/>
        <pt x="1150" y="849" on="1"/>
        <pt x="1235" y="294" on="1"/>
        <pt x="1252" y="181" on="0"/>
        <pt x="1393" y="114" on="1"/>
        <pt x="1318" y="-44" on="1"/>
        <pt x="1099" y="56" on="0"/>
        <pt x="1062" y="268" on="1"/>
        <pt x="978" y="823" on="1"/>
        <pt x="975" y="844" on="0"/>
        <pt x="971" y="856" on="1"/>
      </contour>
      <contour>
        <pt x="638" y="815" on="1"/>
        <pt x="777" y="925" on="1"/>
        <pt x="700" y="1025" on="1"/>
        <pt x="758" y="1074" on="1"/>
        <pt x="880" y="1177" on="0"/>
        <pt x="881" y="1263" on="1"/>
        <pt x="882" y="1353" on="0"/>
        <pt x="774" y="1384" on="1"/>
        <pt x="742" y="1393" on="0"/>
        <pt x="655" y="1393" on="0"/>
        <pt x="568" y="1364" on="0"/>
        <pt x="537" y="1336" on="1"/>
        <pt x="473" y="1277" on="0"/>
        <pt x="473" y="1167" on="1"/>
        <pt x="472" y="1045" on="0"/>
        <pt x="570" y="907" on="1"/>
        <pt x="626" y="831" on="1"/>
        <pt x="631" y="823" on="0"/>
        <pt x="633" y="823" on="1"/>
      </contour>
      <contour>
        <pt x="971" y="856" on="1"/>
        <pt x="970" y="856" on="1"/>
      </contour>
    </TTGlyph>
    <TTGlyph name="L" xMin="53" yMin="-1" xMax="1489" yMax="1568">
      <contour>
        <pt x="248" y="473" on="1"/>
        <pt x="212" y="528" on="0"/>
        <pt x="212" y="642" on="0"/>
        <pt x="244" y="720" on="0"/>
        <pt x="272" y="750" on="1"/>
        <pt x="331" y="813" on="0"/>
        <pt x="420" y="819" on="1"/>
        <pt x="377" y="891" on="1"/>
        <pt x="298" y="1020" on="0"/>
        <pt x="298" y="1166" on="1"/>
        <pt x="298" y="1340" on="0"/>
        <pt x="420" y="1453" on="1"/>
        <pt x="545" y="1568" on="0"/>
        <pt x="743" y="1568" on="1"/>
        <pt x="936" y="1568" on="0"/>
        <pt x="1048" y="1424" on="1"/>
        <pt x="1148" y="1295" on="0"/>
        <pt x="1148" y="1105" on="1"/>
        <pt x="973" y="1105" on="1"/>
        <pt x="974" y="1222" on="0"/>
        <pt x="916" y="1304" on="1"/>
        <pt x="852" y="1394" on="0"/>
        <pt x="743" y="1394" on="1"/>
        <pt x="622" y="1394" on="0"/>
        <pt x="546" y="1330" on="1"/>
        <pt x="472" y="1266" on="0"/>
        <pt x="472" y="1166" on="1"/>
        <pt x="472" y="1084" on="0"/>
        <pt x="521" y="988" on="1"/>
        <pt x="542" y="946" on="0"/>
        <pt x="590" y="862" on="0"/>
        <pt x="611" y="816" on="1"/>
        <pt x="660" y="708" on="0"/>
        <pt x="660" y="502" on="0"/>
        <pt x="593" y="437" on="1"/>
        <pt x="663" y="403" on="0"/>
        <pt x="733" y="351" on="1"/>
        <pt x="841" y="271" on="1"/>
        <pt x="977" y="173" on="0"/>
        <pt x="1107" y="173" on="1"/>
        <pt x="1193" y="173" on="0"/>
        <pt x="1316" y="296" on="0"/>
        <pt x="1316" y="382" on="1"/>
        <pt x="1316" y="468" on="0"/>
        <pt x="1192" y="592" on="0"/>
        <pt x="1105" y="591" on="1"/>
        <pt x="1105" y="766" on="1"/>
        <pt x="1264" y="766" on="0"/>
        <pt x="1489" y="541" on="0"/>
        <pt x="1489" y="382" on="1"/>
        <pt x="1488" y="222" on="0"/>
        <pt x="1376" y="111" on="1"/>
        <pt x="1263" y="-1" on="0"/>
        <pt x="1105" y="-1" on="1"/>
        <pt x="893" y="-1" on="0"/>
        <pt x="696" y="157" on="1"/>
        <pt x="575" y="254" on="0"/>
        <pt x="434" y="315" on="0"/>
        <pt x="328" y="315" on="0"/>
        <pt x="300" y="305" on="1"/>
        <pt x="274" y="294" on="0"/>
        <pt x="256" y="280" on="1"/>
        <pt x="224" y="253" on="0"/>
        <pt x="223" y="201" on="0"/>
        <pt x="252" y="170" on="0"/>
        <pt x="275" y="170" on="1"/>
        <pt x="275" y="0" on="1"/>
        <pt x="182" y="0" on="0"/>
        <pt x="118" y="66" on="1"/>
        <pt x="53" y="132" on="0"/>
        <pt x="53" y="226" on="1"/>
        <pt x="53" y="352" on="0"/>
        <pt x="161" y="431" on="1"/>
        <pt x="198" y="458" on="0"/>
      </contour>
      <contour>
        <pt x="413" y="650" on="0"/>
        <pt x="382" y="618" on="0"/>
        <pt x="382" y="573" on="0"/>
        <pt x="413" y="542" on="0"/>
        <pt x="458" y="542" on="0"/>
        <pt x="490" y="573" on="0"/>
        <pt x="490" y="618" on="0"/>
        <pt x="458" y="650" on="0"/>
      </contour>
    </TTGlyph>
    <TTGlyph name="M" xMin="29" yMin="-40" xMax="2293" yMax="1567">
      <contour>
        <pt x="1031" y="143" on="1"/>
        <pt x="953" y="143" on="0"/>
        <pt x="821" y="-33" on="1"/>
        <pt x="696" y="62" on="1"/>
        <pt x="784" y="200" on="0"/>
        <pt x="886" y="267" on="1"/>
        <pt x="962" y="318" on="0"/>
        <pt x="1031" y="318" on="1"/>
        <pt x="1151" y="318" on="0"/>
        <pt x="1182" y="220" on="1"/>
        <pt x="1344" y="486" on="0"/>
        <pt x="1394" y="808" on="1"/>
        <pt x="1408" y="902" on="0"/>
        <pt x="1408" y="1087" on="0"/>
        <pt x="1401" y="1164" on="1"/>
        <pt x="1394" y="1242" on="0"/>
        <pt x="1376" y="1292" on="1"/>
        <pt x="1341" y="1392" on="0"/>
        <pt x="1255" y="1392" on="1"/>
        <pt x="1134" y="1392" on="0"/>
        <pt x="1006" y="1254" on="1"/>
        <pt x="970" y="1216" on="0"/>
        <pt x="940" y="1179" on="1"/>
        <pt x="971" y="1076" on="0"/>
        <pt x="971" y="905" on="0"/>
        <pt x="958" y="783" on="0"/>
        <pt x="924" y="644" on="0"/>
        <pt x="865" y="486" on="0"/>
        <pt x="819" y="394" on="1"/>
        <pt x="722" y="201" on="0"/>
        <pt x="557" y="-28" on="1"/>
        <pt x="438" y="18" on="1"/>
        <pt x="438" y="85" on="0"/>
        <pt x="401" y="143" on="0"/>
        <pt x="375" y="143" on="1"/>
        <pt x="307" y="143" on="0"/>
        <pt x="167" y="-40" on="1"/>
        <pt x="29" y="65" on="1"/>
        <pt x="220" y="318" on="0"/>
        <pt x="377" y="318" on="1"/>
        <pt x="492" y="318" on="0"/>
        <pt x="529" y="223" on="1"/>
        <pt x="797" y="623" on="0"/>
        <pt x="797" y="960" on="1"/>
        <pt x="797" y="1142" on="0"/>
        <pt x="707" y="1272" on="1"/>
        <pt x="622" y="1394" on="0"/>
        <pt x="514" y="1393" on="1"/>
        <pt x="431" y="1393" on="0"/>
        <pt x="348" y="1318" on="0"/>
        <pt x="348" y="1216" on="0"/>
        <pt x="388" y="1149" on="0"/>
        <pt x="447" y="1087" on="0"/>
        <pt x="516" y="1024" on="0"/>
        <pt x="546" y="986" on="1"/>
        <pt x="616" y="896" on="0"/>
        <pt x="615" y="792" on="1"/>
        <pt x="615" y="697" on="0"/>
        <pt x="484" y="566" on="0"/>
        <pt x="389" y="566" on="1"/>
        <pt x="296" y="566" on="0"/>
        <pt x="232" y="632" on="1"/>
        <pt x="167" y="698" on="0"/>
        <pt x="167" y="792" on="1"/>
        <pt x="167" y="902" on="0"/>
        <pt x="256" y="970" on="1"/>
        <pt x="283" y="990" on="0"/>
        <pt x="316" y="1002" on="1"/>
        <pt x="248" y="1052" on="0"/>
        <pt x="223" y="1089" on="1"/>
        <pt x="173" y="1163" on="0"/>
        <pt x="173" y="1326" on="0"/>
        <pt x="195" y="1382" on="1"/>
        <pt x="218" y="1439" on="0"/>
        <pt x="260" y="1480" on="1"/>
        <pt x="350" y="1567" on="0"/>
        <pt x="514" y="1567" on="1"/>
        <pt x="612" y="1567" on="0"/>
        <pt x="792" y="1465" on="0"/>
        <pt x="858" y="1371" on="1"/>
        <pt x="1039" y="1567" on="0"/>
        <pt x="1255" y="1567" on="1"/>
        <pt x="1348" y="1567" on="0"/>
        <pt x="1460" y="1507" on="0"/>
        <pt x="1499" y="1442" on="1"/>
        <pt x="1568" y="1503" on="0"/>
        <pt x="1610" y="1525" on="1"/>
        <pt x="1693" y="1567" on="0"/>
        <pt x="1871" y="1567" on="0"/>
        <pt x="1984" y="1461" on="0"/>
        <pt x="1999" y="1369" on="1"/>
        <pt x="2014" y="1267" on="0"/>
        <pt x="2055" y="1209" on="0"/>
        <pt x="2077" y="1203" on="1"/>
        <pt x="2118" y="1239" on="0"/>
        <pt x="2118" y="1327" on="1"/>
        <pt x="2293" y="1327" on="1"/>
        <pt x="2292" y="1156" on="0"/>
        <pt x="2178" y="1064" on="1"/>
        <pt x="2101" y="1004" on="1"/>
        <pt x="1960" y="899" on="0"/>
        <pt x="1908" y="698" on="1"/>
        <pt x="1890" y="626" on="0"/>
        <pt x="1890" y="439" on="0"/>
        <pt x="1917" y="369" on="1"/>
        <pt x="1944" y="300" on="0"/>
        <pt x="1986" y="256" on="1"/>
        <pt x="2066" y="174" on="0"/>
        <pt x="2180" y="174" on="1"/>
        <pt x="2180" y="0" on="1"/>
        <pt x="1999" y="0" on="0"/>
        <pt x="1870" y="123" on="1"/>
        <pt x="1715" y="271" on="0"/>
        <pt x="1715" y="549" on="1"/>
        <pt x="1715" y="880" on="0"/>
        <pt x="1938" y="1093" on="1"/>
        <pt x="1890" y="1125" on="0"/>
        <pt x="1854" y="1217" on="0"/>
        <pt x="1848" y="1247" on="1"/>
        <pt x="1835" y="1304" on="1"/>
        <pt x="1824" y="1355" on="0"/>
        <pt x="1788" y="1392" on="0"/>
        <pt x="1750" y="1392" on="1"/>
        <pt x="1677" y="1392" on="0"/>
        <pt x="1560" y="1263" on="1"/>
        <pt x="1582" y="1131" on="0"/>
        <pt x="1582" y="875" on="0"/>
        <pt x="1564" y="756" on="1"/>
        <pt x="1546" y="638" on="0"/>
        <pt x="1502" y="508" on="1"/>
        <pt x="1406" y="221" on="0"/>
        <pt x="1209" y="-28" on="1"/>
        <pt x="1089" y="17" on="1"/>
        <pt x="1089" y="143" on="0"/>
      </contour>
      <contour>
        <pt x="368" y="844" on="0"/>
        <pt x="337" y="812" on="0"/>
        <pt x="337" y="767" on="0"/>
        <pt x="368" y="736" on="0"/>
        <pt x="413" y="736" on="0"/>
        <pt x="445" y="767" on="0"/>
        <pt x="445" y="812" on="0"/>
        <pt x="413" y="844" on="0"/>
      </contour>
    </TTGlyph>
    <TTGlyph name="N" xMin="39" yMin="-29" xMax="1710" yMax="1568">
      <contour>
        <pt x="384" y="318" on="1"/>
        <pt x="490" y="318" on="0"/>
        <pt x="539" y="232" on="1"/>
        <pt x="804" y="628" on="0"/>
        <pt x="804" y="960" on="1"/>
        <pt x="804" y="1147" on="0"/>
        <pt x="716" y="1272" on="1"/>
        <pt x="630" y="1393" on="0"/>
        <pt x="504" y="1393" on="1"/>
        <pt x="423" y="1393" on="0"/>
        <pt x="341" y="1318" on="0"/>
        <pt x="341" y="1216" on="0"/>
        <pt x="381" y="1149" on="0"/>
        <pt x="440" y="1087" on="0"/>
        <pt x="474" y="1056" on="1"/>
        <pt x="508" y="1024" on="0"/>
        <pt x="538" y="986" on="1"/>
        <pt x="608" y="896" on="0"/>
        <pt x="608" y="792" on="1"/>
        <pt x="608" y="697" on="0"/>
        <pt x="477" y="566" on="0"/>
        <pt x="382" y="566" on="1"/>
        <pt x="289" y="566" on="0"/>
        <pt x="225" y="632" on="1"/>
        <pt x="160" y="698" on="0"/>
        <pt x="160" y="792" on="1"/>
        <pt x="160" y="902" on="0"/>
        <pt x="249" y="970" on="1"/>
        <pt x="276" y="990" on="0"/>
        <pt x="309" y="1002" on="1"/>
        <pt x="241" y="1052" on="0"/>
        <pt x="216" y="1089" on="1"/>
        <pt x="166" y="1163" on="0"/>
        <pt x="166" y="1326" on="0"/>
        <pt x="209" y="1439" on="0"/>
        <pt x="252" y="1480" on="1"/>
        <pt x="343" y="1567" on="0"/>
        <pt x="504" y="1567" on="1"/>
        <pt x="776" y="1567" on="0"/>
        <pt x="921" y="1254" on="1"/>
        <pt x="1145" y="763" on="1"/>
        <pt x="1183" y="997" on="0"/>
        <pt x="1366" y="1220" on="1"/>
        <pt x="1474" y="1351" on="0"/>
        <pt x="1536" y="1499" on="0"/>
        <pt x="1536" y="1568" on="1"/>
        <pt x="1710" y="1568" on="1"/>
        <pt x="1710" y="1386" on="0"/>
        <pt x="1582" y="1225" on="1"/>
        <pt x="1508" y="1132" on="1"/>
        <pt x="1409" y="1007" on="0"/>
        <pt x="1376" y="931" on="1"/>
        <pt x="1307" y="777" on="0"/>
        <pt x="1307" y="479" on="0"/>
        <pt x="1334" y="396" on="1"/>
        <pt x="1362" y="314" on="0"/>
        <pt x="1404" y="264" on="1"/>
        <pt x="1482" y="174" on="0"/>
        <pt x="1597" y="174" on="1"/>
        <pt x="1597" y="0" on="1"/>
        <pt x="1394" y="0" on="0"/>
        <pt x="1268" y="136" on="1"/>
        <pt x="1222" y="185" on="0"/>
        <pt x="1189" y="256" on="1"/>
        <pt x="959" y="757" on="1"/>
        <pt x="898" y="432" on="0"/>
        <pt x="564" y="-28" on="1"/>
        <pt x="445" y="18" on="1"/>
        <pt x="446" y="113" on="0"/>
        <pt x="416" y="134" on="1"/>
        <pt x="404" y="143" on="0"/>
        <pt x="382" y="143" on="1"/>
        <pt x="309" y="143" on="0"/>
        <pt x="178" y="-29" on="1"/>
        <pt x="39" y="77" on="1"/>
        <pt x="192" y="279" on="0"/>
        <pt x="314" y="309" on="1"/>
        <pt x="350" y="318" on="0"/>
      </contour>
      <contour>
        <pt x="361" y="844" on="0"/>
        <pt x="330" y="812" on="0"/>
        <pt x="330" y="767" on="0"/>
        <pt x="361" y="736" on="0"/>
        <pt x="406" y="736" on="0"/>
        <pt x="438" y="767" on="0"/>
        <pt x="438" y="812" on="0"/>
        <pt x="406" y="844" on="0"/>
      </contour>
    </TTGlyph>
    <TTGlyph name="Ntilde" xMin="39" yMin="-29" xMax="1710" yMax="1993">
      <contour>
        <pt x="384" y="318" on="1"/>
        <pt x="490" y="318" on="0"/>
        <pt x="539" y="232" on="1"/>
        <pt x="804" y="628" on="0"/>
        <pt x="804" y="960" on="1"/>
        <pt x="804" y="1147" on="0"/>
        <pt x="716" y="1272" on="1"/>
        <pt x="630" y="1393" on="0"/>
        <pt x="504" y="1393" on="1"/>
        <pt x="423" y="1393" on="0"/>
        <pt x="341" y="1318" on="0"/>
        <pt x="341" y="1216" on="0"/>
        <pt x="381" y="1149" on="0"/>
        <pt x="440" y="1087" on="0"/>
        <pt x="474" y="1056" on="1"/>
        <pt x="508" y="1024" on="0"/>
        <pt x="538" y="986" on="1"/>
        <pt x="608" y="896" on="0"/>
        <pt x="608" y="792" on="1"/>
        <pt x="608" y="697" on="0"/>
        <pt x="477" y="566" on="0"/>
        <pt x="382" y="566" on="1"/>
        <pt x="289" y="566" on="0"/>
        <pt x="225" y="632" on="1"/>
        <pt x="160" y="698" on="0"/>
        <pt x="160" y="792" on="1"/>
        <pt x="160" y="902" on="0"/>
        <pt x="249" y="970" on="1"/>
        <pt x="276" y="990" on="0"/>
        <pt x="309" y="1002" on="1"/>
        <pt x="241" y="1052" on="0"/>
        <pt x="216" y="1089" on="1"/>
        <pt x="166" y="1163" on="0"/>
        <pt x="166" y="1326" on="0"/>
        <pt x="209" y="1439" on="0"/>
        <pt x="252" y="1480" on="1"/>
        <pt x="343" y="1567" on="0"/>
        <pt x="504" y="1567" on="1"/>
        <pt x="776" y="1567" on="0"/>
        <pt x="921" y="1254" on="1"/>
        <pt x="1145" y="763" on="1"/>
        <pt x="1183" y="997" on="0"/>
        <pt x="1366" y="1220" on="1"/>
        <pt x="1474" y="1351" on="0"/>
        <pt x="1536" y="1499" on="0"/>
        <pt x="1536" y="1568" on="1"/>
        <pt x="1710" y="1568" on="1"/>
        <pt x="1710" y="1386" on="0"/>
        <pt x="1582" y="1225" on="1"/>
        <pt x="1508" y="1132" on="1"/>
        <pt x="1409" y="1007" on="0"/>
        <pt x="1376" y="931" on="1"/>
        <pt x="1307" y="777" on="0"/>
        <pt x="1307" y="479" on="0"/>
        <pt x="1334" y="396" on="1"/>
        <pt x="1362" y="314" on="0"/>
        <pt x="1404" y="264" on="1"/>
        <pt x="1482" y="174" on="0"/>
        <pt x="1597" y="174" on="1"/>
        <pt x="1597" y="0" on="1"/>
        <pt x="1394" y="0" on="0"/>
        <pt x="1268" y="136" on="1"/>
        <pt x="1222" y="185" on="0"/>
        <pt x="1189" y="256" on="1"/>
        <pt x="959" y="757" on="1"/>
        <pt x="898" y="432" on="0"/>
        <pt x="564" y="-28" on="1"/>
        <pt x="445" y="18" on="1"/>
        <pt x="446" y="113" on="0"/>
        <pt x="416" y="134" on="1"/>
        <pt x="404" y="143" on="0"/>
        <pt x="382" y="143" on="1"/>
        <pt x="309" y="143" on="0"/>
        <pt x="178" y="-29" on="1"/>
        <pt x="39" y="77" on="1"/>
        <pt x="192" y="279" on="0"/>
        <pt x="314" y="309" on="1"/>
        <pt x="350" y="318" on="0"/>
      </contour>
      <contour>
        <pt x="361" y="844" on="0"/>
        <pt x="330" y="812" on="0"/>
        <pt x="330" y="767" on="0"/>
        <pt x="361" y="736" on="0"/>
        <pt x="406" y="736" on="0"/>
        <pt x="438" y="767" on="0"/>
        <pt x="438" y="812" on="0"/>
        <pt x="406" y="844" on="0"/>
      </contour>
      <contour>
        <pt x="1112" y="1803" on="1"/>
        <pt x="1026" y="1803" on="0"/>
        <pt x="953" y="1662" on="1"/>
        <pt x="804" y="1746" on="1"/>
        <pt x="890" y="1906" on="0"/>
        <pt x="1008" y="1957" on="1"/>
        <pt x="1048" y="1974" on="0"/>
        <pt x="1128" y="1974" on="0"/>
        <pt x="1194" y="1934" on="0"/>
        <pt x="1222" y="1910" on="1"/>
        <pt x="1274" y="1866" on="1"/>
        <pt x="1299" y="1846" on="0"/>
        <pt x="1345" y="1846" on="0"/>
        <pt x="1365" y="1858" on="1"/>
        <pt x="1385" y="1872" on="0"/>
        <pt x="1404" y="1892" on="1"/>
        <pt x="1441" y="1932" on="0"/>
        <pt x="1474" y="1993" on="1"/>
        <pt x="1623" y="1910" on="1"/>
        <pt x="1538" y="1758" on="0"/>
        <pt x="1420" y="1695" on="1"/>
        <pt x="1382" y="1675" on="0"/>
        <pt x="1305" y="1675" on="0"/>
        <pt x="1237" y="1715" on="0"/>
        <pt x="1209" y="1739" on="1"/>
        <pt x="1158" y="1783" on="1"/>
        <pt x="1135" y="1803" on="0"/>
      </contour>
    </TTGlyph>
    <TTGlyph name="O" xMin="24" yMin="0" xMax="1576" yMax="1568">
      <contour>
        <pt x="194" y="714" on="1"/>
        <pt x="194" y="676" on="0"/>
        <pt x="246" y="624" on="0"/>
        <pt x="284" y="624" on="1"/>
        <pt x="322" y="624" on="0"/>
        <pt x="375" y="676" on="0"/>
        <pt x="375" y="759" on="0"/>
        <pt x="347" y="828" on="0"/>
        <pt x="304" y="891" on="0"/>
        <pt x="280" y="922" on="1"/>
        <pt x="256" y="952" on="0"/>
        <pt x="234" y="988" on="1"/>
        <pt x="184" y="1070" on="0"/>
        <pt x="184" y="1268" on="0"/>
        <pt x="270" y="1417" on="0"/>
        <pt x="349" y="1467" on="1"/>
        <pt x="509" y="1568" on="0"/>
        <pt x="787" y="1568" on="1"/>
        <pt x="1002" y="1568" on="0"/>
        <pt x="1185" y="1462" on="1"/>
        <pt x="1364" y="1358" on="0"/>
        <pt x="1468" y="1182" on="1"/>
        <pt x="1576" y="1000" on="0"/>
        <pt x="1576" y="786" on="1"/>
        <pt x="1576" y="572" on="0"/>
        <pt x="1469" y="389" on="1"/>
        <pt x="1365" y="211" on="0"/>
        <pt x="1187" y="107" on="1"/>
        <pt x="1004" y="0" on="0"/>
        <pt x="790" y="0" on="1"/>
        <pt x="526" y="0" on="0"/>
        <pt x="308" y="176" on="1"/>
        <pt x="238" y="232" on="0"/>
        <pt x="181" y="301" on="1"/>
        <pt x="318" y="412" on="1"/>
        <pt x="411" y="302" on="0"/>
        <pt x="653" y="174" on="0"/>
        <pt x="874" y="174" on="0"/>
        <pt x="1030" y="218" on="0"/>
        <pt x="1166" y="297" on="0"/>
        <pt x="1278" y="409" on="0"/>
        <pt x="1318" y="477" on="1"/>
        <pt x="1402" y="620" on="0"/>
        <pt x="1402" y="913" on="0"/>
        <pt x="1354" y="1024" on="1"/>
        <pt x="1306" y="1134" on="0"/>
        <pt x="1222" y="1216" on="1"/>
        <pt x="1042" y="1394" on="0"/>
        <pt x="787" y="1394" on="1"/>
        <pt x="478" y="1394" on="0"/>
        <pt x="389" y="1273" on="1"/>
        <pt x="358" y="1231" on="0"/>
        <pt x="358" y="1129" on="0"/>
        <pt x="386" y="1061" on="0"/>
        <pt x="428" y="1001" on="0"/>
        <pt x="478" y="941" on="0"/>
        <pt x="499" y="904" on="1"/>
        <pt x="548" y="818" on="0"/>
        <pt x="548" y="712" on="1"/>
        <pt x="548" y="603" on="0"/>
        <pt x="395" y="450" on="0"/>
        <pt x="286" y="450" on="1"/>
        <pt x="176" y="450" on="0"/>
        <pt x="24" y="606" on="0"/>
        <pt x="24" y="714" on="1"/>
      </contour>
    </TTGlyph>
    <TTGlyph name="OE" xMin="24" yMin="-1" xMax="2574" yMax="1617">
      <contour>
        <pt x="2151" y="785" on="1"/>
        <pt x="2199" y="706" on="0"/>
        <pt x="2199" y="542" on="0"/>
        <pt x="2151" y="430" on="0"/>
        <pt x="2109" y="388" on="1"/>
        <pt x="2018" y="298" on="0"/>
        <pt x="1892" y="299" on="1"/>
        <pt x="1765" y="299" on="0"/>
        <pt x="1586" y="478" on="0"/>
        <pt x="1586" y="605" on="1"/>
        <pt x="1586" y="698" on="0"/>
        <pt x="1638" y="775" on="1"/>
        <pt x="1776" y="673" on="1"/>
        <pt x="1758" y="643" on="0"/>
        <pt x="1758" y="577" on="0"/>
        <pt x="1779" y="529" on="0"/>
        <pt x="1797" y="511" on="1"/>
        <pt x="1836" y="472" on="0"/>
        <pt x="1891" y="472" on="1"/>
        <pt x="1947" y="472" on="0"/>
        <pt x="2025" y="550" on="0"/>
        <pt x="2025" y="645" on="0"/>
        <pt x="1989" y="710" on="0"/>
        <pt x="1960" y="737" on="1"/>
        <pt x="1932" y="764" on="0"/>
        <pt x="1896" y="786" on="1"/>
        <pt x="1826" y="828" on="1"/>
        <pt x="1713" y="890" on="0"/>
        <pt x="1672" y="932" on="1"/>
        <pt x="1590" y="1016" on="0"/>
        <pt x="1590" y="1118" on="1"/>
        <pt x="1590" y="1216" on="0"/>
        <pt x="1661" y="1298" on="1"/>
        <pt x="1688" y="1330" on="0"/>
        <pt x="1688" y="1354" on="1"/>
        <pt x="1688" y="1393" on="0"/>
        <pt x="1593" y="1393" on="0"/>
        <pt x="1502" y="1318" on="0"/>
        <pt x="1466" y="1242" on="1"/>
        <pt x="1385" y="1070" on="0"/>
        <pt x="1385" y="776" on="1"/>
        <pt x="1385" y="482" on="0"/>
        <pt x="1542" y="318" on="1"/>
        <pt x="1681" y="173" on="0"/>
        <pt x="1894" y="173" on="1"/>
        <pt x="2085" y="172" on="0"/>
        <pt x="2230" y="314" on="1"/>
        <pt x="2341" y="422" on="0"/>
        <pt x="2412" y="607" on="1"/>
        <pt x="2574" y="543" on="1"/>
        <pt x="2490" y="321" on="0"/>
        <pt x="2338" y="177" on="1"/>
        <pt x="2152" y="-1" on="0"/>
        <pt x="1894" y="-1" on="1"/>
        <pt x="1652" y="-2" on="0"/>
        <pt x="1474" y="138" on="1"/>
        <pt x="1414" y="186" on="0"/>
        <pt x="1365" y="250" on="1"/>
        <pt x="1198" y="70" on="0"/>
        <pt x="956" y="18" on="1"/>
        <pt x="876" y="0" on="0"/>
        <pt x="702" y="0" on="0"/>
        <pt x="618" y="21" on="1"/>
        <pt x="534" y="42" on="0"/>
        <pt x="456" y="81" on="1"/>
        <pt x="301" y="159" on="0"/>
        <pt x="181" y="301" on="1"/>
        <pt x="318" y="412" on="1"/>
        <pt x="411" y="302" on="0"/>
        <pt x="653" y="174" on="0"/>
        <pt x="790" y="174" on="1"/>
        <pt x="1010" y="174" on="0"/>
        <pt x="1179" y="314" on="1"/>
        <pt x="1232" y="358" on="0"/>
        <pt x="1274" y="412" on="1"/>
        <pt x="1210" y="569" on="0"/>
        <pt x="1210" y="1000" on="0"/>
        <pt x="1261" y="1174" on="1"/>
        <pt x="1132" y="1330" on="0"/>
        <pt x="925" y="1378" on="1"/>
        <pt x="858" y="1394" on="0"/>
        <pt x="691" y="1394" on="0"/>
        <pt x="612" y="1382" on="1"/>
        <pt x="532" y="1369" on="0"/>
        <pt x="476" y="1342" on="1"/>
        <pt x="358" y="1285" on="0"/>
        <pt x="358" y="1173" on="1"/>
        <pt x="358" y="1101" on="0"/>
        <pt x="407" y="1031" on="1"/>
        <pt x="428" y="1001" on="0"/>
        <pt x="478" y="941" on="0"/>
        <pt x="499" y="904" on="1"/>
        <pt x="548" y="818" on="0"/>
        <pt x="548" y="712" on="1"/>
        <pt x="548" y="603" on="0"/>
        <pt x="395" y="450" on="0"/>
        <pt x="286" y="450" on="1"/>
        <pt x="176" y="450" on="0"/>
        <pt x="24" y="606" on="0"/>
        <pt x="24" y="714" on="1"/>
        <pt x="194" y="714" on="1"/>
        <pt x="194" y="676" on="0"/>
        <pt x="246" y="624" on="0"/>
        <pt x="284" y="624" on="1"/>
        <pt x="322" y="624" on="0"/>
        <pt x="375" y="676" on="0"/>
        <pt x="375" y="759" on="0"/>
        <pt x="347" y="828" on="0"/>
        <pt x="304" y="891" on="0"/>
        <pt x="280" y="922" on="1"/>
        <pt x="256" y="952" on="0"/>
        <pt x="234" y="988" on="1"/>
        <pt x="184" y="1070" on="0"/>
        <pt x="184" y="1268" on="0"/>
        <pt x="270" y="1417" on="0"/>
        <pt x="349" y="1467" on="1"/>
        <pt x="509" y="1568" on="0"/>
        <pt x="787" y="1568" on="1"/>
        <pt x="1104" y="1568" on="0"/>
        <pt x="1333" y="1350" on="1"/>
        <pt x="1396" y="1460" on="0"/>
        <pt x="1556" y="1567" on="0"/>
        <pt x="1639" y="1567" on="1"/>
        <pt x="1756" y="1567" on="0"/>
        <pt x="1816" y="1491" on="1"/>
        <pt x="1918" y="1617" on="1"/>
        <pt x="1982" y="1414" on="0"/>
        <pt x="2063" y="1341" on="1"/>
        <pt x="2093" y="1314" on="0"/>
        <pt x="2157" y="1314" on="0"/>
        <pt x="2181" y="1330" on="1"/>
        <pt x="2205" y="1346" on="0"/>
        <pt x="2222" y="1376" on="1"/>
        <pt x="2257" y="1437" on="0"/>
        <pt x="2257" y="1537" on="1"/>
        <pt x="2431" y="1537" on="1"/>
        <pt x="2430" y="1360" on="0"/>
        <pt x="2350" y="1252" on="1"/>
        <pt x="2266" y="1139" on="0"/>
        <pt x="1965" y="1139" on="0"/>
        <pt x="1867" y="1275" on="1"/>
        <pt x="1795" y="1187" on="1"/>
        <pt x="1765" y="1149" on="0"/>
        <pt x="1765" y="1097" on="0"/>
        <pt x="1789" y="1060" on="0"/>
        <pt x="1810" y="1044" on="1"/>
        <pt x="1830" y="1028" on="0"/>
        <pt x="1856" y="1012" on="1"/>
        <pt x="1963" y="951" on="1"/>
        <pt x="1989" y="936" on="0"/>
        <pt x="2015" y="918" on="1"/>
        <pt x="2051" y="995" on="0"/>
        <pt x="2087" y="1026" on="1"/>
        <pt x="2152" y="1081" on="0"/>
        <pt x="2232" y="1081" on="1"/>
        <pt x="2307" y="1081" on="0"/>
        <pt x="2375" y="1024" on="1"/>
        <pt x="2375" y="1131" on="1"/>
        <pt x="2545" y="1131" on="1"/>
        <pt x="2545" y="993" on="0"/>
        <pt x="2508" y="893" on="0"/>
        <pt x="2447" y="843" on="0"/>
        <pt x="2360" y="843" on="0"/>
        <pt x="2322" y="863" on="0"/>
        <pt x="2308" y="875" on="1"/>
        <pt x="2283" y="897" on="1"/>
        <pt x="2271" y="907" on="0"/>
        <pt x="2233" y="907" on="0"/>
        <pt x="2202" y="886" on="0"/>
        <pt x="2190" y="869" on="1"/>
        <pt x="2171" y="842" on="0"/>
      </contour>
    </TTGlyph>
    <TTGlyph name="Oacute" xMin="24" yMin="0" xMax="1576" yMax="1995">
      <contour>
        <pt x="194" y="714" on="1"/>
        <pt x="194" y="676" on="0"/>
        <pt x="246" y="624" on="0"/>
        <pt x="284" y="624" on="1"/>
        <pt x="322" y="624" on="0"/>
        <pt x="375" y="676" on="0"/>
        <pt x="375" y="759" on="0"/>
        <pt x="347" y="828" on="0"/>
        <pt x="304" y="891" on="0"/>
        <pt x="280" y="922" on="1"/>
        <pt x="256" y="952" on="0"/>
        <pt x="234" y="988" on="1"/>
        <pt x="184" y="1070" on="0"/>
        <pt x="184" y="1268" on="0"/>
        <pt x="270" y="1417" on="0"/>
        <pt x="349" y="1467" on="1"/>
        <pt x="509" y="1568" on="0"/>
        <pt x="787" y="1568" on="1"/>
        <pt x="1002" y="1568" on="0"/>
        <pt x="1185" y="1462" on="1"/>
        <pt x="1364" y="1358" on="0"/>
        <pt x="1468" y="1182" on="1"/>
        <pt x="1576" y="1000" on="0"/>
        <pt x="1576" y="786" on="1"/>
        <pt x="1576" y="572" on="0"/>
        <pt x="1469" y="389" on="1"/>
        <pt x="1365" y="211" on="0"/>
        <pt x="1187" y="107" on="1"/>
        <pt x="1004" y="0" on="0"/>
        <pt x="790" y="0" on="1"/>
        <pt x="526" y="0" on="0"/>
        <pt x="308" y="176" on="1"/>
        <pt x="238" y="232" on="0"/>
        <pt x="181" y="301" on="1"/>
        <pt x="318" y="412" on="1"/>
        <pt x="411" y="302" on="0"/>
        <pt x="653" y="174" on="0"/>
        <pt x="874" y="174" on="0"/>
        <pt x="1030" y="218" on="0"/>
        <pt x="1166" y="297" on="0"/>
        <pt x="1278" y="409" on="0"/>
        <pt x="1318" y="477" on="1"/>
        <pt x="1402" y="620" on="0"/>
        <pt x="1402" y="913" on="0"/>
        <pt x="1354" y="1024" on="1"/>
        <pt x="1306" y="1134" on="0"/>
        <pt x="1222" y="1216" on="1"/>
        <pt x="1042" y="1394" on="0"/>
        <pt x="787" y="1394" on="1"/>
        <pt x="478" y="1394" on="0"/>
        <pt x="389" y="1273" on="1"/>
        <pt x="358" y="1231" on="0"/>
        <pt x="358" y="1129" on="0"/>
        <pt x="386" y="1061" on="0"/>
        <pt x="428" y="1001" on="0"/>
        <pt x="478" y="941" on="0"/>
        <pt x="499" y="904" on="1"/>
        <pt x="548" y="818" on="0"/>
        <pt x="548" y="712" on="1"/>
        <pt x="548" y="603" on="0"/>
        <pt x="395" y="450" on="0"/>
        <pt x="286" y="450" on="1"/>
        <pt x="176" y="450" on="0"/>
        <pt x="24" y="606" on="0"/>
        <pt x="24" y="714" on="1"/>
      </contour>
      <contour>
        <pt x="745" y="1599" on="1"/>
        <pt x="655" y="1741" on="1"/>
        <pt x="1004" y="1995" on="1"/>
        <pt x="1120" y="1837" on="1"/>
      </contour>
    </TTGlyph>
    <TTGlyph name="Ocircumflex" xMin="24" yMin="0" xMax="1576" yMax="1997">
      <contour>
        <pt x="194" y="714" on="1"/>
        <pt x="194" y="676" on="0"/>
        <pt x="246" y="624" on="0"/>
        <pt x="284" y="624" on="1"/>
        <pt x="322" y="624" on="0"/>
        <pt x="375" y="676" on="0"/>
        <pt x="375" y="759" on="0"/>
        <pt x="347" y="828" on="0"/>
        <pt x="304" y="891" on="0"/>
        <pt x="280" y="922" on="1"/>
        <pt x="256" y="952" on="0"/>
        <pt x="234" y="988" on="1"/>
        <pt x="184" y="1070" on="0"/>
        <pt x="184" y="1268" on="0"/>
        <pt x="270" y="1417" on="0"/>
        <pt x="349" y="1467" on="1"/>
        <pt x="509" y="1568" on="0"/>
        <pt x="787" y="1568" on="1"/>
        <pt x="1002" y="1568" on="0"/>
        <pt x="1185" y="1462" on="1"/>
        <pt x="1364" y="1358" on="0"/>
        <pt x="1468" y="1182" on="1"/>
        <pt x="1576" y="1000" on="0"/>
        <pt x="1576" y="786" on="1"/>
        <pt x="1576" y="572" on="0"/>
        <pt x="1469" y="389" on="1"/>
        <pt x="1365" y="211" on="0"/>
        <pt x="1187" y="107" on="1"/>
        <pt x="1004" y="0" on="0"/>
        <pt x="790" y="0" on="1"/>
        <pt x="526" y="0" on="0"/>
        <pt x="308" y="176" on="1"/>
        <pt x="238" y="232" on="0"/>
        <pt x="181" y="301" on="1"/>
        <pt x="318" y="412" on="1"/>
        <pt x="411" y="302" on="0"/>
        <pt x="653" y="174" on="0"/>
        <pt x="874" y="174" on="0"/>
        <pt x="1030" y="218" on="0"/>
        <pt x="1166" y="297" on="0"/>
        <pt x="1278" y="409" on="0"/>
        <pt x="1318" y="477" on="1"/>
        <pt x="1402" y="620" on="0"/>
        <pt x="1402" y="913" on="0"/>
        <pt x="1354" y="1024" on="1"/>
        <pt x="1306" y="1134" on="0"/>
        <pt x="1222" y="1216" on="1"/>
        <pt x="1042" y="1394" on="0"/>
        <pt x="787" y="1394" on="1"/>
        <pt x="478" y="1394" on="0"/>
        <pt x="389" y="1273" on="1"/>
        <pt x="358" y="1231" on="0"/>
        <pt x="358" y="1129" on="0"/>
        <pt x="386" y="1061" on="0"/>
        <pt x="428" y="1001" on="0"/>
        <pt x="478" y="941" on="0"/>
        <pt x="499" y="904" on="1"/>
        <pt x="548" y="818" on="0"/>
        <pt x="548" y="712" on="1"/>
        <pt x="548" y="603" on="0"/>
        <pt x="395" y="450" on="0"/>
        <pt x="286" y="450" on="1"/>
        <pt x="176" y="450" on="0"/>
        <pt x="24" y="606" on="0"/>
        <pt x="24" y="714" on="1"/>
      </contour>
      <contour>
        <pt x="451" y="1745" on="1"/>
        <pt x="812" y="1997" on="1"/>
        <pt x="1160" y="1745" on="1"/>
        <pt x="1057" y="1609" on="1"/>
        <pt x="812" y="1790" on="1"/>
        <pt x="784" y="1766" on="0"/>
        <pt x="740" y="1736" on="1"/>
        <pt x="554" y="1609" on="1"/>
      </contour>
    </TTGlyph>
    <TTGlyph name="Odieresis" xMin="24" yMin="0" xMax="1576" yMax="1992">
      <contour>
        <pt x="194" y="714" on="1"/>
        <pt x="194" y="676" on="0"/>
        <pt x="246" y="624" on="0"/>
        <pt x="284" y="624" on="1"/>
        <pt x="322" y="624" on="0"/>
        <pt x="375" y="676" on="0"/>
        <pt x="375" y="759" on="0"/>
        <pt x="347" y="828" on="0"/>
        <pt x="304" y="891" on="0"/>
        <pt x="280" y="922" on="1"/>
        <pt x="256" y="952" on="0"/>
        <pt x="234" y="988" on="1"/>
        <pt x="184" y="1070" on="0"/>
        <pt x="184" y="1268" on="0"/>
        <pt x="270" y="1417" on="0"/>
        <pt x="349" y="1467" on="1"/>
        <pt x="509" y="1568" on="0"/>
        <pt x="787" y="1568" on="1"/>
        <pt x="1002" y="1568" on="0"/>
        <pt x="1185" y="1462" on="1"/>
        <pt x="1364" y="1358" on="0"/>
        <pt x="1468" y="1182" on="1"/>
        <pt x="1576" y="1000" on="0"/>
        <pt x="1576" y="786" on="1"/>
        <pt x="1576" y="572" on="0"/>
        <pt x="1469" y="389" on="1"/>
        <pt x="1365" y="211" on="0"/>
        <pt x="1187" y="107" on="1"/>
        <pt x="1004" y="0" on="0"/>
        <pt x="790" y="0" on="1"/>
        <pt x="526" y="0" on="0"/>
        <pt x="308" y="176" on="1"/>
        <pt x="238" y="232" on="0"/>
        <pt x="181" y="301" on="1"/>
        <pt x="318" y="412" on="1"/>
        <pt x="411" y="302" on="0"/>
        <pt x="653" y="174" on="0"/>
        <pt x="874" y="174" on="0"/>
        <pt x="1030" y="218" on="0"/>
        <pt x="1166" y="297" on="0"/>
        <pt x="1278" y="409" on="0"/>
        <pt x="1318" y="477" on="1"/>
        <pt x="1402" y="620" on="0"/>
        <pt x="1402" y="913" on="0"/>
        <pt x="1354" y="1024" on="1"/>
        <pt x="1306" y="1134" on="0"/>
        <pt x="1222" y="1216" on="1"/>
        <pt x="1042" y="1394" on="0"/>
        <pt x="787" y="1394" on="1"/>
        <pt x="478" y="1394" on="0"/>
        <pt x="389" y="1273" on="1"/>
        <pt x="358" y="1231" on="0"/>
        <pt x="358" y="1129" on="0"/>
        <pt x="386" y="1061" on="0"/>
        <pt x="428" y="1001" on="0"/>
        <pt x="478" y="941" on="0"/>
        <pt x="499" y="904" on="1"/>
        <pt x="548" y="818" on="0"/>
        <pt x="548" y="712" on="1"/>
        <pt x="548" y="603" on="0"/>
        <pt x="395" y="450" on="0"/>
        <pt x="286" y="450" on="1"/>
        <pt x="176" y="450" on="0"/>
        <pt x="24" y="606" on="0"/>
        <pt x="24" y="714" on="1"/>
      </contour>
      <contour>
        <pt x="1046" y="1657" on="1"/>
        <pt x="888" y="1710" on="1"/>
        <pt x="1006" y="1992" on="1"/>
        <pt x="1183" y="1921" on="1"/>
      </contour>
      <contour>
        <pt x="741" y="1657" on="1"/>
        <pt x="583" y="1710" on="1"/>
        <pt x="702" y="1992" on="1"/>
        <pt x="879" y="1921" on="1"/>
      </contour>
    </TTGlyph>
    <TTGlyph name="Ograve" xMin="24" yMin="0" xMax="1576" yMax="1995">
      <contour>
        <pt x="194" y="714" on="1"/>
        <pt x="194" y="676" on="0"/>
        <pt x="246" y="624" on="0"/>
        <pt x="284" y="624" on="1"/>
        <pt x="322" y="624" on="0"/>
        <pt x="375" y="676" on="0"/>
        <pt x="375" y="759" on="0"/>
        <pt x="347" y="828" on="0"/>
        <pt x="304" y="891" on="0"/>
        <pt x="280" y="922" on="1"/>
        <pt x="256" y="952" on="0"/>
        <pt x="234" y="988" on="1"/>
        <pt x="184" y="1070" on="0"/>
        <pt x="184" y="1268" on="0"/>
        <pt x="270" y="1417" on="0"/>
        <pt x="349" y="1467" on="1"/>
        <pt x="509" y="1568" on="0"/>
        <pt x="787" y="1568" on="1"/>
        <pt x="1002" y="1568" on="0"/>
        <pt x="1185" y="1462" on="1"/>
        <pt x="1364" y="1358" on="0"/>
        <pt x="1468" y="1182" on="1"/>
        <pt x="1576" y="1000" on="0"/>
        <pt x="1576" y="786" on="1"/>
        <pt x="1576" y="572" on="0"/>
        <pt x="1469" y="389" on="1"/>
        <pt x="1365" y="211" on="0"/>
        <pt x="1187" y="107" on="1"/>
        <pt x="1004" y="0" on="0"/>
        <pt x="790" y="0" on="1"/>
        <pt x="526" y="0" on="0"/>
        <pt x="308" y="176" on="1"/>
        <pt x="238" y="232" on="0"/>
        <pt x="181" y="301" on="1"/>
        <pt x="318" y="412" on="1"/>
        <pt x="411" y="302" on="0"/>
        <pt x="653" y="174" on="0"/>
        <pt x="874" y="174" on="0"/>
        <pt x="1030" y="218" on="0"/>
        <pt x="1166" y="297" on="0"/>
        <pt x="1278" y="409" on="0"/>
        <pt x="1318" y="477" on="1"/>
        <pt x="1402" y="620" on="0"/>
        <pt x="1402" y="913" on="0"/>
        <pt x="1354" y="1024" on="1"/>
        <pt x="1306" y="1134" on="0"/>
        <pt x="1222" y="1216" on="1"/>
        <pt x="1042" y="1394" on="0"/>
        <pt x="787" y="1394" on="1"/>
        <pt x="478" y="1394" on="0"/>
        <pt x="389" y="1273" on="1"/>
        <pt x="358" y="1231" on="0"/>
        <pt x="358" y="1129" on="0"/>
        <pt x="386" y="1061" on="0"/>
        <pt x="428" y="1001" on="0"/>
        <pt x="478" y="941" on="0"/>
        <pt x="499" y="904" on="1"/>
        <pt x="548" y="818" on="0"/>
        <pt x="548" y="712" on="1"/>
        <pt x="548" y="603" on="0"/>
        <pt x="395" y="450" on="0"/>
        <pt x="286" y="450" on="1"/>
        <pt x="176" y="450" on="0"/>
        <pt x="24" y="606" on="0"/>
        <pt x="24" y="714" on="1"/>
      </contour>
      <contour>
        <pt x="454" y="1837" on="1"/>
        <pt x="570" y="1995" on="1"/>
        <pt x="918" y="1741" on="1"/>
        <pt x="827" y="1598" on="1"/>
      </contour>
    </TTGlyph>
    <TTGlyph name="Oslash" xMin="36" yMin="-22" xMax="1731" yMax="1632">
      <contour>
        <pt x="330" y="476" on="1"/>
        <pt x="375" y="423" on="0"/>
        <pt x="420" y="385" on="1"/>
        <pt x="1275" y="1235" on="1"/>
        <pt x="1142" y="1396" on="0"/>
        <pt x="938" y="1442" on="1"/>
        <pt x="870" y="1458" on="0"/>
        <pt x="703" y="1458" on="0"/>
        <pt x="624" y="1446" on="1"/>
        <pt x="544" y="1433" on="0"/>
        <pt x="488" y="1406" on="1"/>
        <pt x="370" y="1349" on="0"/>
        <pt x="370" y="1237" on="1"/>
        <pt x="370" y="1165" on="0"/>
        <pt x="419" y="1095" on="1"/>
        <pt x="440" y="1065" on="0"/>
        <pt x="490" y="1005" on="0"/>
        <pt x="511" y="968" on="1"/>
        <pt x="560" y="882" on="0"/>
        <pt x="560" y="776" on="1"/>
        <pt x="560" y="667" on="0"/>
        <pt x="407" y="514" on="0"/>
        <pt x="298" y="514" on="1"/>
        <pt x="188" y="514" on="0"/>
        <pt x="36" y="670" on="0"/>
        <pt x="36" y="778" on="1"/>
        <pt x="206" y="778" on="1"/>
        <pt x="206" y="740" on="0"/>
        <pt x="258" y="688" on="0"/>
        <pt x="296" y="688" on="1"/>
        <pt x="334" y="688" on="0"/>
        <pt x="387" y="740" on="0"/>
        <pt x="387" y="823" on="0"/>
        <pt x="359" y="892" on="0"/>
        <pt x="316" y="955" on="0"/>
        <pt x="292" y="986" on="1"/>
        <pt x="268" y="1016" on="0"/>
        <pt x="246" y="1052" on="1"/>
        <pt x="196" y="1134" on="0"/>
        <pt x="196" y="1332" on="0"/>
        <pt x="282" y="1481" on="0"/>
        <pt x="361" y="1531" on="1"/>
        <pt x="521" y="1632" on="0"/>
        <pt x="799" y="1632" on="1"/>
        <pt x="1065" y="1632" on="0"/>
        <pt x="1278" y="1472" on="1"/>
        <pt x="1345" y="1422" on="0"/>
        <pt x="1399" y="1358" on="1"/>
        <pt x="1607" y="1564" on="1"/>
        <pt x="1731" y="1440" on="1"/>
        <pt x="1500" y="1210" on="1"/>
        <pt x="1588" y="1040" on="0"/>
        <pt x="1588" y="850" on="1"/>
        <pt x="1588" y="636" on="0"/>
        <pt x="1481" y="453" on="1"/>
        <pt x="1377" y="275" on="0"/>
        <pt x="1199" y="171" on="1"/>
        <pt x="1016" y="64" on="0"/>
        <pt x="614" y="64" on="0"/>
        <pt x="441" y="159" on="1"/>
        <pt x="259" y="-22" on="1"/>
        <pt x="135" y="102" on="1"/>
        <pt x="295" y="261" on="1"/>
        <pt x="241" y="306" on="0"/>
        <pt x="193" y="365" on="1"/>
      </contour>
      <contour>
        <pt x="572" y="289" on="1"/>
        <pt x="682" y="238" on="0"/>
        <pt x="886" y="238" on="0"/>
        <pt x="1042" y="282" on="0"/>
        <pt x="1178" y="361" on="0"/>
        <pt x="1290" y="473" on="0"/>
        <pt x="1330" y="541" on="1"/>
        <pt x="1414" y="684" on="0"/>
        <pt x="1414" y="850" on="1"/>
        <pt x="1414" y="967" on="0"/>
        <pt x="1368" y="1080" on="1"/>
      </contour>
    </TTGlyph>
    <TTGlyph name="Otilde" xMin="24" yMin="0" xMax="1576" yMax="1955">
      <contour>
        <pt x="194" y="714" on="1"/>
        <pt x="194" y="676" on="0"/>
        <pt x="246" y="624" on="0"/>
        <pt x="284" y="624" on="1"/>
        <pt x="322" y="624" on="0"/>
        <pt x="375" y="676" on="0"/>
        <pt x="375" y="759" on="0"/>
        <pt x="347" y="828" on="0"/>
        <pt x="304" y="891" on="0"/>
        <pt x="280" y="922" on="1"/>
        <pt x="256" y="952" on="0"/>
        <pt x="234" y="988" on="1"/>
        <pt x="184" y="1070" on="0"/>
        <pt x="184" y="1268" on="0"/>
        <pt x="270" y="1417" on="0"/>
        <pt x="349" y="1467" on="1"/>
        <pt x="509" y="1568" on="0"/>
        <pt x="787" y="1568" on="1"/>
        <pt x="1002" y="1568" on="0"/>
        <pt x="1185" y="1462" on="1"/>
        <pt x="1364" y="1358" on="0"/>
        <pt x="1468" y="1182" on="1"/>
        <pt x="1576" y="1000" on="0"/>
        <pt x="1576" y="786" on="1"/>
        <pt x="1576" y="572" on="0"/>
        <pt x="1469" y="389" on="1"/>
        <pt x="1365" y="211" on="0"/>
        <pt x="1187" y="107" on="1"/>
        <pt x="1004" y="0" on="0"/>
        <pt x="790" y="0" on="1"/>
        <pt x="526" y="0" on="0"/>
        <pt x="308" y="176" on="1"/>
        <pt x="238" y="232" on="0"/>
        <pt x="181" y="301" on="1"/>
        <pt x="318" y="412" on="1"/>
        <pt x="411" y="302" on="0"/>
        <pt x="653" y="174" on="0"/>
        <pt x="874" y="174" on="0"/>
        <pt x="1030" y="218" on="0"/>
        <pt x="1166" y="297" on="0"/>
        <pt x="1278" y="409" on="0"/>
        <pt x="1318" y="477" on="1"/>
        <pt x="1402" y="620" on="0"/>
        <pt x="1402" y="913" on="0"/>
        <pt x="1354" y="1024" on="1"/>
        <pt x="1306" y="1134" on="0"/>
        <pt x="1222" y="1216" on="1"/>
        <pt x="1042" y="1394" on="0"/>
        <pt x="787" y="1394" on="1"/>
        <pt x="478" y="1394" on="0"/>
        <pt x="389" y="1273" on="1"/>
        <pt x="358" y="1231" on="0"/>
        <pt x="358" y="1129" on="0"/>
        <pt x="386" y="1061" on="0"/>
        <pt x="428" y="1001" on="0"/>
        <pt x="478" y="941" on="0"/>
        <pt x="499" y="904" on="1"/>
        <pt x="548" y="818" on="0"/>
        <pt x="548" y="712" on="1"/>
        <pt x="548" y="603" on="0"/>
        <pt x="395" y="450" on="0"/>
        <pt x="286" y="450" on="1"/>
        <pt x="176" y="450" on="0"/>
        <pt x="24" y="606" on="0"/>
        <pt x="24" y="714" on="1"/>
      </contour>
      <contour>
        <pt x="684" y="1765" on="1"/>
        <pt x="598" y="1765" on="0"/>
        <pt x="525" y="1624" on="1"/>
        <pt x="376" y="1708" on="1"/>
        <pt x="462" y="1868" on="0"/>
        <pt x="580" y="1919" on="1"/>
        <pt x="620" y="1936" on="0"/>
        <pt x="700" y="1936" on="0"/>
        <pt x="766" y="1896" on="0"/>
        <pt x="794" y="1872" on="1"/>
        <pt x="846" y="1828" on="1"/>
        <pt x="871" y="1808" on="0"/>
        <pt x="917" y="1808" on="0"/>
        <pt x="937" y="1820" on="1"/>
        <pt x="957" y="1834" on="0"/>
        <pt x="976" y="1854" on="1"/>
        <pt x="1013" y="1894" on="0"/>
        <pt x="1046" y="1955" on="1"/>
        <pt x="1195" y="1872" on="1"/>
        <pt x="1110" y="1720" on="0"/>
        <pt x="992" y="1657" on="1"/>
        <pt x="954" y="1637" on="0"/>
        <pt x="877" y="1637" on="0"/>
        <pt x="809" y="1677" on="0"/>
        <pt x="781" y="1701" on="1"/>
        <pt x="730" y="1745" on="1"/>
        <pt x="707" y="1765" on="0"/>
      </contour>
    </TTGlyph>
    <TTGlyph name="P" xMin="93" yMin="-352" xMax="1496" yMax="1567">
      <contour>
        <pt x="731" y="282" on="1"/>
        <pt x="575" y="266" on="0"/>
        <pt x="426" y="117" on="1"/>
        <pt x="300" y="236" on="1"/>
        <pt x="408" y="340" on="0"/>
        <pt x="481" y="379" on="1"/>
        <pt x="606" y="447" on="0"/>
        <pt x="731" y="462" on="1"/>
        <pt x="731" y="1073" on="1"/>
        <pt x="732" y="1217" on="0"/>
        <pt x="638" y="1309" on="1"/>
        <pt x="553" y="1393" on="0"/>
        <pt x="357" y="1393" on="0"/>
        <pt x="274" y="1318" on="0"/>
        <pt x="274" y="1216" on="0"/>
        <pt x="314" y="1149" on="0"/>
        <pt x="373" y="1087" on="0"/>
        <pt x="442" y="1024" on="0"/>
        <pt x="472" y="986" on="1"/>
        <pt x="542" y="896" on="0"/>
        <pt x="541" y="792" on="1"/>
        <pt x="541" y="697" on="0"/>
        <pt x="410" y="566" on="0"/>
        <pt x="315" y="566" on="1"/>
        <pt x="222" y="566" on="0"/>
        <pt x="158" y="632" on="1"/>
        <pt x="93" y="698" on="0"/>
        <pt x="93" y="792" on="1"/>
        <pt x="93" y="902" on="0"/>
        <pt x="182" y="970" on="1"/>
        <pt x="209" y="990" on="0"/>
        <pt x="242" y="1002" on="1"/>
        <pt x="174" y="1052" on="0"/>
        <pt x="149" y="1089" on="1"/>
        <pt x="99" y="1163" on="0"/>
        <pt x="99" y="1326" on="0"/>
        <pt x="121" y="1382" on="1"/>
        <pt x="144" y="1439" on="0"/>
        <pt x="186" y="1480" on="1"/>
        <pt x="276" y="1567" on="0"/>
        <pt x="440" y="1567" on="1"/>
        <pt x="572" y="1568" on="0"/>
        <pt x="690" y="1488" on="1"/>
        <pt x="815" y="1403" on="0"/>
        <pt x="865" y="1267" on="1"/>
        <pt x="1245" y="1566" on="1"/>
        <pt x="1350" y="1360" on="1"/>
        <pt x="1449" y="1169" on="0"/>
        <pt x="1496" y="947" on="0"/>
        <pt x="1496" y="761" on="0"/>
        <pt x="1471" y="633" on="0"/>
        <pt x="1450" y="582" on="1"/>
        <pt x="1419" y="507" on="0"/>
        <pt x="1328" y="386" on="0"/>
        <pt x="1294" y="336" on="0"/>
        <pt x="1274" y="302" on="1"/>
        <pt x="1228" y="223" on="0"/>
        <pt x="1184" y="119" on="1"/>
        <pt x="1106" y="182" on="0"/>
        <pt x="970" y="270" on="0"/>
        <pt x="906" y="282" on="1"/>
        <pt x="906" y="128" on="1"/>
        <pt x="906" y="-229" on="0"/>
        <pt x="690" y="-325" on="1"/>
        <pt x="630" y="-352" on="0"/>
        <pt x="562" y="-352" on="1"/>
        <pt x="553" y="-352" on="1"/>
        <pt x="460" y="-352" on="0"/>
        <pt x="396" y="-286" on="1"/>
        <pt x="331" y="-220" on="0"/>
        <pt x="331" y="-126" on="1"/>
        <pt x="331" y="-34" on="0"/>
        <pt x="461" y="96" on="0"/>
        <pt x="553" y="96" on="1"/>
        <pt x="672" y="96" on="0"/>
        <pt x="723" y="-8" on="1"/>
        <pt x="731" y="20" on="0"/>
        <pt x="731" y="82" on="1"/>
      </contour>
      <contour>
        <pt x="906" y="459" on="1"/>
        <pt x="1017" y="446" on="0"/>
        <pt x="1120" y="386" on="1"/>
        <pt x="1155" y="440" on="1"/>
        <pt x="1240" y="565" on="1"/>
        <pt x="1322" y="691" on="0"/>
        <pt x="1322" y="847" on="1"/>
        <pt x="1322" y="982" on="0"/>
        <pt x="1296" y="1060" on="1"/>
        <pt x="1269" y="1138" on="0"/>
        <pt x="1244" y="1188" on="1"/>
        <pt x="1188" y="1300" on="1"/>
        <pt x="906" y="1077" on="1"/>
      </contour>
      <contour>
        <pt x="532" y="-74" on="0"/>
        <pt x="501" y="-106" on="0"/>
        <pt x="501" y="-151" on="0"/>
        <pt x="532" y="-182" on="0"/>
        <pt x="577" y="-182" on="0"/>
        <pt x="609" y="-151" on="0"/>
        <pt x="609" y="-106" on="0"/>
        <pt x="577" y="-74" on="0"/>
      </contour>
      <contour>
        <pt x="294" y="844" on="0"/>
        <pt x="263" y="812" on="0"/>
        <pt x="263" y="767" on="0"/>
        <pt x="294" y="736" on="0"/>
        <pt x="339" y="736" on="0"/>
        <pt x="371" y="767" on="0"/>
        <pt x="371" y="812" on="0"/>
        <pt x="339" y="844" on="0"/>
      </contour>
    </TTGlyph>
    <TTGlyph name="Q" xMin="25" yMin="-352" xMax="2032" yMax="1568">
      <contour>
        <pt x="1249" y="380" on="1"/>
        <pt x="1403" y="553" on="0"/>
        <pt x="1403" y="786" on="1"/>
        <pt x="1402" y="1038" on="0"/>
        <pt x="1042" y="1394" on="0"/>
        <pt x="788" y="1394" on="1"/>
        <pt x="479" y="1394" on="0"/>
        <pt x="390" y="1273" on="1"/>
        <pt x="359" y="1231" on="0"/>
        <pt x="359" y="1129" on="0"/>
        <pt x="387" y="1061" on="0"/>
        <pt x="429" y="1001" on="0"/>
        <pt x="479" y="941" on="0"/>
        <pt x="500" y="904" on="1"/>
        <pt x="549" y="818" on="0"/>
        <pt x="549" y="712" on="1"/>
        <pt x="549" y="603" on="0"/>
        <pt x="396" y="450" on="0"/>
        <pt x="287" y="450" on="1"/>
        <pt x="178" y="450" on="0"/>
        <pt x="26" y="606" on="0"/>
        <pt x="25" y="714" on="1"/>
        <pt x="195" y="714" on="1"/>
        <pt x="195" y="676" on="0"/>
        <pt x="247" y="624" on="0"/>
        <pt x="285" y="624" on="1"/>
        <pt x="323" y="624" on="0"/>
        <pt x="376" y="676" on="0"/>
        <pt x="376" y="759" on="0"/>
        <pt x="348" y="828" on="0"/>
        <pt x="305" y="891" on="0"/>
        <pt x="256" y="952" on="0"/>
        <pt x="234" y="988" on="1"/>
        <pt x="184" y="1070" on="0"/>
        <pt x="185" y="1268" on="0"/>
        <pt x="271" y="1417" on="0"/>
        <pt x="350" y="1467" on="1"/>
        <pt x="510" y="1568" on="0"/>
        <pt x="788" y="1568" on="1"/>
        <pt x="1003" y="1568" on="0"/>
        <pt x="1186" y="1462" on="1"/>
        <pt x="1366" y="1358" on="0"/>
        <pt x="1470" y="1182" on="1"/>
        <pt x="1578" y="1000" on="0"/>
        <pt x="1577" y="786" on="1"/>
        <pt x="1577" y="469" on="0"/>
        <pt x="1359" y="242" on="1"/>
        <pt x="1408" y="170" on="0"/>
        <pt x="1452" y="95" on="1"/>
        <pt x="1496" y="20" on="0"/>
        <pt x="1538" y="-40" on="1"/>
        <pt x="1635" y="-178" on="0"/>
        <pt x="1809" y="-178" on="0"/>
        <pt x="1892" y="-97" on="1"/>
        <pt x="2032" y="-204" on="1"/>
        <pt x="1892" y="-352" on="0"/>
        <pt x="1715" y="-352" on="1"/>
        <pt x="1560" y="-352" on="0"/>
        <pt x="1424" y="-190" on="1"/>
        <pt x="1354" y="-106" on="0"/>
        <pt x="1301" y="-16" on="1"/>
        <pt x="1215" y="124" on="1"/>
        <pt x="1025" y="0" on="0"/>
        <pt x="791" y="0" on="1"/>
        <pt x="528" y="0" on="0"/>
        <pt x="310" y="176" on="1"/>
        <pt x="240" y="232" on="0"/>
        <pt x="182" y="301" on="1"/>
        <pt x="319" y="412" on="1"/>
        <pt x="412" y="302" on="0"/>
        <pt x="654" y="174" on="0"/>
        <pt x="766" y="174" on="1"/>
        <pt x="965" y="174" on="0"/>
        <pt x="1112" y="265" on="1"/>
        <pt x="992" y="393" on="0"/>
        <pt x="851" y="271" on="1"/>
        <pt x="728" y="396" on="1"/>
        <pt x="849" y="506" on="0"/>
        <pt x="1127" y="506" on="0"/>
      </contour>
    </TTGlyph>
    <TTGlyph name="R" xMin="103" yMin="-30" xMax="1628" yMax="1567">
      <contour>
        <pt x="798" y="1386" on="1"/>
        <pt x="875" y="1567" on="0"/>
        <pt x="1055" y="1567" on="1"/>
        <pt x="1185" y="1568" on="0"/>
        <pt x="1260" y="1426" on="1"/>
        <pt x="1282" y="1386" on="0"/>
        <pt x="1296" y="1355" on="1"/>
        <pt x="1320" y="1302" on="1"/>
        <pt x="1357" y="1226" on="0"/>
        <pt x="1385" y="1226" on="1"/>
        <pt x="1410" y="1226" on="0"/>
        <pt x="1423" y="1254" on="1"/>
        <pt x="1442" y="1295" on="0"/>
        <pt x="1458" y="1356" on="1"/>
        <pt x="1628" y="1314" on="1"/>
        <pt x="1586" y="1119" on="0"/>
        <pt x="1462" y="1063" on="1"/>
        <pt x="1312" y="995" on="1"/>
        <pt x="1352" y="965" on="0"/>
        <pt x="1365" y="886" on="1"/>
        <pt x="1451" y="308" on="1"/>
        <pt x="1468" y="195" on="0"/>
        <pt x="1609" y="128" on="1"/>
        <pt x="1534" y="-30" on="1"/>
        <pt x="1309" y="73" on="0"/>
        <pt x="1278" y="281" on="1"/>
        <pt x="1195" y="848" on="1"/>
        <pt x="1186" y="908" on="0"/>
        <pt x="1151" y="921" on="1"/>
        <pt x="913" y="813" on="1"/>
        <pt x="896" y="504" on="0"/>
        <pt x="770" y="270" on="1"/>
        <pt x="675" y="92" on="0"/>
        <pt x="514" y="18" on="1"/>
        <pt x="431" y="-20" on="0"/>
        <pt x="279" y="-21" on="0"/>
        <pt x="198" y="14" on="0"/>
        <pt x="168" y="44" on="1"/>
        <pt x="103" y="110" on="0"/>
        <pt x="103" y="202" on="1"/>
        <pt x="103" y="296" on="0"/>
        <pt x="168" y="362" on="1"/>
        <pt x="232" y="428" on="0"/>
        <pt x="326" y="427" on="1"/>
        <pt x="444" y="427" on="0"/>
        <pt x="512" y="328" on="1"/>
        <pt x="532" y="298" on="0"/>
        <pt x="542" y="262" on="1"/>
        <pt x="693" y="436" on="0"/>
        <pt x="731" y="818" on="1"/>
        <pt x="742" y="928" on="0"/>
        <pt x="742" y="1095" on="0"/>
        <pt x="722" y="1160" on="1"/>
        <pt x="702" y="1224" on="0"/>
        <pt x="666" y="1276" on="1"/>
        <pt x="586" y="1392" on="0"/>
        <pt x="479" y="1393" on="1"/>
        <pt x="396" y="1393" on="0"/>
        <pt x="313" y="1318" on="0"/>
        <pt x="313" y="1216" on="0"/>
        <pt x="353" y="1149" on="0"/>
        <pt x="412" y="1087" on="0"/>
        <pt x="446" y="1056" on="1"/>
        <pt x="480" y="1024" on="0"/>
        <pt x="510" y="986" on="1"/>
        <pt x="580" y="896" on="0"/>
        <pt x="580" y="792" on="1"/>
        <pt x="580" y="697" on="0"/>
        <pt x="449" y="566" on="0"/>
        <pt x="354" y="566" on="1"/>
        <pt x="261" y="566" on="0"/>
        <pt x="197" y="632" on="1"/>
        <pt x="132" y="698" on="0"/>
        <pt x="132" y="792" on="1"/>
        <pt x="132" y="902" on="0"/>
        <pt x="221" y="970" on="1"/>
        <pt x="248" y="990" on="0"/>
        <pt x="281" y="1002" on="1"/>
        <pt x="213" y="1052" on="0"/>
        <pt x="188" y="1089" on="1"/>
        <pt x="138" y="1163" on="0"/>
        <pt x="138" y="1326" on="0"/>
        <pt x="182" y="1439" on="0"/>
        <pt x="224" y="1480" on="1"/>
        <pt x="314" y="1567" on="0"/>
        <pt x="479" y="1567" on="1"/>
        <pt x="576" y="1567" on="0"/>
        <pt x="739" y="1467" on="0"/>
      </contour>
      <contour>
        <pt x="1038" y="1393" on="1"/>
        <pt x="1016" y="1393" on="0"/>
        <pt x="974" y="1358" on="0"/>
        <pt x="946" y="1299" on="0"/>
        <pt x="938" y="1260" on="1"/>
        <pt x="929" y="1222" on="0"/>
        <pt x="924" y="1178" on="1"/>
        <pt x="916" y="1108" on="0"/>
        <pt x="916" y="1005" on="1"/>
        <pt x="1212" y="1142" on="1"/>
        <pt x="1189" y="1171" on="0"/>
        <pt x="1174" y="1204" on="1"/>
        <pt x="1120" y="1316" on="1"/>
        <pt x="1084" y="1393" on="0"/>
      </contour>
      <contour>
        <pt x="302" y="257" on="0"/>
        <pt x="271" y="225" on="0"/>
        <pt x="271" y="180" on="0"/>
        <pt x="302" y="149" on="0"/>
        <pt x="347" y="149" on="0"/>
        <pt x="379" y="180" on="0"/>
        <pt x="379" y="225" on="0"/>
        <pt x="347" y="257" on="0"/>
      </contour>
      <contour>
        <pt x="333" y="844" on="0"/>
        <pt x="302" y="812" on="0"/>
        <pt x="302" y="767" on="0"/>
        <pt x="333" y="736" on="0"/>
        <pt x="378" y="736" on="0"/>
        <pt x="410" y="767" on="0"/>
        <pt x="410" y="812" on="0"/>
        <pt x="378" y="844" on="0"/>
      </contour>
    </TTGlyph>
    <TTGlyph name="S" xMin="70" yMin="0" xMax="1662" yMax="1568">
      <contour>
        <pt x="209" y="599" on="1"/>
        <pt x="515" y="175" on="0"/>
        <pt x="916" y="175" on="1"/>
        <pt x="1168" y="175" on="0"/>
        <pt x="1330" y="293" on="1"/>
        <pt x="1488" y="408" on="0"/>
        <pt x="1488" y="581" on="1"/>
        <pt x="1488" y="700" on="0"/>
        <pt x="1432" y="762" on="1"/>
        <pt x="1386" y="813" on="0"/>
        <pt x="1271" y="813" on="0"/>
        <pt x="1181" y="772" on="0"/>
        <pt x="1094" y="711" on="0"/>
        <pt x="1048" y="675" on="1"/>
        <pt x="1000" y="638" on="0"/>
        <pt x="944" y="608" on="1"/>
        <pt x="812" y="536" on="0"/>
        <pt x="551" y="537" on="0"/>
        <pt x="356" y="601" on="0"/>
        <pt x="282" y="667" on="1"/>
        <pt x="119" y="812" on="0"/>
        <pt x="119" y="1072" on="1"/>
        <pt x="120" y="1270" on="0"/>
        <pt x="246" y="1408" on="1"/>
        <pt x="392" y="1568" on="0"/>
        <pt x="667" y="1568" on="1"/>
        <pt x="847" y="1568" on="0"/>
        <pt x="994" y="1470" on="1"/>
        <pt x="1035" y="1442" on="0"/>
        <pt x="1072" y="1412" on="1"/>
        <pt x="1143" y="1355" on="1"/>
        <pt x="1177" y="1327" on="0"/>
        <pt x="1212" y="1305" on="1"/>
        <pt x="1212" y="1478" on="0"/>
        <pt x="1331" y="1538" on="1"/>
        <pt x="1371" y="1558" on="0"/>
        <pt x="1471" y="1558" on="0"/>
        <pt x="1512" y="1540" on="1"/>
        <pt x="1554" y="1522" on="0"/>
        <pt x="1584" y="1492" on="1"/>
        <pt x="1650" y="1426" on="0"/>
        <pt x="1649" y="1272" on="0"/>
        <pt x="1604" y="1184" on="0"/>
        <pt x="1565" y="1155" on="1"/>
        <pt x="1490" y="1099" on="0"/>
        <pt x="1358" y="1099" on="1"/>
        <pt x="1204" y="1099" on="0"/>
        <pt x="1011" y="1246" on="1"/>
        <pt x="894" y="1335" on="0"/>
        <pt x="738" y="1393" on="0"/>
        <pt x="567" y="1393" on="0"/>
        <pt x="496" y="1365" on="1"/>
        <pt x="426" y="1338" on="0"/>
        <pt x="381" y="1292" on="1"/>
        <pt x="294" y="1204" on="0"/>
        <pt x="294" y="1073" on="1"/>
        <pt x="294" y="897" on="0"/>
        <pt x="404" y="799" on="1"/>
        <pt x="503" y="711" on="0"/>
        <pt x="656" y="711" on="1"/>
        <pt x="778" y="711" on="0"/>
        <pt x="896" y="783" on="1"/>
        <pt x="946" y="814" on="0"/>
        <pt x="1039" y="885" on="0"/>
        <pt x="1089" y="916" on="1"/>
        <pt x="1205" y="988" on="0"/>
        <pt x="1325" y="988" on="1"/>
        <pt x="1453" y="988" on="0"/>
        <pt x="1546" y="900" on="1"/>
        <pt x="1662" y="790" on="0"/>
        <pt x="1662" y="584" on="1"/>
        <pt x="1662" y="463" on="0"/>
        <pt x="1554" y="250" on="0"/>
        <pt x="1456" y="171" on="1"/>
        <pt x="1243" y="0" on="0"/>
        <pt x="916" y="0" on="1"/>
        <pt x="549" y="0" on="0"/>
        <pt x="257" y="277" on="1"/>
        <pt x="162" y="367" on="0"/>
        <pt x="70" y="495" on="1"/>
      </contour>
      <contour>
        <pt x="1402" y="1390" on="0"/>
        <pt x="1371" y="1358" on="0"/>
        <pt x="1371" y="1313" on="0"/>
        <pt x="1402" y="1282" on="0"/>
        <pt x="1447" y="1282" on="0"/>
        <pt x="1479" y="1313" on="0"/>
        <pt x="1479" y="1358" on="0"/>
        <pt x="1447" y="1390" on="0"/>
      </contour>
    </TTGlyph>
    <TTGlyph name="T" xMin="28" yMin="0" xMax="1487" yMax="1567">
      <contour>
        <pt x="1312" y="1089" on="0"/>
        <pt x="1177" y="1051" on="0"/>
        <pt x="1014" y="1051" on="0"/>
        <pt x="917" y="1092" on="1"/>
        <pt x="760" y="968" on="1"/>
        <pt x="788" y="898" on="0"/>
        <pt x="845" y="819" on="1"/>
        <pt x="932" y="694" on="1"/>
        <pt x="1044" y="530" on="0"/>
        <pt x="1044" y="354" on="1"/>
        <pt x="1044" y="207" on="0"/>
        <pt x="940" y="103" on="1"/>
        <pt x="837" y="0" on="0"/>
        <pt x="541" y="0" on="0"/>
        <pt x="335" y="206" on="0"/>
        <pt x="335" y="354" on="1"/>
        <pt x="335" y="449" on="0"/>
        <pt x="425" y="607" on="0"/>
        <pt x="500" y="656" on="1"/>
        <pt x="591" y="509" on="1"/>
        <pt x="507" y="456" on="0"/>
        <pt x="507" y="355" on="1"/>
        <pt x="507" y="280" on="0"/>
        <pt x="613" y="174" on="0"/>
        <pt x="688" y="174" on="1"/>
        <pt x="764" y="174" on="0"/>
        <pt x="816" y="227" on="1"/>
        <pt x="870" y="282" on="0"/>
        <pt x="870" y="403" on="0"/>
        <pt x="843" y="491" on="0"/>
        <pt x="800" y="572" on="0"/>
        <pt x="774" y="609" on="1"/>
        <pt x="720" y="682" on="1"/>
        <pt x="652" y="768" on="0"/>
        <pt x="627" y="827" on="1"/>
        <pt x="579" y="939" on="0"/>
        <pt x="579" y="1047" on="1"/>
        <pt x="756" y="1187" on="1"/>
        <pt x="724" y="1210" on="0"/>
        <pt x="684" y="1245" on="1"/>
        <pt x="646" y="1280" on="0"/>
        <pt x="602" y="1313" on="1"/>
        <pt x="497" y="1393" on="0"/>
        <pt x="373" y="1393" on="0"/>
        <pt x="332" y="1372" on="1"/>
        <pt x="290" y="1352" on="0"/>
        <pt x="262" y="1320" on="1"/>
        <pt x="202" y="1254" on="0"/>
        <pt x="203" y="1128" on="0"/>
        <pt x="242" y="1052" on="0"/>
        <pt x="278" y="1026" on="1"/>
        <pt x="349" y="974" on="0"/>
        <pt x="468" y="974" on="1"/>
        <pt x="468" y="800" on="1"/>
        <pt x="270" y="800" on="0"/>
        <pt x="152" y="896" on="1"/>
        <pt x="28" y="997" on="0"/>
        <pt x="28" y="1178" on="1"/>
        <pt x="28" y="1319" on="0"/>
        <pt x="136" y="1437" on="1"/>
        <pt x="254" y="1567" on="0"/>
        <pt x="424" y="1567" on="1"/>
        <pt x="588" y="1568" on="0"/>
        <pt x="768" y="1408" on="1"/>
        <pt x="882" y="1307" on="0"/>
        <pt x="1013" y="1234" on="0"/>
        <pt x="1071" y="1227" on="1"/>
        <pt x="1040" y="1280" on="0"/>
        <pt x="1040" y="1389" on="0"/>
        <pt x="1058" y="1430" on="1"/>
        <pt x="1075" y="1472" on="0"/>
        <pt x="1105" y="1502" on="1"/>
        <pt x="1169" y="1568" on="0"/>
        <pt x="1263" y="1567" on="1"/>
        <pt x="1356" y="1567" on="0"/>
        <pt x="1487" y="1436" on="0"/>
        <pt x="1487" y="1272" on="0"/>
        <pt x="1420" y="1164" on="0"/>
      </contour>
      <contour>
        <pt x="1240" y="1397" on="0"/>
        <pt x="1209" y="1365" on="0"/>
        <pt x="1209" y="1320" on="0"/>
        <pt x="1240" y="1289" on="0"/>
        <pt x="1285" y="1289" on="0"/>
        <pt x="1317" y="1320" on="0"/>
        <pt x="1317" y="1365" on="0"/>
        <pt x="1285" y="1397" on="0"/>
      </contour>
    </TTGlyph>
    <TTGlyph name="Thorn" xMin="93" yMin="-352" xMax="1513" yMax="1567">
      <contour>
        <pt x="731" y="282" on="1"/>
        <pt x="575" y="266" on="0"/>
        <pt x="426" y="117" on="1"/>
        <pt x="300" y="236" on="1"/>
        <pt x="408" y="340" on="0"/>
        <pt x="481" y="379" on="1"/>
        <pt x="606" y="447" on="0"/>
        <pt x="731" y="462" on="1"/>
        <pt x="731" y="1073" on="1"/>
        <pt x="732" y="1217" on="0"/>
        <pt x="638" y="1309" on="1"/>
        <pt x="553" y="1393" on="0"/>
        <pt x="357" y="1393" on="0"/>
        <pt x="274" y="1318" on="0"/>
        <pt x="274" y="1216" on="0"/>
        <pt x="314" y="1149" on="0"/>
        <pt x="373" y="1087" on="0"/>
        <pt x="442" y="1024" on="0"/>
        <pt x="472" y="986" on="1"/>
        <pt x="542" y="896" on="0"/>
        <pt x="541" y="792" on="1"/>
        <pt x="541" y="697" on="0"/>
        <pt x="410" y="566" on="0"/>
        <pt x="315" y="566" on="1"/>
        <pt x="222" y="566" on="0"/>
        <pt x="158" y="632" on="1"/>
        <pt x="93" y="698" on="0"/>
        <pt x="93" y="792" on="1"/>
        <pt x="93" y="902" on="0"/>
        <pt x="182" y="970" on="1"/>
        <pt x="209" y="990" on="0"/>
        <pt x="242" y="1002" on="1"/>
        <pt x="174" y="1052" on="0"/>
        <pt x="149" y="1089" on="1"/>
        <pt x="99" y="1163" on="0"/>
        <pt x="99" y="1326" on="0"/>
        <pt x="121" y="1382" on="1"/>
        <pt x="144" y="1439" on="0"/>
        <pt x="186" y="1480" on="1"/>
        <pt x="276" y="1567" on="0"/>
        <pt x="440" y="1567" on="1"/>
        <pt x="609" y="1568" on="0"/>
        <pt x="746" y="1452" on="1"/>
        <pt x="906" y="1318" on="0"/>
        <pt x="906" y="1077" on="1"/>
        <pt x="906" y="1024" on="1"/>
        <pt x="1286" y="1230" on="1"/>
        <pt x="1452" y="1110" on="0"/>
        <pt x="1498" y="932" on="1"/>
        <pt x="1513" y="874" on="0"/>
        <pt x="1513" y="817" on="1"/>
        <pt x="1513" y="427" on="1"/>
        <pt x="1513" y="231" on="0"/>
        <pt x="1385" y="131" on="1"/>
        <pt x="1271" y="42" on="1"/>
        <pt x="1142" y="176" on="0"/>
        <pt x="996" y="251" on="1"/>
        <pt x="946" y="277" on="0"/>
        <pt x="906" y="282" on="1"/>
        <pt x="906" y="128" on="1"/>
        <pt x="906" y="-229" on="0"/>
        <pt x="690" y="-325" on="1"/>
        <pt x="630" y="-352" on="0"/>
        <pt x="562" y="-352" on="1"/>
        <pt x="553" y="-352" on="1"/>
        <pt x="460" y="-352" on="0"/>
        <pt x="396" y="-286" on="1"/>
        <pt x="331" y="-220" on="0"/>
        <pt x="331" y="-126" on="1"/>
        <pt x="331" y="-34" on="0"/>
        <pt x="461" y="96" on="0"/>
        <pt x="553" y="96" on="1"/>
        <pt x="672" y="96" on="0"/>
        <pt x="723" y="-8" on="1"/>
        <pt x="731" y="20" on="0"/>
        <pt x="731" y="82" on="1"/>
      </contour>
      <contour>
        <pt x="1285" y="269" on="1"/>
        <pt x="1342" y="319" on="0"/>
        <pt x="1342" y="427" on="1"/>
        <pt x="1342" y="817" on="1"/>
        <pt x="1342" y="958" on="0"/>
        <pt x="1253" y="1020" on="1"/>
        <pt x="906" y="827" on="1"/>
        <pt x="906" y="459" on="1"/>
        <pt x="1065" y="440" on="0"/>
        <pt x="1213" y="330" on="1"/>
        <pt x="1254" y="300" on="0"/>
      </contour>
      <contour>
        <pt x="532" y="-74" on="0"/>
        <pt x="501" y="-106" on="0"/>
        <pt x="501" y="-151" on="0"/>
        <pt x="532" y="-182" on="0"/>
        <pt x="577" y="-182" on="0"/>
        <pt x="609" y="-151" on="0"/>
        <pt x="609" y="-106" on="0"/>
        <pt x="577" y="-74" on="0"/>
      </contour>
      <contour>
        <pt x="294" y="844" on="0"/>
        <pt x="263" y="812" on="0"/>
        <pt x="263" y="767" on="0"/>
        <pt x="294" y="736" on="0"/>
        <pt x="339" y="736" on="0"/>
        <pt x="371" y="767" on="0"/>
        <pt x="371" y="812" on="0"/>
        <pt x="339" y="844" on="0"/>
      </contour>
    </TTGlyph>
    <TTGlyph name="U" xMin="93" yMin="-30" xMax="1145" yMax="1567">
      <contour>
        <pt x="1048" y="-30" on="1"/>
        <pt x="845" y="95" on="0"/>
        <pt x="841" y="300" on="1"/>
        <pt x="395" y="-30" on="1"/>
        <pt x="307" y="73" on="1"/>
        <pt x="143" y="270" on="0"/>
        <pt x="143" y="489" on="1"/>
        <pt x="143" y="605" on="0"/>
        <pt x="210" y="935" on="0"/>
        <pt x="240" y="1113" on="0"/>
        <pt x="240" y="1263" on="0"/>
        <pt x="167" y="1370" on="0"/>
        <pt x="93" y="1429" on="1"/>
        <pt x="198" y="1567" on="1"/>
        <pt x="368" y="1436" on="0"/>
        <pt x="402" y="1302" on="1"/>
        <pt x="414" y="1254" on="0"/>
        <pt x="415" y="1102" on="0"/>
        <pt x="384" y="930" on="0"/>
        <pt x="366" y="846" on="1"/>
        <pt x="317" y="616" on="0"/>
        <pt x="317" y="489" on="1"/>
        <pt x="317" y="346" on="0"/>
        <pt x="419" y="210" on="1"/>
        <pt x="841" y="522" on="1"/>
        <pt x="841" y="1537" on="1"/>
        <pt x="1015" y="1537" on="1"/>
        <pt x="1015" y="341" on="1"/>
        <pt x="1015" y="264" on="0"/>
        <pt x="1075" y="158" on="0"/>
        <pt x="1145" y="109" on="1"/>
      </contour>
    </TTGlyph>
    <TTGlyph name="Uacute" xMin="93" yMin="-30" xMax="1145" yMax="1995">
      <contour>
        <pt x="1048" y="-30" on="1"/>
        <pt x="845" y="95" on="0"/>
        <pt x="841" y="300" on="1"/>
        <pt x="395" y="-30" on="1"/>
        <pt x="307" y="73" on="1"/>
        <pt x="143" y="270" on="0"/>
        <pt x="143" y="489" on="1"/>
        <pt x="143" y="605" on="0"/>
        <pt x="210" y="935" on="0"/>
        <pt x="240" y="1113" on="0"/>
        <pt x="240" y="1263" on="0"/>
        <pt x="167" y="1370" on="0"/>
        <pt x="93" y="1429" on="1"/>
        <pt x="198" y="1567" on="1"/>
        <pt x="368" y="1436" on="0"/>
        <pt x="402" y="1302" on="1"/>
        <pt x="414" y="1254" on="0"/>
        <pt x="415" y="1102" on="0"/>
        <pt x="384" y="930" on="0"/>
        <pt x="366" y="846" on="1"/>
        <pt x="317" y="616" on="0"/>
        <pt x="317" y="489" on="1"/>
        <pt x="317" y="346" on="0"/>
        <pt x="419" y="210" on="1"/>
        <pt x="841" y="522" on="1"/>
        <pt x="841" y="1537" on="1"/>
        <pt x="1015" y="1537" on="1"/>
        <pt x="1015" y="341" on="1"/>
        <pt x="1015" y="264" on="0"/>
        <pt x="1075" y="158" on="0"/>
        <pt x="1145" y="109" on="1"/>
      </contour>
      <contour>
        <pt x="629" y="1599" on="1"/>
        <pt x="539" y="1741" on="1"/>
        <pt x="888" y="1995" on="1"/>
        <pt x="1004" y="1837" on="1"/>
      </contour>
    </TTGlyph>
    <TTGlyph name="Ucircumflex" xMin="93" yMin="-30" xMax="1145" yMax="1997">
      <contour>
        <pt x="1048" y="-30" on="1"/>
        <pt x="845" y="95" on="0"/>
        <pt x="841" y="300" on="1"/>
        <pt x="395" y="-30" on="1"/>
        <pt x="307" y="73" on="1"/>
        <pt x="143" y="270" on="0"/>
        <pt x="143" y="489" on="1"/>
        <pt x="143" y="605" on="0"/>
        <pt x="210" y="935" on="0"/>
        <pt x="240" y="1113" on="0"/>
        <pt x="240" y="1263" on="0"/>
        <pt x="167" y="1370" on="0"/>
        <pt x="93" y="1429" on="1"/>
        <pt x="198" y="1567" on="1"/>
        <pt x="368" y="1436" on="0"/>
        <pt x="402" y="1302" on="1"/>
        <pt x="414" y="1254" on="0"/>
        <pt x="415" y="1102" on="0"/>
        <pt x="384" y="930" on="0"/>
        <pt x="366" y="846" on="1"/>
        <pt x="317" y="616" on="0"/>
        <pt x="317" y="489" on="1"/>
        <pt x="317" y="346" on="0"/>
        <pt x="419" y="210" on="1"/>
        <pt x="841" y="522" on="1"/>
        <pt x="841" y="1537" on="1"/>
        <pt x="1015" y="1537" on="1"/>
        <pt x="1015" y="341" on="1"/>
        <pt x="1015" y="264" on="0"/>
        <pt x="1075" y="158" on="0"/>
        <pt x="1145" y="109" on="1"/>
      </contour>
      <contour>
        <pt x="240" y="1745" on="1"/>
        <pt x="601" y="1997" on="1"/>
        <pt x="949" y="1745" on="1"/>
        <pt x="846" y="1609" on="1"/>
        <pt x="601" y="1790" on="1"/>
        <pt x="572" y="1766" on="0"/>
        <pt x="528" y="1736" on="1"/>
        <pt x="343" y="1609" on="1"/>
      </contour>
    </TTGlyph>
    <TTGlyph name="Udieresis" xMin="93" yMin="-30" xMax="1145" yMax="1992">
      <contour>
        <pt x="1048" y="-30" on="1"/>
        <pt x="845" y="95" on="0"/>
        <pt x="841" y="300" on="1"/>
        <pt x="395" y="-30" on="1"/>
        <pt x="307" y="73" on="1"/>
        <pt x="143" y="270" on="0"/>
        <pt x="143" y="489" on="1"/>
        <pt x="143" y="605" on="0"/>
        <pt x="210" y="935" on="0"/>
        <pt x="240" y="1113" on="0"/>
        <pt x="240" y="1263" on="0"/>
        <pt x="167" y="1370" on="0"/>
        <pt x="93" y="1429" on="1"/>
        <pt x="198" y="1567" on="1"/>
        <pt x="368" y="1436" on="0"/>
        <pt x="402" y="1302" on="1"/>
        <pt x="414" y="1254" on="0"/>
        <pt x="415" y="1102" on="0"/>
        <pt x="384" y="930" on="0"/>
        <pt x="366" y="846" on="1"/>
        <pt x="317" y="616" on="0"/>
        <pt x="317" y="489" on="1"/>
        <pt x="317" y="346" on="0"/>
        <pt x="419" y="210" on="1"/>
        <pt x="841" y="522" on="1"/>
        <pt x="841" y="1537" on="1"/>
        <pt x="1015" y="1537" on="1"/>
        <pt x="1015" y="341" on="1"/>
        <pt x="1015" y="264" on="0"/>
        <pt x="1075" y="158" on="0"/>
        <pt x="1145" y="109" on="1"/>
      </contour>
      <contour>
        <pt x="806" y="1657" on="1"/>
        <pt x="648" y="1710" on="1"/>
        <pt x="766" y="1992" on="1"/>
        <pt x="943" y="1921" on="1"/>
      </contour>
      <contour>
        <pt x="501" y="1657" on="1"/>
        <pt x="343" y="1710" on="1"/>
        <pt x="462" y="1992" on="1"/>
        <pt x="639" y="1921" on="1"/>
      </contour>
    </TTGlyph>
    <TTGlyph name="Ugrave" xMin="93" yMin="-30" xMax="1145" yMax="1995">
      <contour>
        <pt x="1048" y="-30" on="1"/>
        <pt x="845" y="95" on="0"/>
        <pt x="841" y="300" on="1"/>
        <pt x="395" y="-30" on="1"/>
        <pt x="307" y="73" on="1"/>
        <pt x="143" y="270" on="0"/>
        <pt x="143" y="489" on="1"/>
        <pt x="143" y="605" on="0"/>
        <pt x="210" y="935" on="0"/>
        <pt x="240" y="1113" on="0"/>
        <pt x="240" y="1263" on="0"/>
        <pt x="167" y="1370" on="0"/>
        <pt x="93" y="1429" on="1"/>
        <pt x="198" y="1567" on="1"/>
        <pt x="368" y="1436" on="0"/>
        <pt x="402" y="1302" on="1"/>
        <pt x="414" y="1254" on="0"/>
        <pt x="415" y="1102" on="0"/>
        <pt x="384" y="930" on="0"/>
        <pt x="366" y="846" on="1"/>
        <pt x="317" y="616" on="0"/>
        <pt x="317" y="489" on="1"/>
        <pt x="317" y="346" on="0"/>
        <pt x="419" y="210" on="1"/>
        <pt x="841" y="522" on="1"/>
        <pt x="841" y="1537" on="1"/>
        <pt x="1015" y="1537" on="1"/>
        <pt x="1015" y="341" on="1"/>
        <pt x="1015" y="264" on="0"/>
        <pt x="1075" y="158" on="0"/>
        <pt x="1145" y="109" on="1"/>
      </contour>
      <contour>
        <pt x="227" y="1837" on="1"/>
        <pt x="343" y="1995" on="1"/>
        <pt x="691" y="1741" on="1"/>
        <pt x="600" y="1598" on="1"/>
      </contour>
    </TTGlyph>
    <TTGlyph name="V" xMin="103" yMin="0" xMax="1514" yMax="1569">
      <contour>
        <pt x="631" y="267" on="1"/>
        <pt x="635" y="245" on="0"/>
        <pt x="635" y="179" on="0"/>
        <pt x="600" y="96" on="0"/>
        <pt x="570" y="66" on="1"/>
        <pt x="504" y="0" on="0"/>
        <pt x="409" y="0" on="1"/>
        <pt x="316" y="0" on="0"/>
        <pt x="252" y="66" on="1"/>
        <pt x="187" y="132" on="0"/>
        <pt x="187" y="226" on="1"/>
        <pt x="190" y="395" on="0"/>
        <pt x="344" y="455" on="1"/>
        <pt x="398" y="476" on="0"/>
        <pt x="543" y="476" on="0"/>
        <pt x="601" y="457" on="1"/>
        <pt x="732" y="708" on="0"/>
        <pt x="732" y="960" on="1"/>
        <pt x="732" y="1148" on="0"/>
        <pt x="647" y="1272" on="1"/>
        <pt x="564" y="1393" on="0"/>
        <pt x="450" y="1393" on="1"/>
        <pt x="367" y="1393" on="0"/>
        <pt x="284" y="1318" on="0"/>
        <pt x="284" y="1216" on="0"/>
        <pt x="324" y="1149" on="0"/>
        <pt x="383" y="1087" on="0"/>
        <pt x="452" y="1024" on="0"/>
        <pt x="482" y="986" on="1"/>
        <pt x="552" y="896" on="0"/>
        <pt x="551" y="792" on="1"/>
        <pt x="551" y="697" on="0"/>
        <pt x="420" y="566" on="0"/>
        <pt x="325" y="566" on="1"/>
        <pt x="232" y="566" on="0"/>
        <pt x="168" y="632" on="1"/>
        <pt x="103" y="698" on="0"/>
        <pt x="103" y="792" on="1"/>
        <pt x="103" y="902" on="0"/>
        <pt x="192" y="970" on="1"/>
        <pt x="219" y="990" on="0"/>
        <pt x="252" y="1002" on="1"/>
        <pt x="184" y="1052" on="0"/>
        <pt x="159" y="1089" on="1"/>
        <pt x="109" y="1163" on="0"/>
        <pt x="109" y="1326" on="0"/>
        <pt x="131" y="1382" on="1"/>
        <pt x="154" y="1439" on="0"/>
        <pt x="196" y="1480" on="1"/>
        <pt x="286" y="1567" on="0"/>
        <pt x="450" y="1567" on="1"/>
        <pt x="537" y="1567" on="0"/>
        <pt x="701" y="1478" on="0"/>
        <pt x="765" y="1398" on="1"/>
        <pt x="907" y="1219" on="0"/>
        <pt x="907" y="960" on="1"/>
        <pt x="907" y="673" on="0"/>
        <pt x="746" y="365" on="1"/>
        <pt x="786" y="332" on="0"/>
        <pt x="820" y="298" on="1"/>
        <pt x="854" y="266" on="0"/>
        <pt x="892" y="238" on="1"/>
        <pt x="977" y="176" on="0"/>
        <pt x="1148" y="175" on="0"/>
        <pt x="1196" y="202" on="1"/>
        <pt x="1244" y="228" on="0"/>
        <pt x="1274" y="270" on="1"/>
        <pt x="1334" y="354" on="0"/>
        <pt x="1334" y="476" on="1"/>
        <pt x="1334" y="623" on="0"/>
        <pt x="1272" y="764" on="1"/>
        <pt x="1198" y="929" on="1"/>
        <pt x="1132" y="1081" on="0"/>
        <pt x="1133" y="1231" on="1"/>
        <pt x="1133" y="1398" on="0"/>
        <pt x="1244" y="1486" on="1"/>
        <pt x="1347" y="1568" on="0"/>
        <pt x="1514" y="1569" on="1"/>
        <pt x="1514" y="1394" on="1"/>
        <pt x="1368" y="1394" on="0"/>
        <pt x="1323" y="1307" on="1"/>
        <pt x="1307" y="1276" on="0"/>
        <pt x="1307" y="1186" on="0"/>
        <pt x="1322" y="1105" on="0"/>
        <pt x="1347" y="1028" on="0"/>
        <pt x="1363" y="992" on="1"/>
        <pt x="1437" y="828" on="1"/>
        <pt x="1508" y="663" on="0"/>
        <pt x="1508" y="476" on="1"/>
        <pt x="1508" y="275" on="0"/>
        <pt x="1406" y="146" on="1"/>
        <pt x="1291" y="0" on="0"/>
        <pt x="1087" y="0" on="1"/>
        <pt x="908" y="0" on="0"/>
        <pt x="804" y="90" on="1"/>
        <pt x="750" y="136" on="0"/>
        <pt x="662" y="238" on="0"/>
      </contour>
      <contour>
        <pt x="388" y="278" on="0"/>
        <pt x="357" y="246" on="0"/>
        <pt x="357" y="201" on="0"/>
        <pt x="388" y="170" on="0"/>
        <pt x="433" y="170" on="0"/>
        <pt x="465" y="201" on="0"/>
        <pt x="465" y="246" on="0"/>
        <pt x="433" y="278" on="0"/>
      </contour>
      <contour>
        <pt x="304" y="844" on="0"/>
        <pt x="273" y="812" on="0"/>
        <pt x="273" y="767" on="0"/>
        <pt x="304" y="736" on="0"/>
        <pt x="349" y="736" on="0"/>
        <pt x="381" y="767" on="0"/>
        <pt x="381" y="812" on="0"/>
        <pt x="349" y="844" on="0"/>
      </contour>
    </TTGlyph>
</ttFont>
